<mxfile host="app.diagrams.net" agent="Mozilla/5.0 (Windows NT 10.0; Win64; x64) AppleWebKit/537.36 (KHTML, like Gecko) Chrome/134.0.0.0 Safari/537.36 Edg/134.0.0.0" version="26.1.1">
  <diagram name="第 1 页" id="L52sDL9lHCh9jiwDanbU">
    <mxGraphModel dx="4853" dy="1793" grid="1" gridSize="10" guides="1" tooltips="1" connect="1" arrows="1" fold="1" page="0" pageScale="1" pageWidth="827" pageHeight="1169" math="0" shadow="0">
      <root>
        <mxCell id="0" />
        <mxCell id="1" parent="0" />
        <mxCell id="avVdpwBqNhuO5_O_l7Rd-1" value="&lt;font style=&quot;font-size: 50px;&quot;&gt;A1&lt;/font&gt;" style="triangle;whiteSpace=wrap;html=1;strokeWidth=6;" parent="1" vertex="1">
          <mxGeometry x="275" y="1518" width="120" height="160" as="geometry" />
        </mxCell>
        <mxCell id="avVdpwBqNhuO5_O_l7Rd-2" value="" style="endArrow=none;html=1;rounded=0;exitX=0;exitY=0.25;exitDx=0;exitDy=0;strokeWidth=4;" parent="1" edge="1">
          <mxGeometry width="50" height="50" relative="1" as="geometry">
            <mxPoint x="273" y="1558" as="sourcePoint" />
            <mxPoint x="-18" y="1558" as="targetPoint" />
          </mxGeometry>
        </mxCell>
        <mxCell id="avVdpwBqNhuO5_O_l7Rd-3" value="" style="endArrow=none;html=1;rounded=0;exitX=0;exitY=0.75;exitDx=0;exitDy=0;strokeWidth=4;" parent="1" source="avVdpwBqNhuO5_O_l7Rd-1" edge="1">
          <mxGeometry width="50" height="50" relative="1" as="geometry">
            <mxPoint x="295" y="1638" as="sourcePoint" />
            <mxPoint x="80" y="1638" as="targetPoint" />
          </mxGeometry>
        </mxCell>
        <mxCell id="avVdpwBqNhuO5_O_l7Rd-4" value="" style="endArrow=none;html=1;rounded=0;entryX=1;entryY=0.5;entryDx=0;entryDy=0;strokeWidth=4;" parent="1" target="avVdpwBqNhuO5_O_l7Rd-1" edge="1">
          <mxGeometry width="50" height="50" relative="1" as="geometry">
            <mxPoint x="455" y="1598" as="sourcePoint" />
            <mxPoint x="255" y="1658" as="targetPoint" />
          </mxGeometry>
        </mxCell>
        <mxCell id="avVdpwBqNhuO5_O_l7Rd-5" value="&lt;font style=&quot;font-size: 50px;&quot;&gt;+&lt;/font&gt;" style="text;html=1;align=center;verticalAlign=middle;resizable=0;points=[];autosize=1;strokeColor=none;fillColor=none;strokeWidth=4;" parent="1" vertex="1">
          <mxGeometry x="225" y="1503" width="50" height="70" as="geometry" />
        </mxCell>
        <mxCell id="avVdpwBqNhuO5_O_l7Rd-6" value="&lt;font style=&quot;font-size: 50px;&quot;&gt;-&lt;/font&gt;" style="text;html=1;align=center;verticalAlign=middle;resizable=0;points=[];autosize=1;strokeColor=none;fillColor=none;strokeWidth=4;" parent="1" vertex="1">
          <mxGeometry x="230" y="1623" width="40" height="70" as="geometry" />
        </mxCell>
        <mxCell id="avVdpwBqNhuO5_O_l7Rd-7" value="&lt;font style=&quot;font-size: 50px;&quot;&gt;A2&lt;/font&gt;" style="triangle;whiteSpace=wrap;html=1;strokeWidth=6;" parent="1" vertex="1">
          <mxGeometry x="275" y="1838" width="120" height="160" as="geometry" />
        </mxCell>
        <mxCell id="avVdpwBqNhuO5_O_l7Rd-8" value="" style="endArrow=none;html=1;rounded=0;exitX=0;exitY=0.25;exitDx=0;exitDy=0;strokeWidth=4;" parent="1" source="avVdpwBqNhuO5_O_l7Rd-7" edge="1">
          <mxGeometry width="50" height="50" relative="1" as="geometry">
            <mxPoint x="315" y="1958" as="sourcePoint" />
            <mxPoint x="175" y="1878" as="targetPoint" />
          </mxGeometry>
        </mxCell>
        <mxCell id="avVdpwBqNhuO5_O_l7Rd-9" value="" style="endArrow=none;html=1;rounded=0;strokeWidth=4;entryX=0;entryY=0.5;entryDx=0;entryDy=0;strokeColor=#0000FF;exitX=0;exitY=0.5;exitDx=0;exitDy=0;" parent="1" source="avVdpwBqNhuO5_O_l7Rd-46" target="avVdpwBqNhuO5_O_l7Rd-47" edge="1">
          <mxGeometry width="50" height="50" relative="1" as="geometry">
            <mxPoint x="295" y="1958" as="sourcePoint" />
            <mxPoint x="-120" y="1958" as="targetPoint" />
          </mxGeometry>
        </mxCell>
        <mxCell id="avVdpwBqNhuO5_O_l7Rd-10" value="" style="endArrow=none;html=1;rounded=0;entryX=1;entryY=0.5;entryDx=0;entryDy=0;strokeWidth=4;" parent="1" target="avVdpwBqNhuO5_O_l7Rd-7" edge="1">
          <mxGeometry width="50" height="50" relative="1" as="geometry">
            <mxPoint x="455" y="1918" as="sourcePoint" />
            <mxPoint x="255" y="1978" as="targetPoint" />
          </mxGeometry>
        </mxCell>
        <mxCell id="avVdpwBqNhuO5_O_l7Rd-11" value="" style="rounded=0;whiteSpace=wrap;html=1;direction=south;strokeWidth=6;" parent="1" vertex="1">
          <mxGeometry x="155" y="1438" width="40" height="80" as="geometry" />
        </mxCell>
        <mxCell id="avVdpwBqNhuO5_O_l7Rd-12" value="" style="rounded=0;whiteSpace=wrap;html=1;direction=south;fontStyle=1;strokeWidth=6;" parent="1" vertex="1">
          <mxGeometry x="155" y="1718" width="40" height="80" as="geometry" />
        </mxCell>
        <mxCell id="avVdpwBqNhuO5_O_l7Rd-13" value="" style="rounded=0;whiteSpace=wrap;html=1;direction=south;strokeWidth=6;" parent="1" vertex="1">
          <mxGeometry x="155" y="1998" width="40" height="80" as="geometry" />
        </mxCell>
        <mxCell id="avVdpwBqNhuO5_O_l7Rd-14" value="" style="endArrow=none;html=1;rounded=0;entryX=1;entryY=0.5;entryDx=0;entryDy=0;exitX=0;exitY=0.5;exitDx=0;exitDy=0;strokeWidth=4;" parent="1" source="avVdpwBqNhuO5_O_l7Rd-12" target="avVdpwBqNhuO5_O_l7Rd-11" edge="1">
          <mxGeometry width="50" height="50" relative="1" as="geometry">
            <mxPoint x="335" y="1658" as="sourcePoint" />
            <mxPoint x="435" y="1558" as="targetPoint" />
          </mxGeometry>
        </mxCell>
        <mxCell id="avVdpwBqNhuO5_O_l7Rd-15" value="" style="endArrow=none;html=1;rounded=0;entryX=1;entryY=0.5;entryDx=0;entryDy=0;exitX=0;exitY=0.5;exitDx=0;exitDy=0;strokeWidth=4;" parent="1" source="avVdpwBqNhuO5_O_l7Rd-13" target="avVdpwBqNhuO5_O_l7Rd-12" edge="1">
          <mxGeometry width="50" height="50" relative="1" as="geometry">
            <mxPoint x="195" y="1738" as="sourcePoint" />
            <mxPoint x="195" y="1538" as="targetPoint" />
          </mxGeometry>
        </mxCell>
        <mxCell id="avVdpwBqNhuO5_O_l7Rd-16" value="" style="ellipse;whiteSpace=wrap;html=1;aspect=fixed;fillColor=#000000;strokeWidth=4;" parent="1" vertex="1">
          <mxGeometry x="165" y="1628" width="20" height="20" as="geometry" />
        </mxCell>
        <mxCell id="avVdpwBqNhuO5_O_l7Rd-17" value="" style="ellipse;whiteSpace=wrap;html=1;aspect=fixed;fillColor=#000000;strokeWidth=4;" parent="1" vertex="1">
          <mxGeometry x="165" y="1868" width="20" height="20" as="geometry" />
        </mxCell>
        <mxCell id="avVdpwBqNhuO5_O_l7Rd-18" value="&lt;font style=&quot;font-size: 50px;&quot;&gt;触&lt;br&gt;发&lt;br&gt;器&lt;/font&gt;" style="rounded=0;whiteSpace=wrap;html=1;direction=south;strokeWidth=6;" parent="1" vertex="1">
          <mxGeometry x="455" y="1513" width="120" height="485" as="geometry" />
        </mxCell>
        <mxCell id="avVdpwBqNhuO5_O_l7Rd-19" value="&lt;font style=&quot;font-size: 50px;&quot;&gt;+&lt;/font&gt;" style="text;html=1;align=center;verticalAlign=middle;resizable=0;points=[];autosize=1;strokeColor=none;fillColor=none;strokeWidth=4;" parent="1" vertex="1">
          <mxGeometry x="225" y="1818" width="50" height="70" as="geometry" />
        </mxCell>
        <mxCell id="avVdpwBqNhuO5_O_l7Rd-20" value="&lt;font style=&quot;font-size: 50px;&quot;&gt;-&lt;/font&gt;" style="text;html=1;align=center;verticalAlign=middle;resizable=0;points=[];autosize=1;strokeColor=none;fillColor=none;strokeWidth=4;" parent="1" vertex="1">
          <mxGeometry x="230" y="1938" width="40" height="70" as="geometry" />
        </mxCell>
        <mxCell id="avVdpwBqNhuO5_O_l7Rd-21" value="" style="endArrow=none;html=1;rounded=0;entryX=0;entryY=0.5;entryDx=0;entryDy=0;strokeWidth=4;" parent="1" target="avVdpwBqNhuO5_O_l7Rd-18" edge="1">
          <mxGeometry width="50" height="50" relative="1" as="geometry">
            <mxPoint x="515" y="1398" as="sourcePoint" />
            <mxPoint x="395" y="1658" as="targetPoint" />
          </mxGeometry>
        </mxCell>
        <mxCell id="avVdpwBqNhuO5_O_l7Rd-22" value="" style="endArrow=none;html=1;rounded=0;entryX=0;entryY=0.5;entryDx=0;entryDy=0;strokeWidth=4;" parent="1" target="avVdpwBqNhuO5_O_l7Rd-11" edge="1">
          <mxGeometry width="50" height="50" relative="1" as="geometry">
            <mxPoint x="175" y="1398" as="sourcePoint" />
            <mxPoint x="395" y="1658" as="targetPoint" />
          </mxGeometry>
        </mxCell>
        <mxCell id="avVdpwBqNhuO5_O_l7Rd-23" value="" style="endArrow=none;html=1;rounded=0;entryX=0.173;entryY=0.018;entryDx=0;entryDy=0;entryPerimeter=0;strokeWidth=4;exitX=1;exitY=0.5;exitDx=0;exitDy=0;" parent="1" target="avVdpwBqNhuO5_O_l7Rd-18" edge="1">
          <mxGeometry width="50" height="50" relative="1" as="geometry">
            <mxPoint x="700" y="1598" as="sourcePoint" />
            <mxPoint x="535" y="1658" as="targetPoint" />
          </mxGeometry>
        </mxCell>
        <mxCell id="avVdpwBqNhuO5_O_l7Rd-24" value="" style="endArrow=none;html=1;rounded=0;strokeWidth=4;entryX=0.832;entryY=0.011;entryDx=0;entryDy=0;entryPerimeter=0;" parent="1" target="avVdpwBqNhuO5_O_l7Rd-18" edge="1">
          <mxGeometry width="50" height="50" relative="1" as="geometry">
            <mxPoint x="660" y="1918" as="sourcePoint" />
            <mxPoint x="590" y="1915" as="targetPoint" />
          </mxGeometry>
        </mxCell>
        <mxCell id="avVdpwBqNhuO5_O_l7Rd-25" value="" style="endArrow=none;html=1;rounded=0;strokeWidth=4;" parent="1" edge="1">
          <mxGeometry width="50" height="50" relative="1" as="geometry">
            <mxPoint x="660" y="2218" as="sourcePoint" />
            <mxPoint x="660" y="1918" as="targetPoint" />
          </mxGeometry>
        </mxCell>
        <mxCell id="avVdpwBqNhuO5_O_l7Rd-26" value="" style="endArrow=none;html=1;rounded=0;strokeWidth=4;entryX=1;entryY=0.5;entryDx=0;entryDy=0;" parent="1" target="avVdpwBqNhuO5_O_l7Rd-117" edge="1">
          <mxGeometry width="50" height="50" relative="1" as="geometry">
            <mxPoint x="375" y="2219" as="sourcePoint" />
            <mxPoint x="500" y="2219" as="targetPoint" />
          </mxGeometry>
        </mxCell>
        <mxCell id="avVdpwBqNhuO5_O_l7Rd-27" value="" style="endArrow=none;html=1;rounded=0;strokeWidth=4;" parent="1" edge="1">
          <mxGeometry width="50" height="50" relative="1" as="geometry">
            <mxPoint x="69.00039857313686" y="2278.910717844403" as="sourcePoint" />
            <mxPoint x="-19" y="2278" as="targetPoint" />
          </mxGeometry>
        </mxCell>
        <mxCell id="avVdpwBqNhuO5_O_l7Rd-28" value="" style="endArrow=none;html=1;rounded=0;entryX=1;entryY=0.5;entryDx=0;entryDy=0;strokeWidth=4;" parent="1" source="avVdpwBqNhuO5_O_l7Rd-30" target="avVdpwBqNhuO5_O_l7Rd-13" edge="1">
          <mxGeometry width="50" height="50" relative="1" as="geometry">
            <mxPoint x="175" y="2298" as="sourcePoint" />
            <mxPoint x="355" y="2088" as="targetPoint" />
          </mxGeometry>
        </mxCell>
        <mxCell id="avVdpwBqNhuO5_O_l7Rd-30" value="" style="ellipse;whiteSpace=wrap;html=1;aspect=fixed;fillColor=#000000;strokeWidth=4;" parent="1" vertex="1">
          <mxGeometry x="165" y="2269" width="20" height="20" as="geometry" />
        </mxCell>
        <mxCell id="avVdpwBqNhuO5_O_l7Rd-31" value="&lt;font style=&quot;font-size: 50px;&quot;&gt;6&lt;/font&gt;" style="text;html=1;align=center;verticalAlign=middle;resizable=0;points=[];autosize=1;strokeColor=default;fillColor=none;rounded=1;fontStyle=1;strokeWidth=4;dashed=1;opacity=50;shadow=1;glass=1;dashPattern=1 1;" parent="1" vertex="1">
          <mxGeometry x="-80" y="1513" width="50" height="70" as="geometry" />
        </mxCell>
        <mxCell id="avVdpwBqNhuO5_O_l7Rd-32" value="&lt;font style=&quot;font-size: 50px;&quot;&gt;&lt;b&gt;5&lt;/b&gt;&lt;/font&gt;" style="text;html=1;align=center;verticalAlign=middle;resizable=0;points=[];autosize=1;strokeColor=default;fillColor=none;strokeWidth=4;dashed=1;opacity=50;rounded=1;shadow=1;glass=1;dashPattern=1 1;" parent="1" vertex="1">
          <mxGeometry x="85" y="1648" width="50" height="70" as="geometry" />
        </mxCell>
        <mxCell id="avVdpwBqNhuO5_O_l7Rd-33" value="&lt;font style=&quot;font-size: 50px;&quot;&gt;&lt;b&gt;2&lt;/b&gt;&lt;/font&gt;" style="text;html=1;align=center;verticalAlign=middle;resizable=0;points=[];autosize=1;strokeColor=default;fillColor=none;strokeWidth=4;dashed=1;opacity=50;rounded=1;shadow=1;glass=1;dashPattern=1 1;" parent="1" vertex="1">
          <mxGeometry x="-77" y="1868" width="50" height="70" as="geometry" />
        </mxCell>
        <mxCell id="avVdpwBqNhuO5_O_l7Rd-34" value="&lt;font style=&quot;font-size: 50px;&quot;&gt;&lt;b&gt;7&lt;/b&gt;&lt;/font&gt;" style="text;html=1;align=center;verticalAlign=middle;resizable=0;points=[];autosize=1;strokeColor=default;fillColor=none;strokeWidth=4;dashed=1;opacity=50;rounded=1;shadow=1;glass=1;dashPattern=1 1;" parent="1" vertex="1">
          <mxGeometry x="-220" y="2073" width="50" height="70" as="geometry" />
        </mxCell>
        <mxCell id="avVdpwBqNhuO5_O_l7Rd-35" value="&lt;font style=&quot;font-size: 50px;&quot;&gt;&lt;b&gt;1&lt;/b&gt;&lt;/font&gt;" style="text;html=1;align=center;verticalAlign=middle;resizable=0;points=[];autosize=1;strokeColor=default;fillColor=none;strokeWidth=4;dashed=1;opacity=50;rounded=1;shadow=1;glass=1;dashPattern=1 1;" parent="1" vertex="1">
          <mxGeometry x="270" y="2198" width="50" height="70" as="geometry" />
        </mxCell>
        <mxCell id="avVdpwBqNhuO5_O_l7Rd-36" value="&lt;font style=&quot;font-size: 50px;&quot;&gt;R&lt;/font&gt;" style="text;html=1;align=center;verticalAlign=middle;resizable=0;points=[];autosize=1;strokeColor=none;fillColor=none;strokeWidth=4;" parent="1" vertex="1">
          <mxGeometry x="385" y="1516" width="60" height="70" as="geometry" />
        </mxCell>
        <mxCell id="avVdpwBqNhuO5_O_l7Rd-37" value="&lt;span style=&quot;font-size: 50px;&quot;&gt;S&lt;/span&gt;" style="text;html=1;align=center;verticalAlign=middle;resizable=0;points=[];autosize=1;strokeColor=none;fillColor=none;strokeWidth=4;" parent="1" vertex="1">
          <mxGeometry x="385" y="1843" width="60" height="70" as="geometry" />
        </mxCell>
        <mxCell id="avVdpwBqNhuO5_O_l7Rd-38" value="&lt;span style=&quot;font-size: 50px;&quot;&gt;Q&lt;/span&gt;" style="text;html=1;align=center;verticalAlign=middle;resizable=0;points=[];autosize=1;strokeColor=none;fillColor=none;strokeWidth=4;" parent="1" vertex="1">
          <mxGeometry x="585" y="1518" width="60" height="70" as="geometry" />
        </mxCell>
        <mxCell id="avVdpwBqNhuO5_O_l7Rd-39" value="&lt;span style=&quot;font-size: 50px;&quot;&gt;T&lt;/span&gt;" style="text;html=1;align=center;verticalAlign=middle;resizable=0;points=[];autosize=1;strokeColor=none;fillColor=none;strokeWidth=4;" parent="1" vertex="1">
          <mxGeometry x="390" y="2159" width="50" height="70" as="geometry" />
        </mxCell>
        <mxCell id="avVdpwBqNhuO5_O_l7Rd-40" value="&lt;font style=&quot;font-size: 50px;&quot;&gt;8&lt;/font&gt;" style="text;html=1;align=center;verticalAlign=middle;resizable=0;points=[];autosize=1;strokeColor=default;fillColor=none;rounded=1;fontStyle=1;strokeWidth=4;dashed=1;opacity=50;shadow=1;glass=1;dashPattern=1 1;" parent="1" vertex="1">
          <mxGeometry x="205" y="1438" width="50" height="70" as="geometry" />
        </mxCell>
        <mxCell id="avVdpwBqNhuO5_O_l7Rd-41" value="&lt;font style=&quot;font-size: 50px;&quot;&gt;4&lt;/font&gt;" style="text;html=1;align=center;verticalAlign=middle;resizable=0;points=[];autosize=1;strokeColor=default;fillColor=none;rounded=1;fontStyle=1;strokeWidth=4;dashed=1;opacity=50;shadow=1;glass=1;dashPattern=1 1;" parent="1" vertex="1">
          <mxGeometry x="525" y="1433" width="50" height="70" as="geometry" />
        </mxCell>
        <mxCell id="avVdpwBqNhuO5_O_l7Rd-42" value="&lt;font style=&quot;font-size: 50px;&quot;&gt;3&lt;/font&gt;" style="text;html=1;align=center;verticalAlign=middle;resizable=0;points=[];autosize=1;strokeColor=default;fillColor=none;rounded=1;fontStyle=1;strokeWidth=4;dashed=1;opacity=50;shadow=1;glass=1;dashPattern=1 1;" parent="1" vertex="1">
          <mxGeometry x="600" y="1623" width="50" height="70" as="geometry" />
        </mxCell>
        <mxCell id="avVdpwBqNhuO5_O_l7Rd-43" value="" style="endArrow=none;html=1;rounded=0;strokeWidth=4;" parent="1" edge="1">
          <mxGeometry width="50" height="50" relative="1" as="geometry">
            <mxPoint x="-17.03124984853389" y="1949.0000484691348" as="sourcePoint" />
            <mxPoint x="-18" y="1556.5" as="targetPoint" />
            <Array as="points">
              <mxPoint x="-18" y="1680" />
            </Array>
          </mxGeometry>
        </mxCell>
        <mxCell id="avVdpwBqNhuO5_O_l7Rd-44" value="" style="endArrow=none;html=1;rounded=0;strokeWidth=4;" parent="1" edge="1">
          <mxGeometry width="50" height="50" relative="1" as="geometry">
            <mxPoint x="79" y="2208" as="sourcePoint" />
            <mxPoint x="79.29" y="1638" as="targetPoint" />
          </mxGeometry>
        </mxCell>
        <mxCell id="avVdpwBqNhuO5_O_l7Rd-45" value="" style="endArrow=none;html=1;rounded=0;strokeWidth=4;" parent="1" edge="1">
          <mxGeometry width="50" height="50" relative="1" as="geometry">
            <mxPoint x="80" y="2228" as="sourcePoint" />
            <mxPoint x="80" y="2278" as="targetPoint" />
          </mxGeometry>
        </mxCell>
        <mxCell id="avVdpwBqNhuO5_O_l7Rd-46" value="" style="ellipse;whiteSpace=wrap;html=1;aspect=fixed;fillColor=#0000FF;strokeWidth=4;strokeColor=#0000FF;" parent="1" vertex="1">
          <mxGeometry x="-27" y="1948" width="20" height="20" as="geometry" />
        </mxCell>
        <mxCell id="avVdpwBqNhuO5_O_l7Rd-47" value="" style="rounded=0;whiteSpace=wrap;html=1;direction=south;strokeWidth=6;rotation=90;strokeColor=#0000FF;" parent="1" vertex="1">
          <mxGeometry x="-145" y="1918" width="40" height="80" as="geometry" />
        </mxCell>
        <mxCell id="avVdpwBqNhuO5_O_l7Rd-48" value="" style="ellipse;whiteSpace=wrap;html=1;aspect=fixed;fillColor=#0000FF;strokeWidth=4;strokeColor=#0000FF;" parent="1" vertex="1">
          <mxGeometry x="-250" y="1948" width="20" height="20" as="geometry" />
        </mxCell>
        <mxCell id="avVdpwBqNhuO5_O_l7Rd-50" value="" style="rounded=0;whiteSpace=wrap;html=1;direction=south;strokeWidth=6;strokeColor=#0000FF;" parent="1" vertex="1">
          <mxGeometry x="-260" y="1738" width="40" height="80" as="geometry" />
        </mxCell>
        <mxCell id="avVdpwBqNhuO5_O_l7Rd-54" value="" style="endArrow=none;html=1;rounded=0;strokeWidth=4;entryX=0;entryY=0.5;entryDx=0;entryDy=0;strokeColor=#0000FF;" parent="1" target="avVdpwBqNhuO5_O_l7Rd-50" edge="1">
          <mxGeometry width="50" height="50" relative="1" as="geometry">
            <mxPoint x="-240" y="1398" as="sourcePoint" />
            <mxPoint x="-240" y="1728" as="targetPoint" />
          </mxGeometry>
        </mxCell>
        <mxCell id="avVdpwBqNhuO5_O_l7Rd-56" value="" style="endArrow=none;html=1;rounded=0;strokeWidth=4;strokeColor=#0000FF;" parent="1" edge="1">
          <mxGeometry width="50" height="50" relative="1" as="geometry">
            <mxPoint x="-17.83" y="2088" as="sourcePoint" />
            <mxPoint x="-17" y="2278" as="targetPoint" />
          </mxGeometry>
        </mxCell>
        <mxCell id="avVdpwBqNhuO5_O_l7Rd-57" value="" style="endArrow=none;html=1;rounded=0;strokeWidth=4;entryX=0.5;entryY=1;entryDx=0;entryDy=0;strokeColor=#0000FF;" parent="1" target="avVdpwBqNhuO5_O_l7Rd-46" edge="1">
          <mxGeometry width="50" height="50" relative="1" as="geometry">
            <mxPoint x="-17" y="2068.5152994791665" as="sourcePoint" />
            <mxPoint x="-10" y="1980" as="targetPoint" />
          </mxGeometry>
        </mxCell>
        <mxCell id="avVdpwBqNhuO5_O_l7Rd-59" value="&lt;font style=&quot;font-size: 50px;&quot;&gt;R&lt;sub&gt;G&lt;/sub&gt;&lt;/font&gt;" style="text;html=1;align=center;verticalAlign=middle;resizable=0;points=[];autosize=1;strokeColor=none;fillColor=none;strokeWidth=4;fontColor=#0000FF;" parent="1" vertex="1">
          <mxGeometry x="-220" y="1958" width="90" height="80" as="geometry" />
        </mxCell>
        <mxCell id="avVdpwBqNhuO5_O_l7Rd-61" value="&lt;font style=&quot;font-size: 50px;&quot;&gt;C&lt;sub&gt;2&lt;/sub&gt;&lt;/font&gt;" style="text;html=1;align=center;verticalAlign=middle;resizable=0;points=[];autosize=1;strokeColor=none;fillColor=none;strokeWidth=4;" parent="1" vertex="1">
          <mxGeometry x="-10" y="2208" width="80" height="80" as="geometry" />
        </mxCell>
        <mxCell id="avVdpwBqNhuO5_O_l7Rd-62" value="" style="group" parent="1" vertex="1" connectable="0">
          <mxGeometry x="50" y="2208" width="60" height="21" as="geometry" />
        </mxCell>
        <mxCell id="avVdpwBqNhuO5_O_l7Rd-63" value="" style="endArrow=none;html=1;rounded=0;strokeWidth=4;" parent="avVdpwBqNhuO5_O_l7Rd-62" edge="1">
          <mxGeometry width="50" height="50" relative="1" as="geometry">
            <mxPoint as="sourcePoint" />
            <mxPoint x="60" as="targetPoint" />
          </mxGeometry>
        </mxCell>
        <mxCell id="avVdpwBqNhuO5_O_l7Rd-64" value="" style="endArrow=none;html=1;rounded=0;strokeWidth=4;" parent="avVdpwBqNhuO5_O_l7Rd-62" edge="1">
          <mxGeometry width="50" height="50" relative="1" as="geometry">
            <mxPoint y="21" as="sourcePoint" />
            <mxPoint x="60" y="21" as="targetPoint" />
          </mxGeometry>
        </mxCell>
        <mxCell id="avVdpwBqNhuO5_O_l7Rd-68" value="" style="endArrow=none;html=1;rounded=0;strokeWidth=4;strokeColor=#0000FF;" parent="1" target="avVdpwBqNhuO5_O_l7Rd-69" edge="1">
          <mxGeometry width="50" height="50" relative="1" as="geometry">
            <mxPoint x="-240" y="1398" as="sourcePoint" />
            <mxPoint x="680" y="1398" as="targetPoint" />
          </mxGeometry>
        </mxCell>
        <mxCell id="avVdpwBqNhuO5_O_l7Rd-69" value="" style="ellipse;whiteSpace=wrap;html=1;aspect=fixed;fillColor=#000000;strokeWidth=4;" parent="1" vertex="1">
          <mxGeometry x="165" y="1388" width="20" height="20" as="geometry" />
        </mxCell>
        <mxCell id="avVdpwBqNhuO5_O_l7Rd-70" value="" style="endArrow=none;html=1;rounded=0;strokeWidth=4;" parent="1" source="avVdpwBqNhuO5_O_l7Rd-69" target="avVdpwBqNhuO5_O_l7Rd-71" edge="1">
          <mxGeometry width="50" height="50" relative="1" as="geometry">
            <mxPoint x="185" y="1398" as="sourcePoint" />
            <mxPoint x="680" y="1398" as="targetPoint" />
          </mxGeometry>
        </mxCell>
        <mxCell id="avVdpwBqNhuO5_O_l7Rd-71" value="" style="ellipse;whiteSpace=wrap;html=1;aspect=fixed;fillColor=#000000;strokeWidth=4;" parent="1" vertex="1">
          <mxGeometry x="505" y="1388" width="20" height="20" as="geometry" />
        </mxCell>
        <mxCell id="avVdpwBqNhuO5_O_l7Rd-72" value="" style="endArrow=none;html=1;rounded=0;strokeWidth=4;exitX=0;exitY=0.5;exitDx=0;exitDy=0;" parent="1" source="avVdpwBqNhuO5_O_l7Rd-30" edge="1">
          <mxGeometry width="50" height="50" relative="1" as="geometry">
            <mxPoint x="160" y="2280" as="sourcePoint" />
            <mxPoint x="89.99999999991633" y="2279" as="targetPoint" />
          </mxGeometry>
        </mxCell>
        <mxCell id="avVdpwBqNhuO5_O_l7Rd-73" value="" style="ellipse;whiteSpace=wrap;html=1;aspect=fixed;fillColor=#000000;strokeWidth=4;" parent="1" vertex="1">
          <mxGeometry x="70" y="2269" width="20" height="20" as="geometry" />
        </mxCell>
        <mxCell id="avVdpwBqNhuO5_O_l7Rd-74" value="" style="group" parent="1" vertex="1" connectable="0">
          <mxGeometry x="590" y="1828" width="60" height="70" as="geometry" />
        </mxCell>
        <mxCell id="avVdpwBqNhuO5_O_l7Rd-75" value="&lt;font style=&quot;font-size: 50px;&quot;&gt;Q&lt;/font&gt;" style="text;html=1;align=center;verticalAlign=middle;resizable=0;points=[];autosize=1;strokeColor=none;fillColor=none;strokeWidth=4;" parent="avVdpwBqNhuO5_O_l7Rd-74" vertex="1">
          <mxGeometry width="60" height="70" as="geometry" />
        </mxCell>
        <mxCell id="avVdpwBqNhuO5_O_l7Rd-76" value="" style="endArrow=none;html=1;rounded=0;strokeWidth=4;" parent="avVdpwBqNhuO5_O_l7Rd-74" edge="1">
          <mxGeometry width="50" height="50" relative="1" as="geometry">
            <mxPoint x="50" y="5" as="sourcePoint" />
            <mxPoint x="10" y="5" as="targetPoint" />
          </mxGeometry>
        </mxCell>
        <mxCell id="avVdpwBqNhuO5_O_l7Rd-79" value="" style="endArrow=none;html=1;rounded=0;strokeWidth=4;entryX=0.5;entryY=1;entryDx=0;entryDy=0;strokeColor=#0000FF;" parent="1" target="avVdpwBqNhuO5_O_l7Rd-48" edge="1">
          <mxGeometry width="50" height="50" relative="1" as="geometry">
            <mxPoint x="336" y="2159" as="sourcePoint" />
            <mxPoint x="-290" y="2028" as="targetPoint" />
            <Array as="points">
              <mxPoint x="-240" y="2159" />
            </Array>
          </mxGeometry>
        </mxCell>
        <mxCell id="avVdpwBqNhuO5_O_l7Rd-87" value="" style="endArrow=none;html=1;rounded=0;strokeWidth=4;" parent="1" edge="1">
          <mxGeometry width="50" height="50" relative="1" as="geometry">
            <mxPoint x="335" y="2179" as="sourcePoint" />
            <mxPoint x="335" y="2159" as="targetPoint" />
          </mxGeometry>
        </mxCell>
        <mxCell id="avVdpwBqNhuO5_O_l7Rd-88" value="" style="endArrow=none;html=1;rounded=0;strokeWidth=4;" parent="1" edge="1">
          <mxGeometry width="50" height="50" relative="1" as="geometry">
            <mxPoint x="335" y="2259" as="sourcePoint" />
            <mxPoint x="335" y="2279" as="targetPoint" />
          </mxGeometry>
        </mxCell>
        <mxCell id="avVdpwBqNhuO5_O_l7Rd-89" value="" style="group" parent="1" vertex="1" connectable="0">
          <mxGeometry x="335" y="2179" width="40" height="80" as="geometry" />
        </mxCell>
        <mxCell id="avVdpwBqNhuO5_O_l7Rd-90" value="" style="endArrow=none;html=1;rounded=0;strokeWidth=6;" parent="avVdpwBqNhuO5_O_l7Rd-89" edge="1">
          <mxGeometry width="50" height="50" relative="1" as="geometry">
            <mxPoint x="40" y="80" as="sourcePoint" />
            <mxPoint x="40" as="targetPoint" />
          </mxGeometry>
        </mxCell>
        <mxCell id="avVdpwBqNhuO5_O_l7Rd-91" value="" style="endArrow=none;html=1;rounded=0;strokeWidth=4;" parent="avVdpwBqNhuO5_O_l7Rd-89" edge="1">
          <mxGeometry width="50" height="50" relative="1" as="geometry">
            <mxPoint x="40" y="20" as="sourcePoint" />
            <mxPoint as="targetPoint" />
          </mxGeometry>
        </mxCell>
        <mxCell id="avVdpwBqNhuO5_O_l7Rd-92" value="" style="endArrow=classic;html=1;rounded=0;strokeWidth=4;" parent="avVdpwBqNhuO5_O_l7Rd-89" edge="1">
          <mxGeometry width="50" height="50" relative="1" as="geometry">
            <mxPoint x="40" y="60" as="sourcePoint" />
            <mxPoint y="80" as="targetPoint" />
          </mxGeometry>
        </mxCell>
        <mxCell id="avVdpwBqNhuO5_O_l7Rd-105" value="" style="group" parent="1" vertex="1" connectable="0">
          <mxGeometry x="145" y="2289" width="60" height="30" as="geometry" />
        </mxCell>
        <mxCell id="avVdpwBqNhuO5_O_l7Rd-106" value="" style="endArrow=none;html=1;rounded=0;strokeWidth=4;entryX=0.5;entryY=1;entryDx=0;entryDy=0;" parent="avVdpwBqNhuO5_O_l7Rd-105" edge="1">
          <mxGeometry width="50" height="50" relative="1" as="geometry">
            <mxPoint x="30" y="29" as="sourcePoint" />
            <mxPoint x="30" as="targetPoint" />
          </mxGeometry>
        </mxCell>
        <mxCell id="avVdpwBqNhuO5_O_l7Rd-107" value="" style="endArrow=none;html=1;rounded=0;strokeWidth=4;" parent="avVdpwBqNhuO5_O_l7Rd-105" edge="1">
          <mxGeometry width="50" height="50" relative="1" as="geometry">
            <mxPoint y="30" as="sourcePoint" />
            <mxPoint x="60" y="30" as="targetPoint" />
          </mxGeometry>
        </mxCell>
        <mxCell id="avVdpwBqNhuO5_O_l7Rd-108" value="" style="group;flipV=1;" parent="1" vertex="1" connectable="0">
          <mxGeometry x="145" y="1358" width="60" height="30" as="geometry" />
        </mxCell>
        <mxCell id="avVdpwBqNhuO5_O_l7Rd-109" value="" style="endArrow=none;html=1;rounded=0;strokeWidth=4;entryX=0.5;entryY=1;entryDx=0;entryDy=0;" parent="avVdpwBqNhuO5_O_l7Rd-108" edge="1">
          <mxGeometry width="50" height="50" relative="1" as="geometry">
            <mxPoint x="30" y="1" as="sourcePoint" />
            <mxPoint x="30" y="30" as="targetPoint" />
          </mxGeometry>
        </mxCell>
        <mxCell id="avVdpwBqNhuO5_O_l7Rd-110" value="" style="endArrow=none;html=1;rounded=0;strokeWidth=4;" parent="avVdpwBqNhuO5_O_l7Rd-108" edge="1">
          <mxGeometry width="50" height="50" relative="1" as="geometry">
            <mxPoint as="sourcePoint" />
            <mxPoint x="60" as="targetPoint" />
          </mxGeometry>
        </mxCell>
        <mxCell id="avVdpwBqNhuO5_O_l7Rd-113" value="&lt;font style=&quot;font-size: 50px;&quot;&gt;+6V&lt;/font&gt;" style="text;html=1;align=center;verticalAlign=middle;resizable=0;points=[];autosize=1;strokeColor=none;fillColor=none;strokeWidth=4;" parent="1" vertex="1">
          <mxGeometry x="120" y="1288" width="110" height="70" as="geometry" />
        </mxCell>
        <mxCell id="avVdpwBqNhuO5_O_l7Rd-114" value="" style="endArrow=none;html=1;rounded=0;strokeWidth=4;" parent="1" edge="1">
          <mxGeometry width="50" height="50" relative="1" as="geometry">
            <mxPoint x="200" y="2328" as="sourcePoint" />
            <mxPoint x="150" y="2328" as="targetPoint" />
          </mxGeometry>
        </mxCell>
        <mxCell id="avVdpwBqNhuO5_O_l7Rd-115" value="" style="endArrow=none;html=1;rounded=0;strokeWidth=4;" parent="1" edge="1">
          <mxGeometry width="50" height="50" relative="1" as="geometry">
            <mxPoint x="190" y="2338" as="sourcePoint" />
            <mxPoint x="160" y="2338" as="targetPoint" />
          </mxGeometry>
        </mxCell>
        <mxCell id="avVdpwBqNhuO5_O_l7Rd-116" value="&lt;font style=&quot;font-size: 50px;&quot;&gt;GND&lt;/font&gt;" style="text;html=1;align=center;verticalAlign=middle;resizable=0;points=[];autosize=1;strokeColor=none;fillColor=none;strokeWidth=4;" parent="1" vertex="1">
          <mxGeometry x="25" y="2308" width="130" height="70" as="geometry" />
        </mxCell>
        <mxCell id="avVdpwBqNhuO5_O_l7Rd-117" value="" style="rounded=0;whiteSpace=wrap;html=1;direction=west;strokeWidth=6;" parent="1" vertex="1">
          <mxGeometry x="480" y="2198" width="80" height="40" as="geometry" />
        </mxCell>
        <mxCell id="avVdpwBqNhuO5_O_l7Rd-118" value="" style="endArrow=none;html=1;rounded=0;strokeWidth=4;exitX=0;exitY=0.5;exitDx=0;exitDy=0;" parent="1" source="avVdpwBqNhuO5_O_l7Rd-117" edge="1">
          <mxGeometry width="50" height="50" relative="1" as="geometry">
            <mxPoint x="385" y="2229" as="sourcePoint" />
            <mxPoint x="660" y="2218" as="targetPoint" />
          </mxGeometry>
        </mxCell>
        <mxCell id="avVdpwBqNhuO5_O_l7Rd-119" value="&lt;font style=&quot;font-size: 50px;&quot;&gt;R&lt;sub&gt;p&lt;/sub&gt;&lt;/font&gt;" style="text;html=1;align=center;verticalAlign=middle;resizable=0;points=[];autosize=1;strokeColor=none;fillColor=none;strokeWidth=4;" parent="1" vertex="1">
          <mxGeometry x="482" y="2118" width="77" height="81" as="geometry" />
        </mxCell>
        <mxCell id="avVdpwBqNhuO5_O_l7Rd-121" value="" style="endArrow=none;html=1;rounded=0;strokeWidth=4;entryX=1;entryY=0.5;entryDx=0;entryDy=0;exitX=1;exitY=0.5;exitDx=0;exitDy=0;strokeColor=#0000FF;" parent="1" source="avVdpwBqNhuO5_O_l7Rd-47" target="avVdpwBqNhuO5_O_l7Rd-48" edge="1">
          <mxGeometry width="50" height="50" relative="1" as="geometry">
            <mxPoint x="-180" y="1956" as="sourcePoint" />
            <mxPoint x="-75" y="1968" as="targetPoint" />
          </mxGeometry>
        </mxCell>
        <mxCell id="avVdpwBqNhuO5_O_l7Rd-122" value="&lt;font style=&quot;font-size: 50px;&quot;&gt;R&lt;sub&gt;t&lt;/sub&gt;&lt;/font&gt;" style="text;html=1;align=center;verticalAlign=middle;resizable=0;points=[];autosize=1;strokeColor=none;fillColor=none;strokeWidth=4;fontColor=#000000;" parent="1" vertex="1">
          <mxGeometry x="87" y="1435.5" width="70" height="80" as="geometry" />
        </mxCell>
        <mxCell id="avVdpwBqNhuO5_O_l7Rd-123" value="&lt;font style=&quot;font-size: 50px;&quot;&gt;R&lt;sub&gt;t&lt;/sub&gt;&lt;/font&gt;" style="text;html=1;align=center;verticalAlign=middle;resizable=0;points=[];autosize=1;strokeColor=none;fillColor=none;strokeWidth=4;fontColor=#000000;" parent="1" vertex="1">
          <mxGeometry x="87" y="2000.5" width="70" height="80" as="geometry" />
        </mxCell>
        <mxCell id="avVdpwBqNhuO5_O_l7Rd-124" value="&lt;font style=&quot;font-size: 50px;&quot;&gt;R&lt;sub&gt;t&lt;/sub&gt;&lt;/font&gt;" style="text;html=1;align=center;verticalAlign=middle;resizable=0;points=[];autosize=1;strokeColor=none;fillColor=none;strokeWidth=4;fontColor=#000000;" parent="1" vertex="1">
          <mxGeometry x="87" y="1720.5" width="70" height="80" as="geometry" />
        </mxCell>
        <mxCell id="avVdpwBqNhuO5_O_l7Rd-125" value="" style="endArrow=none;html=1;rounded=0;strokeWidth=4;entryX=0.5;entryY=0;entryDx=0;entryDy=0;strokeColor=#0000FF;exitX=1;exitY=0.5;exitDx=0;exitDy=0;" parent="1" source="avVdpwBqNhuO5_O_l7Rd-50" target="avVdpwBqNhuO5_O_l7Rd-48" edge="1">
          <mxGeometry width="50" height="50" relative="1" as="geometry">
            <mxPoint x="-210" y="1850" as="sourcePoint" />
            <mxPoint x="-230" y="1748" as="targetPoint" />
          </mxGeometry>
        </mxCell>
        <mxCell id="avVdpwBqNhuO5_O_l7Rd-126" value="" style="endArrow=none;html=1;rounded=0;strokeWidth=4;entryX=1;entryY=0.5;entryDx=0;entryDy=0;strokeColor=#000000;exitX=0;exitY=0.75;exitDx=0;exitDy=0;" parent="1" source="avVdpwBqNhuO5_O_l7Rd-7" target="avVdpwBqNhuO5_O_l7Rd-46" edge="1">
          <mxGeometry width="50" height="50" relative="1" as="geometry">
            <mxPoint x="-17" y="1968" as="sourcePoint" />
            <mxPoint x="-75" y="1968" as="targetPoint" />
          </mxGeometry>
        </mxCell>
        <mxCell id="avVdpwBqNhuO5_O_l7Rd-66" value="" style="endArrow=none;html=1;rounded=0;strokeWidth=4;strokeColor=#0000FF;" parent="1" edge="1">
          <mxGeometry width="50" height="50" relative="1" as="geometry">
            <mxPoint x="-47" y="2067" as="sourcePoint" />
            <mxPoint x="13" y="2067" as="targetPoint" />
          </mxGeometry>
        </mxCell>
        <mxCell id="avVdpwBqNhuO5_O_l7Rd-67" value="" style="endArrow=none;html=1;rounded=0;strokeWidth=4;strokeColor=#0000FF;" parent="1" edge="1">
          <mxGeometry width="50" height="50" relative="1" as="geometry">
            <mxPoint x="-47" y="2089" as="sourcePoint" />
            <mxPoint x="13" y="2089" as="targetPoint" />
          </mxGeometry>
        </mxCell>
        <mxCell id="avVdpwBqNhuO5_O_l7Rd-52" value="" style="endArrow=classic;html=1;rounded=0;strokeWidth=4;strokeColor=#0000FF;" parent="1" edge="1">
          <mxGeometry width="50" height="50" relative="1" as="geometry">
            <mxPoint x="-155" y="1888" as="sourcePoint" />
            <mxPoint x="-135" y="1928" as="targetPoint" />
          </mxGeometry>
        </mxCell>
        <mxCell id="avVdpwBqNhuO5_O_l7Rd-53" value="" style="endArrow=classic;html=1;rounded=0;strokeWidth=4;strokeColor=#0000FF;" parent="1" edge="1">
          <mxGeometry width="50" height="50" relative="1" as="geometry">
            <mxPoint x="-115" y="1888" as="sourcePoint" />
            <mxPoint x="-95" y="1928" as="targetPoint" />
          </mxGeometry>
        </mxCell>
        <mxCell id="avVdpwBqNhuO5_O_l7Rd-251" value="" style="endArrow=none;html=1;rounded=0;strokeWidth=4;entryX=1;entryY=0.5;entryDx=0;entryDy=0;" parent="1" target="avVdpwBqNhuO5_O_l7Rd-30" edge="1">
          <mxGeometry width="50" height="50" relative="1" as="geometry">
            <mxPoint x="337" y="2279" as="sourcePoint" />
            <mxPoint x="190" y="2280" as="targetPoint" />
          </mxGeometry>
        </mxCell>
        <mxCell id="avVdpwBqNhuO5_O_l7Rd-253" value="&lt;font style=&quot;font-size: 50px;&quot;&gt;A1&lt;/font&gt;" style="triangle;whiteSpace=wrap;html=1;strokeWidth=6;" parent="1" vertex="1">
          <mxGeometry x="-1377" y="285" width="120" height="160" as="geometry" />
        </mxCell>
        <mxCell id="avVdpwBqNhuO5_O_l7Rd-254" value="" style="endArrow=none;html=1;rounded=0;exitX=0;exitY=0.25;exitDx=0;exitDy=0;strokeWidth=4;" parent="1" edge="1">
          <mxGeometry width="50" height="50" relative="1" as="geometry">
            <mxPoint x="-1379" y="325" as="sourcePoint" />
            <mxPoint x="-1670" y="325" as="targetPoint" />
          </mxGeometry>
        </mxCell>
        <mxCell id="avVdpwBqNhuO5_O_l7Rd-255" value="" style="endArrow=none;html=1;rounded=0;exitX=0;exitY=0.75;exitDx=0;exitDy=0;strokeWidth=4;" parent="1" source="avVdpwBqNhuO5_O_l7Rd-253" edge="1">
          <mxGeometry width="50" height="50" relative="1" as="geometry">
            <mxPoint x="-1357" y="405" as="sourcePoint" />
            <mxPoint x="-1572" y="405" as="targetPoint" />
          </mxGeometry>
        </mxCell>
        <mxCell id="avVdpwBqNhuO5_O_l7Rd-256" value="" style="endArrow=none;html=1;rounded=0;entryX=1;entryY=0.5;entryDx=0;entryDy=0;strokeWidth=4;" parent="1" target="avVdpwBqNhuO5_O_l7Rd-253" edge="1">
          <mxGeometry width="50" height="50" relative="1" as="geometry">
            <mxPoint x="-1197" y="365" as="sourcePoint" />
            <mxPoint x="-1397" y="425" as="targetPoint" />
          </mxGeometry>
        </mxCell>
        <mxCell id="avVdpwBqNhuO5_O_l7Rd-257" value="&lt;font style=&quot;font-size: 50px;&quot;&gt;+&lt;/font&gt;" style="text;html=1;align=center;verticalAlign=middle;resizable=0;points=[];autosize=1;strokeColor=none;fillColor=none;strokeWidth=4;" parent="1" vertex="1">
          <mxGeometry x="-1427" y="270" width="50" height="70" as="geometry" />
        </mxCell>
        <mxCell id="avVdpwBqNhuO5_O_l7Rd-258" value="&lt;font style=&quot;font-size: 50px;&quot;&gt;-&lt;/font&gt;" style="text;html=1;align=center;verticalAlign=middle;resizable=0;points=[];autosize=1;strokeColor=none;fillColor=none;strokeWidth=4;" parent="1" vertex="1">
          <mxGeometry x="-1422" y="390" width="40" height="70" as="geometry" />
        </mxCell>
        <mxCell id="avVdpwBqNhuO5_O_l7Rd-259" value="&lt;font style=&quot;font-size: 50px;&quot;&gt;A2&lt;/font&gt;" style="triangle;whiteSpace=wrap;html=1;strokeWidth=6;" parent="1" vertex="1">
          <mxGeometry x="-1377" y="605" width="120" height="160" as="geometry" />
        </mxCell>
        <mxCell id="avVdpwBqNhuO5_O_l7Rd-260" value="" style="endArrow=none;html=1;rounded=0;exitX=0;exitY=0.25;exitDx=0;exitDy=0;strokeWidth=4;" parent="1" source="avVdpwBqNhuO5_O_l7Rd-259" edge="1">
          <mxGeometry width="50" height="50" relative="1" as="geometry">
            <mxPoint x="-1337" y="725" as="sourcePoint" />
            <mxPoint x="-1477" y="645" as="targetPoint" />
          </mxGeometry>
        </mxCell>
        <mxCell id="avVdpwBqNhuO5_O_l7Rd-261" value="" style="endArrow=none;html=1;rounded=0;strokeWidth=4;entryX=0;entryY=0.5;entryDx=0;entryDy=0;strokeColor=#000000;exitX=0;exitY=0.5;exitDx=0;exitDy=0;" parent="1" source="avVdpwBqNhuO5_O_l7Rd-299" target="avVdpwBqNhuO5_O_l7Rd-300" edge="1">
          <mxGeometry width="50" height="50" relative="1" as="geometry">
            <mxPoint x="-1357" y="725" as="sourcePoint" />
            <mxPoint x="-1772" y="725" as="targetPoint" />
          </mxGeometry>
        </mxCell>
        <mxCell id="avVdpwBqNhuO5_O_l7Rd-262" value="" style="endArrow=none;html=1;rounded=0;entryX=1;entryY=0.5;entryDx=0;entryDy=0;strokeWidth=4;" parent="1" target="avVdpwBqNhuO5_O_l7Rd-259" edge="1">
          <mxGeometry width="50" height="50" relative="1" as="geometry">
            <mxPoint x="-1197" y="685" as="sourcePoint" />
            <mxPoint x="-1397" y="745" as="targetPoint" />
          </mxGeometry>
        </mxCell>
        <mxCell id="avVdpwBqNhuO5_O_l7Rd-263" value="" style="rounded=0;whiteSpace=wrap;html=1;direction=south;strokeWidth=6;" parent="1" vertex="1">
          <mxGeometry x="-1497" y="196" width="40" height="80" as="geometry" />
        </mxCell>
        <mxCell id="avVdpwBqNhuO5_O_l7Rd-264" value="" style="rounded=0;whiteSpace=wrap;html=1;direction=south;fontStyle=1;strokeWidth=6;" parent="1" vertex="1">
          <mxGeometry x="-1497" y="485" width="40" height="80" as="geometry" />
        </mxCell>
        <mxCell id="avVdpwBqNhuO5_O_l7Rd-265" value="" style="rounded=0;whiteSpace=wrap;html=1;direction=south;strokeWidth=6;" parent="1" vertex="1">
          <mxGeometry x="-1497" y="765" width="40" height="80" as="geometry" />
        </mxCell>
        <mxCell id="avVdpwBqNhuO5_O_l7Rd-266" value="" style="endArrow=none;html=1;rounded=0;entryX=1;entryY=0.5;entryDx=0;entryDy=0;exitX=0;exitY=0.5;exitDx=0;exitDy=0;strokeWidth=4;" parent="1" source="avVdpwBqNhuO5_O_l7Rd-264" target="avVdpwBqNhuO5_O_l7Rd-263" edge="1">
          <mxGeometry width="50" height="50" relative="1" as="geometry">
            <mxPoint x="-1317" y="425" as="sourcePoint" />
            <mxPoint x="-1217" y="325" as="targetPoint" />
          </mxGeometry>
        </mxCell>
        <mxCell id="avVdpwBqNhuO5_O_l7Rd-267" value="" style="endArrow=none;html=1;rounded=0;entryX=1;entryY=0.5;entryDx=0;entryDy=0;exitX=0;exitY=0.5;exitDx=0;exitDy=0;strokeWidth=4;" parent="1" source="avVdpwBqNhuO5_O_l7Rd-265" target="avVdpwBqNhuO5_O_l7Rd-264" edge="1">
          <mxGeometry width="50" height="50" relative="1" as="geometry">
            <mxPoint x="-1457" y="505" as="sourcePoint" />
            <mxPoint x="-1457" y="305" as="targetPoint" />
          </mxGeometry>
        </mxCell>
        <mxCell id="avVdpwBqNhuO5_O_l7Rd-268" value="" style="ellipse;whiteSpace=wrap;html=1;aspect=fixed;fillColor=#000000;strokeWidth=4;" parent="1" vertex="1">
          <mxGeometry x="-1487" y="395" width="20" height="20" as="geometry" />
        </mxCell>
        <mxCell id="avVdpwBqNhuO5_O_l7Rd-269" value="" style="ellipse;whiteSpace=wrap;html=1;aspect=fixed;fillColor=#000000;strokeWidth=4;" parent="1" vertex="1">
          <mxGeometry x="-1487" y="635" width="20" height="20" as="geometry" />
        </mxCell>
        <mxCell id="avVdpwBqNhuO5_O_l7Rd-270" value="&lt;font style=&quot;font-size: 50px;&quot;&gt;触&lt;br&gt;发&lt;br&gt;器&lt;/font&gt;" style="rounded=0;whiteSpace=wrap;html=1;direction=south;strokeWidth=6;" parent="1" vertex="1">
          <mxGeometry x="-1197" y="280" width="120" height="485" as="geometry" />
        </mxCell>
        <mxCell id="avVdpwBqNhuO5_O_l7Rd-271" value="&lt;font style=&quot;font-size: 50px;&quot;&gt;+&lt;/font&gt;" style="text;html=1;align=center;verticalAlign=middle;resizable=0;points=[];autosize=1;strokeColor=none;fillColor=none;strokeWidth=4;" parent="1" vertex="1">
          <mxGeometry x="-1427" y="585" width="50" height="70" as="geometry" />
        </mxCell>
        <mxCell id="avVdpwBqNhuO5_O_l7Rd-272" value="&lt;font style=&quot;font-size: 50px;&quot;&gt;-&lt;/font&gt;" style="text;html=1;align=center;verticalAlign=middle;resizable=0;points=[];autosize=1;strokeColor=none;fillColor=none;strokeWidth=4;" parent="1" vertex="1">
          <mxGeometry x="-1422" y="705" width="40" height="70" as="geometry" />
        </mxCell>
        <mxCell id="avVdpwBqNhuO5_O_l7Rd-273" value="" style="endArrow=none;html=1;rounded=0;entryX=0;entryY=0.5;entryDx=0;entryDy=0;strokeWidth=4;exitX=0.5;exitY=1;exitDx=0;exitDy=0;" parent="1" target="avVdpwBqNhuO5_O_l7Rd-270" edge="1" source="avVdpwBqNhuO5_O_l7Rd-317">
          <mxGeometry width="50" height="50" relative="1" as="geometry">
            <mxPoint x="-1137" y="165" as="sourcePoint" />
            <mxPoint x="-1257" y="425" as="targetPoint" />
          </mxGeometry>
        </mxCell>
        <mxCell id="avVdpwBqNhuO5_O_l7Rd-274" value="" style="endArrow=none;html=1;rounded=0;strokeWidth=4;entryX=0;entryY=0.5;entryDx=0;entryDy=0;" parent="1" target="avVdpwBqNhuO5_O_l7Rd-263" edge="1">
          <mxGeometry width="50" height="50" relative="1" as="geometry">
            <mxPoint x="-1477" y="77" as="sourcePoint" />
            <mxPoint x="-1430" y="170" as="targetPoint" />
          </mxGeometry>
        </mxCell>
        <mxCell id="avVdpwBqNhuO5_O_l7Rd-275" value="" style="endArrow=none;html=1;rounded=0;entryX=0.173;entryY=0.018;entryDx=0;entryDy=0;entryPerimeter=0;strokeWidth=4;exitX=1;exitY=0.5;exitDx=0;exitDy=0;" parent="1" source="avVdpwBqNhuO5_O_l7Rd-323" target="avVdpwBqNhuO5_O_l7Rd-270" edge="1">
          <mxGeometry width="50" height="50" relative="1" as="geometry">
            <mxPoint x="-997" y="364" as="sourcePoint" />
            <mxPoint x="-1117" y="425" as="targetPoint" />
          </mxGeometry>
        </mxCell>
        <mxCell id="avVdpwBqNhuO5_O_l7Rd-276" value="" style="endArrow=none;html=1;rounded=0;strokeWidth=4;entryX=0.832;entryY=0.011;entryDx=0;entryDy=0;entryPerimeter=0;" parent="1" target="avVdpwBqNhuO5_O_l7Rd-270" edge="1">
          <mxGeometry width="50" height="50" relative="1" as="geometry">
            <mxPoint x="-992" y="685" as="sourcePoint" />
            <mxPoint x="-1062" y="682" as="targetPoint" />
          </mxGeometry>
        </mxCell>
        <mxCell id="avVdpwBqNhuO5_O_l7Rd-277" value="" style="endArrow=none;html=1;rounded=0;strokeWidth=4;" parent="1" edge="1">
          <mxGeometry width="50" height="50" relative="1" as="geometry">
            <mxPoint x="-992" y="985" as="sourcePoint" />
            <mxPoint x="-992" y="685" as="targetPoint" />
          </mxGeometry>
        </mxCell>
        <mxCell id="avVdpwBqNhuO5_O_l7Rd-278" value="" style="endArrow=none;html=1;rounded=0;strokeWidth=4;entryX=1;entryY=0.5;entryDx=0;entryDy=0;" parent="1" target="avVdpwBqNhuO5_O_l7Rd-363" edge="1">
          <mxGeometry width="50" height="50" relative="1" as="geometry">
            <mxPoint x="-1277" y="986" as="sourcePoint" />
            <mxPoint x="-1152" y="986" as="targetPoint" />
          </mxGeometry>
        </mxCell>
        <mxCell id="avVdpwBqNhuO5_O_l7Rd-279" value="" style="endArrow=none;html=1;rounded=0;strokeWidth=4;" parent="1" edge="1">
          <mxGeometry width="50" height="50" relative="1" as="geometry">
            <mxPoint x="-1582.9996014268631" y="1045.9107178444028" as="sourcePoint" />
            <mxPoint x="-1671" y="1045" as="targetPoint" />
          </mxGeometry>
        </mxCell>
        <mxCell id="avVdpwBqNhuO5_O_l7Rd-280" value="" style="endArrow=none;html=1;rounded=0;entryX=1;entryY=0.5;entryDx=0;entryDy=0;strokeWidth=4;" parent="1" source="avVdpwBqNhuO5_O_l7Rd-282" target="avVdpwBqNhuO5_O_l7Rd-265" edge="1">
          <mxGeometry width="50" height="50" relative="1" as="geometry">
            <mxPoint x="-1477" y="1065" as="sourcePoint" />
            <mxPoint x="-1297" y="855" as="targetPoint" />
          </mxGeometry>
        </mxCell>
        <mxCell id="avVdpwBqNhuO5_O_l7Rd-281" value="" style="endArrow=none;html=1;rounded=0;entryX=1;entryY=0.5;entryDx=0;entryDy=0;strokeWidth=4;" parent="1" target="avVdpwBqNhuO5_O_l7Rd-282" edge="1">
          <mxGeometry width="50" height="50" relative="1" as="geometry">
            <mxPoint x="-1477" y="1046" as="sourcePoint" />
            <mxPoint x="-1477" y="826" as="targetPoint" />
          </mxGeometry>
        </mxCell>
        <mxCell id="avVdpwBqNhuO5_O_l7Rd-282" value="" style="ellipse;whiteSpace=wrap;html=1;aspect=fixed;fillColor=#000000;strokeWidth=4;" parent="1" vertex="1">
          <mxGeometry x="-1487" y="1036" width="20" height="20" as="geometry" />
        </mxCell>
        <mxCell id="avVdpwBqNhuO5_O_l7Rd-283" value="&lt;font style=&quot;font-size: 50px;&quot;&gt;6&lt;/font&gt;" style="text;html=1;align=center;verticalAlign=middle;resizable=0;points=[];autosize=1;strokeColor=default;fillColor=none;rounded=1;fontStyle=1;strokeWidth=4;dashed=1;opacity=50;shadow=1;glass=1;dashPattern=1 1;" parent="1" vertex="1">
          <mxGeometry x="-1732" y="280" width="50" height="70" as="geometry" />
        </mxCell>
        <mxCell id="avVdpwBqNhuO5_O_l7Rd-284" value="&lt;font style=&quot;font-size: 50px;&quot;&gt;&lt;b&gt;5&lt;/b&gt;&lt;/font&gt;" style="text;html=1;align=center;verticalAlign=middle;resizable=0;points=[];autosize=1;strokeColor=default;fillColor=none;strokeWidth=4;dashed=1;opacity=50;rounded=1;shadow=1;glass=1;dashPattern=1 1;" parent="1" vertex="1">
          <mxGeometry x="-1567" y="415" width="50" height="70" as="geometry" />
        </mxCell>
        <mxCell id="avVdpwBqNhuO5_O_l7Rd-286" value="&lt;font style=&quot;font-size: 50px;&quot;&gt;&lt;b&gt;2&lt;/b&gt;&lt;/font&gt;" style="text;html=1;align=center;verticalAlign=middle;resizable=0;points=[];autosize=1;strokeColor=default;fillColor=none;strokeWidth=4;dashed=1;opacity=50;rounded=1;shadow=1;glass=1;dashPattern=1 1;" parent="1" vertex="1">
          <mxGeometry x="-1729" y="635" width="50" height="70" as="geometry" />
        </mxCell>
        <mxCell id="avVdpwBqNhuO5_O_l7Rd-287" value="&lt;font style=&quot;font-size: 50px;&quot;&gt;&lt;b&gt;7&lt;/b&gt;&lt;/font&gt;" style="text;html=1;align=center;verticalAlign=middle;resizable=0;points=[];autosize=1;strokeColor=default;fillColor=none;strokeWidth=4;dashed=1;opacity=50;rounded=1;shadow=1;glass=1;dashPattern=1 1;" parent="1" vertex="1">
          <mxGeometry x="-1872" y="840" width="50" height="70" as="geometry" />
        </mxCell>
        <mxCell id="avVdpwBqNhuO5_O_l7Rd-288" value="&lt;font style=&quot;font-size: 50px;&quot;&gt;&lt;b&gt;1&lt;/b&gt;&lt;/font&gt;" style="text;html=1;align=center;verticalAlign=middle;resizable=0;points=[];autosize=1;strokeColor=default;fillColor=none;strokeWidth=4;dashed=1;opacity=50;rounded=1;shadow=1;glass=1;dashPattern=1 1;" parent="1" vertex="1">
          <mxGeometry x="-1382" y="965" width="50" height="70" as="geometry" />
        </mxCell>
        <mxCell id="avVdpwBqNhuO5_O_l7Rd-289" value="&lt;font style=&quot;font-size: 50px;&quot;&gt;R&lt;/font&gt;" style="text;html=1;align=center;verticalAlign=middle;resizable=0;points=[];autosize=1;strokeColor=none;fillColor=none;strokeWidth=4;" parent="1" vertex="1">
          <mxGeometry x="-1267" y="283" width="60" height="70" as="geometry" />
        </mxCell>
        <mxCell id="avVdpwBqNhuO5_O_l7Rd-290" value="&lt;span style=&quot;font-size: 50px;&quot;&gt;S&lt;/span&gt;" style="text;html=1;align=center;verticalAlign=middle;resizable=0;points=[];autosize=1;strokeColor=none;fillColor=none;strokeWidth=4;" parent="1" vertex="1">
          <mxGeometry x="-1267" y="610" width="60" height="70" as="geometry" />
        </mxCell>
        <mxCell id="avVdpwBqNhuO5_O_l7Rd-291" value="&lt;span style=&quot;font-size: 50px;&quot;&gt;Q&lt;/span&gt;" style="text;html=1;align=center;verticalAlign=middle;resizable=0;points=[];autosize=1;strokeColor=none;fillColor=none;strokeWidth=4;" parent="1" vertex="1">
          <mxGeometry x="-1067" y="285" width="60" height="70" as="geometry" />
        </mxCell>
        <mxCell id="avVdpwBqNhuO5_O_l7Rd-292" value="&lt;span style=&quot;font-size: 50px;&quot;&gt;T&lt;/span&gt;" style="text;html=1;align=center;verticalAlign=middle;resizable=0;points=[];autosize=1;strokeColor=none;fillColor=none;strokeWidth=4;" parent="1" vertex="1">
          <mxGeometry x="-1262" y="926" width="50" height="70" as="geometry" />
        </mxCell>
        <mxCell id="avVdpwBqNhuO5_O_l7Rd-293" value="&lt;font style=&quot;font-size: 50px;&quot;&gt;8&lt;/font&gt;" style="text;html=1;align=center;verticalAlign=middle;resizable=0;points=[];autosize=1;strokeColor=default;fillColor=none;rounded=1;fontStyle=1;strokeWidth=4;dashed=1;opacity=50;shadow=1;glass=1;dashPattern=1 1;" parent="1" vertex="1">
          <mxGeometry x="-1447" y="205" width="50" height="70" as="geometry" />
        </mxCell>
        <mxCell id="avVdpwBqNhuO5_O_l7Rd-294" value="&lt;font style=&quot;font-size: 50px;&quot;&gt;4&lt;/font&gt;" style="text;html=1;align=center;verticalAlign=middle;resizable=0;points=[];autosize=1;strokeColor=default;fillColor=none;rounded=1;fontStyle=1;strokeWidth=4;dashed=1;opacity=50;shadow=1;glass=1;dashPattern=1 1;" parent="1" vertex="1">
          <mxGeometry x="-1127" y="200" width="50" height="70" as="geometry" />
        </mxCell>
        <mxCell id="avVdpwBqNhuO5_O_l7Rd-295" value="&lt;font style=&quot;font-size: 50px;&quot;&gt;3&lt;/font&gt;" style="text;html=1;align=center;verticalAlign=middle;resizable=0;points=[];autosize=1;strokeColor=default;fillColor=none;rounded=1;fontStyle=1;strokeWidth=4;dashed=1;opacity=50;shadow=1;glass=1;dashPattern=1 1;" parent="1" vertex="1">
          <mxGeometry x="-1052" y="390" width="50" height="70" as="geometry" />
        </mxCell>
        <mxCell id="avVdpwBqNhuO5_O_l7Rd-296" value="" style="endArrow=none;html=1;rounded=0;strokeWidth=4;" parent="1" edge="1">
          <mxGeometry width="50" height="50" relative="1" as="geometry">
            <mxPoint x="-1669.031249848534" y="716.0000484691345" as="sourcePoint" />
            <mxPoint x="-1670" y="323.5" as="targetPoint" />
            <Array as="points">
              <mxPoint x="-1670" y="447" />
            </Array>
          </mxGeometry>
        </mxCell>
        <mxCell id="avVdpwBqNhuO5_O_l7Rd-297" value="" style="endArrow=none;html=1;rounded=0;strokeWidth=4;" parent="1" edge="1">
          <mxGeometry width="50" height="50" relative="1" as="geometry">
            <mxPoint x="-1573" y="975" as="sourcePoint" />
            <mxPoint x="-1572.71" y="405" as="targetPoint" />
          </mxGeometry>
        </mxCell>
        <mxCell id="avVdpwBqNhuO5_O_l7Rd-298" value="" style="endArrow=none;html=1;rounded=0;strokeWidth=4;" parent="1" edge="1">
          <mxGeometry width="50" height="50" relative="1" as="geometry">
            <mxPoint x="-1572" y="995" as="sourcePoint" />
            <mxPoint x="-1572" y="1045" as="targetPoint" />
          </mxGeometry>
        </mxCell>
        <mxCell id="avVdpwBqNhuO5_O_l7Rd-299" value="" style="ellipse;whiteSpace=wrap;html=1;aspect=fixed;fillColor=#000000;strokeWidth=4;" parent="1" vertex="1">
          <mxGeometry x="-1679" y="715" width="20" height="20" as="geometry" />
        </mxCell>
        <mxCell id="avVdpwBqNhuO5_O_l7Rd-300" value="" style="rounded=0;whiteSpace=wrap;html=1;direction=south;strokeWidth=6;rotation=90;strokeColor=#000000;" parent="1" vertex="1">
          <mxGeometry x="-1797" y="685" width="40" height="80" as="geometry" />
        </mxCell>
        <mxCell id="avVdpwBqNhuO5_O_l7Rd-301" value="" style="ellipse;whiteSpace=wrap;html=1;aspect=fixed;fillColor=#000000;strokeWidth=4;" parent="1" vertex="1">
          <mxGeometry x="-1902" y="715" width="20" height="20" as="geometry" />
        </mxCell>
        <mxCell id="avVdpwBqNhuO5_O_l7Rd-302" value="" style="endArrow=none;html=1;rounded=0;strokeWidth=4;entryX=1;entryY=0.5;entryDx=0;entryDy=0;" parent="1" source="avVdpwBqNhuO5_O_l7Rd-317" edge="1" target="l7dVyTNd6598wQJ9YdrN-1">
          <mxGeometry width="50" height="50" relative="1" as="geometry">
            <mxPoint x="-1892" y="77" as="sourcePoint" />
            <mxPoint x="-732" y="77" as="targetPoint" />
            <Array as="points">
              <mxPoint x="-732" y="78" />
            </Array>
          </mxGeometry>
        </mxCell>
        <mxCell id="avVdpwBqNhuO5_O_l7Rd-303" value="" style="rounded=0;whiteSpace=wrap;html=1;direction=south;strokeWidth=6;strokeColor=#000000;" parent="1" vertex="1">
          <mxGeometry x="-1912" y="505" width="40" height="80" as="geometry" />
        </mxCell>
        <mxCell id="avVdpwBqNhuO5_O_l7Rd-304" value="" style="endArrow=none;html=1;rounded=0;strokeWidth=4;entryX=0;entryY=0.5;entryDx=0;entryDy=0;strokeColor=#000000;exitX=0;exitY=0.5;exitDx=0;exitDy=0;" parent="1" edge="1" source="avVdpwBqNhuO5_O_l7Rd-315">
          <mxGeometry width="50" height="50" relative="1" as="geometry">
            <mxPoint x="-1892" y="78" as="sourcePoint" />
            <mxPoint x="-1892" y="503" as="targetPoint" />
            <Array as="points">
              <mxPoint x="-1892" y="77" />
            </Array>
          </mxGeometry>
        </mxCell>
        <mxCell id="avVdpwBqNhuO5_O_l7Rd-305" value="" style="endArrow=none;html=1;rounded=0;strokeWidth=4;strokeColor=#000000;" parent="1" edge="1">
          <mxGeometry width="50" height="50" relative="1" as="geometry">
            <mxPoint x="-1669.83" y="855" as="sourcePoint" />
            <mxPoint x="-1669" y="1045" as="targetPoint" />
          </mxGeometry>
        </mxCell>
        <mxCell id="avVdpwBqNhuO5_O_l7Rd-306" value="" style="endArrow=none;html=1;rounded=0;strokeWidth=4;entryX=0.5;entryY=1;entryDx=0;entryDy=0;strokeColor=#000000;" parent="1" target="avVdpwBqNhuO5_O_l7Rd-299" edge="1">
          <mxGeometry width="50" height="50" relative="1" as="geometry">
            <mxPoint x="-1669" y="835.5152994791665" as="sourcePoint" />
            <mxPoint x="-1662" y="747" as="targetPoint" />
          </mxGeometry>
        </mxCell>
        <mxCell id="avVdpwBqNhuO5_O_l7Rd-307" value="&lt;font style=&quot;font-size: 50px;&quot;&gt;R&lt;sub&gt;1&lt;/sub&gt;&lt;/font&gt;&lt;div&gt;&lt;font style=&quot;font-size: 50px;&quot;&gt;10kΩ&lt;/font&gt;&lt;/div&gt;" style="text;html=1;align=center;verticalAlign=middle;resizable=0;points=[];autosize=1;strokeColor=none;fillColor=none;strokeWidth=4;fontColor=#000000;" parent="1" vertex="1">
          <mxGeometry x="-2070" y="487.5" width="140" height="140" as="geometry" />
        </mxCell>
        <mxCell id="avVdpwBqNhuO5_O_l7Rd-308" value="&lt;font style=&quot;font-size: 50px;&quot;&gt;R&lt;sub&gt;G&lt;/sub&gt;&lt;/font&gt;" style="text;html=1;align=center;verticalAlign=middle;resizable=0;points=[];autosize=1;strokeColor=none;fillColor=none;strokeWidth=4;fontColor=#000000;" parent="1" vertex="1">
          <mxGeometry x="-1872" y="725" width="90" height="80" as="geometry" />
        </mxCell>
        <mxCell id="avVdpwBqNhuO5_O_l7Rd-309" value="&lt;font style=&quot;font-size: 50px;&quot;&gt;C&lt;sub&gt;1&lt;/sub&gt;&lt;/font&gt;&lt;div&gt;&lt;font style=&quot;font-size: 50px;&quot;&gt;103&lt;/font&gt;&lt;/div&gt;" style="text;html=1;align=center;verticalAlign=middle;resizable=0;points=[];autosize=1;strokeColor=none;fillColor=none;strokeWidth=4;fontColor=#000000;" parent="1" vertex="1">
          <mxGeometry x="-1798" y="797" width="110" height="140" as="geometry" />
        </mxCell>
        <mxCell id="avVdpwBqNhuO5_O_l7Rd-310" value="&lt;font style=&quot;font-size: 50px;&quot;&gt;C&lt;sub&gt;2&lt;/sub&gt;&lt;/font&gt;&lt;div&gt;&lt;font style=&quot;font-size: 50px;&quot;&gt;103&lt;/font&gt;&lt;/div&gt;" style="text;html=1;align=center;verticalAlign=middle;resizable=0;points=[];autosize=1;strokeColor=none;fillColor=none;strokeWidth=4;" parent="1" vertex="1">
          <mxGeometry x="-1688" y="975" width="110" height="140" as="geometry" />
        </mxCell>
        <mxCell id="avVdpwBqNhuO5_O_l7Rd-311" value="" style="group" parent="1" vertex="1" connectable="0">
          <mxGeometry x="-1602" y="975" width="60" height="21" as="geometry" />
        </mxCell>
        <mxCell id="avVdpwBqNhuO5_O_l7Rd-312" value="" style="endArrow=none;html=1;rounded=0;strokeWidth=4;" parent="avVdpwBqNhuO5_O_l7Rd-311" edge="1">
          <mxGeometry width="50" height="50" relative="1" as="geometry">
            <mxPoint as="sourcePoint" />
            <mxPoint x="60" as="targetPoint" />
          </mxGeometry>
        </mxCell>
        <mxCell id="avVdpwBqNhuO5_O_l7Rd-313" value="" style="endArrow=none;html=1;rounded=0;strokeWidth=4;" parent="avVdpwBqNhuO5_O_l7Rd-311" edge="1">
          <mxGeometry width="50" height="50" relative="1" as="geometry">
            <mxPoint y="21" as="sourcePoint" />
            <mxPoint x="60" y="21" as="targetPoint" />
          </mxGeometry>
        </mxCell>
        <mxCell id="avVdpwBqNhuO5_O_l7Rd-315" value="" style="ellipse;whiteSpace=wrap;html=1;aspect=fixed;fillColor=#000000;strokeWidth=4;" parent="1" vertex="1">
          <mxGeometry x="-1487" y="67" width="20" height="20" as="geometry" />
        </mxCell>
        <mxCell id="avVdpwBqNhuO5_O_l7Rd-316" value="" style="endArrow=none;html=1;rounded=0;strokeWidth=4;" parent="1" source="avVdpwBqNhuO5_O_l7Rd-315" target="avVdpwBqNhuO5_O_l7Rd-317" edge="1">
          <mxGeometry width="50" height="50" relative="1" as="geometry">
            <mxPoint x="-1467" y="77" as="sourcePoint" />
            <mxPoint x="-972" y="77" as="targetPoint" />
          </mxGeometry>
        </mxCell>
        <mxCell id="avVdpwBqNhuO5_O_l7Rd-317" value="" style="ellipse;whiteSpace=wrap;html=1;aspect=fixed;fillColor=#000000;strokeWidth=4;" parent="1" vertex="1">
          <mxGeometry x="-1147" y="67" width="20" height="20" as="geometry" />
        </mxCell>
        <mxCell id="avVdpwBqNhuO5_O_l7Rd-318" value="" style="endArrow=none;html=1;rounded=0;strokeWidth=4;" parent="1" source="avVdpwBqNhuO5_O_l7Rd-340" target="avVdpwBqNhuO5_O_l7Rd-319" edge="1">
          <mxGeometry width="50" height="50" relative="1" as="geometry">
            <mxPoint x="-732" y="1046" as="sourcePoint" />
            <mxPoint x="-1772" y="1045" as="targetPoint" />
          </mxGeometry>
        </mxCell>
        <mxCell id="avVdpwBqNhuO5_O_l7Rd-319" value="" style="ellipse;whiteSpace=wrap;html=1;aspect=fixed;fillColor=#000000;strokeWidth=4;" parent="1" vertex="1">
          <mxGeometry x="-1582" y="1036" width="20" height="20" as="geometry" />
        </mxCell>
        <mxCell id="avVdpwBqNhuO5_O_l7Rd-320" value="" style="group" parent="1" vertex="1" connectable="0">
          <mxGeometry x="-1062" y="595" width="60" height="70" as="geometry" />
        </mxCell>
        <mxCell id="avVdpwBqNhuO5_O_l7Rd-321" value="&lt;font style=&quot;font-size: 50px;&quot;&gt;Q&lt;/font&gt;" style="text;html=1;align=center;verticalAlign=middle;resizable=0;points=[];autosize=1;strokeColor=none;fillColor=none;strokeWidth=4;" parent="avVdpwBqNhuO5_O_l7Rd-320" vertex="1">
          <mxGeometry width="60" height="70" as="geometry" />
        </mxCell>
        <mxCell id="avVdpwBqNhuO5_O_l7Rd-322" value="" style="endArrow=none;html=1;rounded=0;strokeWidth=4;" parent="avVdpwBqNhuO5_O_l7Rd-320" edge="1">
          <mxGeometry width="50" height="50" relative="1" as="geometry">
            <mxPoint x="50" y="5" as="sourcePoint" />
            <mxPoint x="10" y="5" as="targetPoint" />
          </mxGeometry>
        </mxCell>
        <mxCell id="avVdpwBqNhuO5_O_l7Rd-323" value="" style="rounded=0;whiteSpace=wrap;html=1;direction=west;strokeWidth=6;" parent="1" vertex="1">
          <mxGeometry x="-952" y="345" width="80" height="40" as="geometry" />
        </mxCell>
        <mxCell id="avVdpwBqNhuO5_O_l7Rd-324" value="" style="endArrow=none;html=1;rounded=0;entryX=0.173;entryY=0.018;entryDx=0;entryDy=0;entryPerimeter=0;strokeWidth=4;" parent="1" edge="1">
          <mxGeometry width="50" height="50" relative="1" as="geometry">
            <mxPoint x="-772" y="364" as="sourcePoint" />
            <mxPoint x="-872" y="364" as="targetPoint" />
          </mxGeometry>
        </mxCell>
        <mxCell id="avVdpwBqNhuO5_O_l7Rd-325" value="" style="endArrow=none;html=1;rounded=0;strokeWidth=4;entryX=0.5;entryY=1;entryDx=0;entryDy=0;strokeColor=#000000;" parent="1" target="avVdpwBqNhuO5_O_l7Rd-301" edge="1">
          <mxGeometry width="50" height="50" relative="1" as="geometry">
            <mxPoint x="-1316" y="926" as="sourcePoint" />
            <mxPoint x="-1942" y="795" as="targetPoint" />
            <Array as="points">
              <mxPoint x="-1892" y="926" />
            </Array>
          </mxGeometry>
        </mxCell>
        <mxCell id="avVdpwBqNhuO5_O_l7Rd-326" value="" style="endArrow=none;html=1;rounded=0;strokeWidth=4;" parent="1" edge="1">
          <mxGeometry width="50" height="50" relative="1" as="geometry">
            <mxPoint x="-732" y="325" as="sourcePoint" />
            <mxPoint x="-732" y="285" as="targetPoint" />
          </mxGeometry>
        </mxCell>
        <mxCell id="avVdpwBqNhuO5_O_l7Rd-327" value="" style="endArrow=none;html=1;rounded=0;strokeWidth=4;" parent="1" edge="1">
          <mxGeometry width="50" height="50" relative="1" as="geometry">
            <mxPoint x="-732" y="405" as="sourcePoint" />
            <mxPoint x="-732" y="1045" as="targetPoint" />
          </mxGeometry>
        </mxCell>
        <mxCell id="avVdpwBqNhuO5_O_l7Rd-328" value="" style="group" parent="1" vertex="1" connectable="0">
          <mxGeometry x="-772" y="325" width="40" height="80" as="geometry" />
        </mxCell>
        <mxCell id="avVdpwBqNhuO5_O_l7Rd-329" value="" style="endArrow=none;html=1;rounded=0;strokeWidth=6;" parent="avVdpwBqNhuO5_O_l7Rd-328" edge="1">
          <mxGeometry width="50" height="50" relative="1" as="geometry">
            <mxPoint y="80" as="sourcePoint" />
            <mxPoint as="targetPoint" />
          </mxGeometry>
        </mxCell>
        <mxCell id="avVdpwBqNhuO5_O_l7Rd-330" value="" style="endArrow=none;html=1;rounded=0;strokeWidth=4;" parent="avVdpwBqNhuO5_O_l7Rd-328" edge="1">
          <mxGeometry width="50" height="50" relative="1" as="geometry">
            <mxPoint y="20" as="sourcePoint" />
            <mxPoint x="40" as="targetPoint" />
          </mxGeometry>
        </mxCell>
        <mxCell id="avVdpwBqNhuO5_O_l7Rd-331" value="" style="endArrow=classic;html=1;rounded=0;strokeWidth=4;" parent="avVdpwBqNhuO5_O_l7Rd-328" edge="1">
          <mxGeometry width="50" height="50" relative="1" as="geometry">
            <mxPoint y="60" as="sourcePoint" />
            <mxPoint x="40" y="80" as="targetPoint" />
          </mxGeometry>
        </mxCell>
        <mxCell id="avVdpwBqNhuO5_O_l7Rd-332" value="" style="endArrow=none;html=1;rounded=0;strokeWidth=4;entryX=0;entryY=0.5;entryDx=0;entryDy=0;" parent="1" edge="1" target="l7dVyTNd6598wQJ9YdrN-1">
          <mxGeometry width="50" height="50" relative="1" as="geometry">
            <mxPoint x="-732" y="245" as="sourcePoint" />
            <mxPoint x="-732" y="165" as="targetPoint" />
          </mxGeometry>
        </mxCell>
        <mxCell id="avVdpwBqNhuO5_O_l7Rd-333" value="" style="endArrow=none;html=1;rounded=0;strokeWidth=4;" parent="1" edge="1">
          <mxGeometry width="50" height="50" relative="1" as="geometry">
            <mxPoint x="-1317" y="946" as="sourcePoint" />
            <mxPoint x="-1317" y="926" as="targetPoint" />
          </mxGeometry>
        </mxCell>
        <mxCell id="avVdpwBqNhuO5_O_l7Rd-334" value="" style="endArrow=none;html=1;rounded=0;strokeWidth=4;" parent="1" edge="1">
          <mxGeometry width="50" height="50" relative="1" as="geometry">
            <mxPoint x="-1317" y="1026" as="sourcePoint" />
            <mxPoint x="-1317" y="1046" as="targetPoint" />
          </mxGeometry>
        </mxCell>
        <mxCell id="avVdpwBqNhuO5_O_l7Rd-335" value="" style="group" parent="1" vertex="1" connectable="0">
          <mxGeometry x="-1317" y="946" width="40" height="80" as="geometry" />
        </mxCell>
        <mxCell id="avVdpwBqNhuO5_O_l7Rd-336" value="" style="endArrow=none;html=1;rounded=0;strokeWidth=6;" parent="avVdpwBqNhuO5_O_l7Rd-335" edge="1">
          <mxGeometry width="50" height="50" relative="1" as="geometry">
            <mxPoint x="40" y="80" as="sourcePoint" />
            <mxPoint x="40" as="targetPoint" />
          </mxGeometry>
        </mxCell>
        <mxCell id="avVdpwBqNhuO5_O_l7Rd-337" value="" style="endArrow=none;html=1;rounded=0;strokeWidth=4;" parent="avVdpwBqNhuO5_O_l7Rd-335" edge="1">
          <mxGeometry width="50" height="50" relative="1" as="geometry">
            <mxPoint x="40" y="20" as="sourcePoint" />
            <mxPoint as="targetPoint" />
          </mxGeometry>
        </mxCell>
        <mxCell id="avVdpwBqNhuO5_O_l7Rd-338" value="" style="endArrow=classic;html=1;rounded=0;strokeWidth=4;" parent="avVdpwBqNhuO5_O_l7Rd-335" edge="1">
          <mxGeometry width="50" height="50" relative="1" as="geometry">
            <mxPoint x="40" y="60" as="sourcePoint" />
            <mxPoint y="80" as="targetPoint" />
          </mxGeometry>
        </mxCell>
        <mxCell id="avVdpwBqNhuO5_O_l7Rd-339" value="" style="endArrow=none;html=1;rounded=0;strokeWidth=4;" parent="1" target="avVdpwBqNhuO5_O_l7Rd-340" edge="1">
          <mxGeometry width="50" height="50" relative="1" as="geometry">
            <mxPoint x="-732" y="1046" as="sourcePoint" />
            <mxPoint x="-1562" y="1046" as="targetPoint" />
          </mxGeometry>
        </mxCell>
        <mxCell id="avVdpwBqNhuO5_O_l7Rd-340" value="" style="ellipse;whiteSpace=wrap;html=1;aspect=fixed;fillColor=#000000;strokeWidth=4;" parent="1" vertex="1">
          <mxGeometry x="-1327" y="1036" width="20" height="20" as="geometry" />
        </mxCell>
        <mxCell id="avVdpwBqNhuO5_O_l7Rd-341" value="" style="group" parent="1" vertex="1" connectable="0">
          <mxGeometry x="-732" y="205" width="80" height="120" as="geometry" />
        </mxCell>
        <mxCell id="avVdpwBqNhuO5_O_l7Rd-342" value="" style="endArrow=none;html=1;rounded=0;strokeWidth=4;" parent="avVdpwBqNhuO5_O_l7Rd-341" edge="1">
          <mxGeometry width="50" height="50" relative="1" as="geometry">
            <mxPoint x="30" y="40" as="sourcePoint" />
            <mxPoint y="40" as="targetPoint" />
          </mxGeometry>
        </mxCell>
        <mxCell id="avVdpwBqNhuO5_O_l7Rd-343" value="" style="endArrow=none;html=1;rounded=0;strokeWidth=4;" parent="avVdpwBqNhuO5_O_l7Rd-341" edge="1">
          <mxGeometry width="50" height="50" relative="1" as="geometry">
            <mxPoint x="30" y="80" as="sourcePoint" />
            <mxPoint y="80" as="targetPoint" />
          </mxGeometry>
        </mxCell>
        <mxCell id="avVdpwBqNhuO5_O_l7Rd-344" value="" style="endArrow=none;html=1;rounded=0;strokeWidth=4;" parent="avVdpwBqNhuO5_O_l7Rd-341" edge="1">
          <mxGeometry width="50" height="50" relative="1" as="geometry">
            <mxPoint x="30" y="90" as="sourcePoint" />
            <mxPoint x="30" y="30" as="targetPoint" />
          </mxGeometry>
        </mxCell>
        <mxCell id="avVdpwBqNhuO5_O_l7Rd-345" value="" style="endArrow=none;html=1;rounded=0;strokeWidth=4;" parent="avVdpwBqNhuO5_O_l7Rd-341" edge="1">
          <mxGeometry width="50" height="50" relative="1" as="geometry">
            <mxPoint x="50" y="90" as="sourcePoint" />
            <mxPoint x="50" y="30" as="targetPoint" />
          </mxGeometry>
        </mxCell>
        <mxCell id="avVdpwBqNhuO5_O_l7Rd-346" value="" style="endArrow=none;html=1;rounded=0;strokeWidth=4;" parent="avVdpwBqNhuO5_O_l7Rd-341" edge="1">
          <mxGeometry width="50" height="50" relative="1" as="geometry">
            <mxPoint x="50" y="30" as="sourcePoint" />
            <mxPoint x="30" y="30" as="targetPoint" />
          </mxGeometry>
        </mxCell>
        <mxCell id="avVdpwBqNhuO5_O_l7Rd-347" value="" style="endArrow=none;html=1;rounded=0;strokeWidth=4;" parent="avVdpwBqNhuO5_O_l7Rd-341" edge="1">
          <mxGeometry width="50" height="50" relative="1" as="geometry">
            <mxPoint x="50" y="90" as="sourcePoint" />
            <mxPoint x="30" y="90" as="targetPoint" />
          </mxGeometry>
        </mxCell>
        <mxCell id="avVdpwBqNhuO5_O_l7Rd-348" value="" style="endArrow=none;html=1;rounded=0;strokeWidth=4;" parent="avVdpwBqNhuO5_O_l7Rd-341" edge="1">
          <mxGeometry width="50" height="50" relative="1" as="geometry">
            <mxPoint x="80" as="sourcePoint" />
            <mxPoint x="50" y="30" as="targetPoint" />
          </mxGeometry>
        </mxCell>
        <mxCell id="avVdpwBqNhuO5_O_l7Rd-349" value="" style="endArrow=none;html=1;rounded=0;strokeWidth=4;" parent="avVdpwBqNhuO5_O_l7Rd-341" edge="1">
          <mxGeometry width="50" height="50" relative="1" as="geometry">
            <mxPoint x="80" y="120" as="sourcePoint" />
            <mxPoint x="50" y="90" as="targetPoint" />
          </mxGeometry>
        </mxCell>
        <mxCell id="avVdpwBqNhuO5_O_l7Rd-350" value="" style="endArrow=none;html=1;rounded=0;strokeWidth=4;" parent="avVdpwBqNhuO5_O_l7Rd-341" edge="1">
          <mxGeometry width="50" height="50" relative="1" as="geometry">
            <mxPoint x="80" y="120" as="sourcePoint" />
            <mxPoint x="80" as="targetPoint" />
          </mxGeometry>
        </mxCell>
        <mxCell id="avVdpwBqNhuO5_O_l7Rd-351" value="" style="group" parent="1" vertex="1" connectable="0">
          <mxGeometry x="-1507" y="1056" width="60" height="30" as="geometry" />
        </mxCell>
        <mxCell id="avVdpwBqNhuO5_O_l7Rd-352" value="" style="endArrow=none;html=1;rounded=0;strokeWidth=4;entryX=0.5;entryY=1;entryDx=0;entryDy=0;" parent="avVdpwBqNhuO5_O_l7Rd-351" edge="1">
          <mxGeometry width="50" height="50" relative="1" as="geometry">
            <mxPoint x="30" y="29" as="sourcePoint" />
            <mxPoint x="30" as="targetPoint" />
          </mxGeometry>
        </mxCell>
        <mxCell id="avVdpwBqNhuO5_O_l7Rd-353" value="" style="endArrow=none;html=1;rounded=0;strokeWidth=4;" parent="avVdpwBqNhuO5_O_l7Rd-351" edge="1">
          <mxGeometry width="50" height="50" relative="1" as="geometry">
            <mxPoint y="30" as="sourcePoint" />
            <mxPoint x="60" y="30" as="targetPoint" />
          </mxGeometry>
        </mxCell>
        <mxCell id="avVdpwBqNhuO5_O_l7Rd-354" value="" style="group;flipV=1;" parent="1" vertex="1" connectable="0">
          <mxGeometry x="-1507" y="37" width="60" height="30" as="geometry" />
        </mxCell>
        <mxCell id="avVdpwBqNhuO5_O_l7Rd-355" value="" style="endArrow=none;html=1;rounded=0;strokeWidth=4;entryX=0.5;entryY=1;entryDx=0;entryDy=0;" parent="avVdpwBqNhuO5_O_l7Rd-354" edge="1">
          <mxGeometry width="50" height="50" relative="1" as="geometry">
            <mxPoint x="30" y="1" as="sourcePoint" />
            <mxPoint x="30" y="30" as="targetPoint" />
          </mxGeometry>
        </mxCell>
        <mxCell id="avVdpwBqNhuO5_O_l7Rd-356" value="" style="endArrow=none;html=1;rounded=0;strokeWidth=4;" parent="avVdpwBqNhuO5_O_l7Rd-354" edge="1">
          <mxGeometry width="50" height="50" relative="1" as="geometry">
            <mxPoint as="sourcePoint" />
            <mxPoint x="60" as="targetPoint" />
          </mxGeometry>
        </mxCell>
        <mxCell id="avVdpwBqNhuO5_O_l7Rd-357" value="&lt;font style=&quot;font-size: 50px;&quot;&gt;R&lt;sub&gt;2&lt;/sub&gt;&lt;/font&gt;&lt;div&gt;&lt;font style=&quot;font-size: 50px;&quot;&gt;100Ω&lt;/font&gt;&lt;/div&gt;" style="text;html=1;align=center;verticalAlign=middle;resizable=0;points=[];autosize=1;strokeColor=none;fillColor=none;strokeWidth=4;" parent="1" vertex="1">
          <mxGeometry x="-963" y="395" width="140" height="140" as="geometry" />
        </mxCell>
        <mxCell id="avVdpwBqNhuO5_O_l7Rd-358" value="&lt;font style=&quot;font-size: 50px;&quot;&gt;BP&lt;/font&gt;" style="text;html=1;align=center;verticalAlign=middle;resizable=0;points=[];autosize=1;strokeColor=none;fillColor=none;strokeWidth=4;" parent="1" vertex="1">
          <mxGeometry x="-652" y="235" width="90" height="70" as="geometry" />
        </mxCell>
        <mxCell id="avVdpwBqNhuO5_O_l7Rd-359" value="&lt;font style=&quot;font-size: 50px;&quot;&gt;+6V&lt;/font&gt;" style="text;html=1;align=center;verticalAlign=middle;resizable=0;points=[];autosize=1;strokeColor=none;fillColor=none;strokeWidth=4;" parent="1" vertex="1">
          <mxGeometry x="-1532" y="-33" width="110" height="70" as="geometry" />
        </mxCell>
        <mxCell id="avVdpwBqNhuO5_O_l7Rd-360" value="" style="endArrow=none;html=1;rounded=0;strokeWidth=4;" parent="1" edge="1">
          <mxGeometry width="50" height="50" relative="1" as="geometry">
            <mxPoint x="-1452" y="1095" as="sourcePoint" />
            <mxPoint x="-1502" y="1095" as="targetPoint" />
          </mxGeometry>
        </mxCell>
        <mxCell id="avVdpwBqNhuO5_O_l7Rd-361" value="" style="endArrow=none;html=1;rounded=0;strokeWidth=4;" parent="1" edge="1">
          <mxGeometry width="50" height="50" relative="1" as="geometry">
            <mxPoint x="-1462" y="1105" as="sourcePoint" />
            <mxPoint x="-1492" y="1105" as="targetPoint" />
          </mxGeometry>
        </mxCell>
        <mxCell id="avVdpwBqNhuO5_O_l7Rd-362" value="&lt;font style=&quot;font-size: 50px;&quot;&gt;GND&lt;/font&gt;" style="text;html=1;align=center;verticalAlign=middle;resizable=0;points=[];autosize=1;strokeColor=none;fillColor=none;strokeWidth=4;" parent="1" vertex="1">
          <mxGeometry x="-1457" y="1086" width="130" height="70" as="geometry" />
        </mxCell>
        <mxCell id="avVdpwBqNhuO5_O_l7Rd-363" value="" style="rounded=0;whiteSpace=wrap;html=1;direction=west;strokeWidth=6;" parent="1" vertex="1">
          <mxGeometry x="-1172" y="965" width="80" height="40" as="geometry" />
        </mxCell>
        <mxCell id="avVdpwBqNhuO5_O_l7Rd-364" value="" style="endArrow=none;html=1;rounded=0;strokeWidth=4;exitX=0;exitY=0.5;exitDx=0;exitDy=0;" parent="1" source="avVdpwBqNhuO5_O_l7Rd-363" edge="1">
          <mxGeometry width="50" height="50" relative="1" as="geometry">
            <mxPoint x="-1267" y="996" as="sourcePoint" />
            <mxPoint x="-992" y="985" as="targetPoint" />
          </mxGeometry>
        </mxCell>
        <mxCell id="avVdpwBqNhuO5_O_l7Rd-365" value="&lt;font style=&quot;font-size: 50px;&quot;&gt;R&lt;sub&gt;p&lt;/sub&gt;&lt;/font&gt;" style="text;html=1;align=center;verticalAlign=middle;resizable=0;points=[];autosize=1;strokeColor=none;fillColor=none;strokeWidth=4;" parent="1" vertex="1">
          <mxGeometry x="-1170" y="885" width="77" height="81" as="geometry" />
        </mxCell>
        <mxCell id="avVdpwBqNhuO5_O_l7Rd-366" value="" style="endArrow=none;html=1;rounded=0;strokeWidth=4;entryX=1;entryY=0.5;entryDx=0;entryDy=0;exitX=1;exitY=0.5;exitDx=0;exitDy=0;strokeColor=#000000;" parent="1" source="avVdpwBqNhuO5_O_l7Rd-300" target="avVdpwBqNhuO5_O_l7Rd-301" edge="1">
          <mxGeometry width="50" height="50" relative="1" as="geometry">
            <mxPoint x="-1832" y="723" as="sourcePoint" />
            <mxPoint x="-1727" y="735" as="targetPoint" />
          </mxGeometry>
        </mxCell>
        <mxCell id="avVdpwBqNhuO5_O_l7Rd-367" value="&lt;font style=&quot;font-size: 50px;&quot;&gt;R&lt;sub&gt;t&lt;/sub&gt;&lt;/font&gt;" style="text;html=1;align=center;verticalAlign=middle;resizable=0;points=[];autosize=1;strokeColor=none;fillColor=none;strokeWidth=4;fontColor=#000000;" parent="1" vertex="1">
          <mxGeometry x="-1565" y="202.5" width="70" height="80" as="geometry" />
        </mxCell>
        <mxCell id="avVdpwBqNhuO5_O_l7Rd-368" value="&lt;font style=&quot;font-size: 50px;&quot;&gt;R&lt;sub&gt;t&lt;/sub&gt;&lt;/font&gt;" style="text;html=1;align=center;verticalAlign=middle;resizable=0;points=[];autosize=1;strokeColor=none;fillColor=none;strokeWidth=4;fontColor=#000000;" parent="1" vertex="1">
          <mxGeometry x="-1565" y="767.5" width="70" height="80" as="geometry" />
        </mxCell>
        <mxCell id="avVdpwBqNhuO5_O_l7Rd-369" value="&lt;font style=&quot;font-size: 50px;&quot;&gt;R&lt;sub&gt;t&lt;/sub&gt;&lt;/font&gt;" style="text;html=1;align=center;verticalAlign=middle;resizable=0;points=[];autosize=1;strokeColor=none;fillColor=none;strokeWidth=4;fontColor=#000000;" parent="1" vertex="1">
          <mxGeometry x="-1565" y="487.5" width="70" height="80" as="geometry" />
        </mxCell>
        <mxCell id="avVdpwBqNhuO5_O_l7Rd-370" value="" style="endArrow=none;html=1;rounded=0;strokeWidth=4;entryX=0.5;entryY=0;entryDx=0;entryDy=0;strokeColor=#000000;exitX=1;exitY=0.5;exitDx=0;exitDy=0;" parent="1" source="avVdpwBqNhuO5_O_l7Rd-303" target="avVdpwBqNhuO5_O_l7Rd-301" edge="1">
          <mxGeometry width="50" height="50" relative="1" as="geometry">
            <mxPoint x="-1862" y="617" as="sourcePoint" />
            <mxPoint x="-1882" y="515" as="targetPoint" />
          </mxGeometry>
        </mxCell>
        <mxCell id="avVdpwBqNhuO5_O_l7Rd-371" value="" style="endArrow=none;html=1;rounded=0;strokeWidth=4;entryX=1;entryY=0.5;entryDx=0;entryDy=0;strokeColor=#000000;exitX=0;exitY=0.75;exitDx=0;exitDy=0;" parent="1" source="avVdpwBqNhuO5_O_l7Rd-259" target="avVdpwBqNhuO5_O_l7Rd-299" edge="1">
          <mxGeometry width="50" height="50" relative="1" as="geometry">
            <mxPoint x="-1669" y="735" as="sourcePoint" />
            <mxPoint x="-1727" y="735" as="targetPoint" />
          </mxGeometry>
        </mxCell>
        <mxCell id="avVdpwBqNhuO5_O_l7Rd-372" value="" style="endArrow=none;html=1;rounded=0;strokeWidth=4;strokeColor=#000000;" parent="1" edge="1">
          <mxGeometry width="50" height="50" relative="1" as="geometry">
            <mxPoint x="-1699" y="834" as="sourcePoint" />
            <mxPoint x="-1639" y="834" as="targetPoint" />
          </mxGeometry>
        </mxCell>
        <mxCell id="avVdpwBqNhuO5_O_l7Rd-373" value="" style="endArrow=none;html=1;rounded=0;strokeWidth=4;strokeColor=#000000;" parent="1" edge="1">
          <mxGeometry width="50" height="50" relative="1" as="geometry">
            <mxPoint x="-1699" y="856" as="sourcePoint" />
            <mxPoint x="-1639" y="856" as="targetPoint" />
          </mxGeometry>
        </mxCell>
        <mxCell id="avVdpwBqNhuO5_O_l7Rd-374" value="" style="endArrow=classic;html=1;rounded=0;strokeWidth=4;strokeColor=#000000;" parent="1" edge="1">
          <mxGeometry width="50" height="50" relative="1" as="geometry">
            <mxPoint x="-1807" y="655" as="sourcePoint" />
            <mxPoint x="-1787" y="695" as="targetPoint" />
          </mxGeometry>
        </mxCell>
        <mxCell id="avVdpwBqNhuO5_O_l7Rd-375" value="" style="endArrow=classic;html=1;rounded=0;strokeWidth=4;strokeColor=#000000;" parent="1" edge="1">
          <mxGeometry width="50" height="50" relative="1" as="geometry">
            <mxPoint x="-1767" y="655" as="sourcePoint" />
            <mxPoint x="-1747" y="695" as="targetPoint" />
          </mxGeometry>
        </mxCell>
        <mxCell id="avVdpwBqNhuO5_O_l7Rd-376" value="&lt;span style=&quot;font-size: 50px;&quot;&gt;T&lt;sub&gt;1&lt;/sub&gt;&lt;/span&gt;&lt;div&gt;&lt;span style=&quot;font-size: 50px;&quot;&gt;9013&lt;/span&gt;&lt;/div&gt;" style="text;html=1;align=center;verticalAlign=middle;resizable=0;points=[];autosize=1;strokeColor=none;fillColor=none;strokeWidth=4;" parent="1" vertex="1">
          <mxGeometry x="-732" y="335" width="130" height="140" as="geometry" />
        </mxCell>
        <mxCell id="l7dVyTNd6598wQJ9YdrN-1" value="" style="rounded=0;whiteSpace=wrap;html=1;direction=west;strokeWidth=6;rotation=90;" vertex="1" parent="1">
          <mxGeometry x="-772" y="140" width="80" height="40" as="geometry" />
        </mxCell>
        <mxCell id="l7dVyTNd6598wQJ9YdrN-4" value="&lt;font style=&quot;font-size: 50px;&quot;&gt;R&lt;sub&gt;3&lt;/sub&gt;&lt;/font&gt;&lt;div&gt;&lt;font style=&quot;font-size: 50px;&quot;&gt;100Ω&lt;/font&gt;&lt;/div&gt;" style="text;html=1;align=center;verticalAlign=middle;resizable=0;points=[];autosize=1;strokeColor=none;fillColor=none;strokeWidth=4;" vertex="1" parent="1">
          <mxGeometry x="-900" y="95" width="140" height="140" as="geometry" />
        </mxCell>
        <mxCell id="l7dVyTNd6598wQJ9YdrN-129" value="&lt;font style=&quot;font-size: 50px;&quot;&gt;A1&lt;/font&gt;" style="triangle;whiteSpace=wrap;html=1;strokeWidth=6;" vertex="1" parent="1">
          <mxGeometry x="-1388" y="1647" width="120" height="160" as="geometry" />
        </mxCell>
        <mxCell id="l7dVyTNd6598wQJ9YdrN-130" value="" style="endArrow=none;html=1;rounded=0;exitX=0;exitY=0.25;exitDx=0;exitDy=0;strokeWidth=4;" edge="1" parent="1">
          <mxGeometry width="50" height="50" relative="1" as="geometry">
            <mxPoint x="-1390" y="1687" as="sourcePoint" />
            <mxPoint x="-1681" y="1687" as="targetPoint" />
          </mxGeometry>
        </mxCell>
        <mxCell id="l7dVyTNd6598wQJ9YdrN-131" value="" style="endArrow=none;html=1;rounded=0;exitX=0;exitY=0.75;exitDx=0;exitDy=0;strokeWidth=4;" edge="1" parent="1" source="l7dVyTNd6598wQJ9YdrN-129">
          <mxGeometry width="50" height="50" relative="1" as="geometry">
            <mxPoint x="-1368" y="1767" as="sourcePoint" />
            <mxPoint x="-1583" y="1767" as="targetPoint" />
          </mxGeometry>
        </mxCell>
        <mxCell id="l7dVyTNd6598wQJ9YdrN-132" value="" style="endArrow=none;html=1;rounded=0;entryX=1;entryY=0.5;entryDx=0;entryDy=0;strokeWidth=4;" edge="1" parent="1" target="l7dVyTNd6598wQJ9YdrN-129">
          <mxGeometry width="50" height="50" relative="1" as="geometry">
            <mxPoint x="-1208" y="1727" as="sourcePoint" />
            <mxPoint x="-1408" y="1787" as="targetPoint" />
          </mxGeometry>
        </mxCell>
        <mxCell id="l7dVyTNd6598wQJ9YdrN-133" value="&lt;font style=&quot;font-size: 50px;&quot;&gt;+&lt;/font&gt;" style="text;html=1;align=center;verticalAlign=middle;resizable=0;points=[];autosize=1;strokeColor=none;fillColor=none;strokeWidth=4;" vertex="1" parent="1">
          <mxGeometry x="-1438" y="1632" width="50" height="70" as="geometry" />
        </mxCell>
        <mxCell id="l7dVyTNd6598wQJ9YdrN-134" value="&lt;font style=&quot;font-size: 50px;&quot;&gt;-&lt;/font&gt;" style="text;html=1;align=center;verticalAlign=middle;resizable=0;points=[];autosize=1;strokeColor=none;fillColor=none;strokeWidth=4;" vertex="1" parent="1">
          <mxGeometry x="-1433" y="1752" width="40" height="70" as="geometry" />
        </mxCell>
        <mxCell id="l7dVyTNd6598wQJ9YdrN-135" value="&lt;font style=&quot;font-size: 50px;&quot;&gt;A2&lt;/font&gt;" style="triangle;whiteSpace=wrap;html=1;strokeWidth=6;" vertex="1" parent="1">
          <mxGeometry x="-1388" y="1967" width="120" height="160" as="geometry" />
        </mxCell>
        <mxCell id="l7dVyTNd6598wQJ9YdrN-136" value="" style="endArrow=none;html=1;rounded=0;exitX=0;exitY=0.25;exitDx=0;exitDy=0;strokeWidth=4;" edge="1" parent="1" source="l7dVyTNd6598wQJ9YdrN-135">
          <mxGeometry width="50" height="50" relative="1" as="geometry">
            <mxPoint x="-1348" y="2087" as="sourcePoint" />
            <mxPoint x="-1488" y="2007" as="targetPoint" />
          </mxGeometry>
        </mxCell>
        <mxCell id="l7dVyTNd6598wQJ9YdrN-137" value="" style="endArrow=none;html=1;rounded=0;strokeWidth=4;entryX=0;entryY=0.5;entryDx=0;entryDy=0;strokeColor=#000000;exitX=0;exitY=0.5;exitDx=0;exitDy=0;" edge="1" parent="1" source="l7dVyTNd6598wQJ9YdrN-174" target="l7dVyTNd6598wQJ9YdrN-175">
          <mxGeometry width="50" height="50" relative="1" as="geometry">
            <mxPoint x="-1368" y="2087" as="sourcePoint" />
            <mxPoint x="-1783" y="2087" as="targetPoint" />
          </mxGeometry>
        </mxCell>
        <mxCell id="l7dVyTNd6598wQJ9YdrN-138" value="" style="endArrow=none;html=1;rounded=0;entryX=1;entryY=0.5;entryDx=0;entryDy=0;strokeWidth=4;" edge="1" parent="1" target="l7dVyTNd6598wQJ9YdrN-135">
          <mxGeometry width="50" height="50" relative="1" as="geometry">
            <mxPoint x="-1208" y="2047" as="sourcePoint" />
            <mxPoint x="-1408" y="2107" as="targetPoint" />
          </mxGeometry>
        </mxCell>
        <mxCell id="l7dVyTNd6598wQJ9YdrN-139" value="" style="rounded=0;whiteSpace=wrap;html=1;direction=south;strokeWidth=6;" vertex="1" parent="1">
          <mxGeometry x="-1508" y="1558" width="40" height="80" as="geometry" />
        </mxCell>
        <mxCell id="l7dVyTNd6598wQJ9YdrN-140" value="" style="rounded=0;whiteSpace=wrap;html=1;direction=south;fontStyle=1;strokeWidth=6;" vertex="1" parent="1">
          <mxGeometry x="-1508" y="1847" width="40" height="80" as="geometry" />
        </mxCell>
        <mxCell id="l7dVyTNd6598wQJ9YdrN-141" value="" style="rounded=0;whiteSpace=wrap;html=1;direction=south;strokeWidth=6;" vertex="1" parent="1">
          <mxGeometry x="-1508" y="2127" width="40" height="80" as="geometry" />
        </mxCell>
        <mxCell id="l7dVyTNd6598wQJ9YdrN-142" value="" style="endArrow=none;html=1;rounded=0;entryX=1;entryY=0.5;entryDx=0;entryDy=0;exitX=0;exitY=0.5;exitDx=0;exitDy=0;strokeWidth=4;" edge="1" parent="1" source="l7dVyTNd6598wQJ9YdrN-140" target="l7dVyTNd6598wQJ9YdrN-139">
          <mxGeometry width="50" height="50" relative="1" as="geometry">
            <mxPoint x="-1328" y="1787" as="sourcePoint" />
            <mxPoint x="-1228" y="1687" as="targetPoint" />
          </mxGeometry>
        </mxCell>
        <mxCell id="l7dVyTNd6598wQJ9YdrN-143" value="" style="endArrow=none;html=1;rounded=0;entryX=1;entryY=0.5;entryDx=0;entryDy=0;exitX=0;exitY=0.5;exitDx=0;exitDy=0;strokeWidth=4;" edge="1" parent="1" source="l7dVyTNd6598wQJ9YdrN-141" target="l7dVyTNd6598wQJ9YdrN-140">
          <mxGeometry width="50" height="50" relative="1" as="geometry">
            <mxPoint x="-1468" y="1867" as="sourcePoint" />
            <mxPoint x="-1468" y="1667" as="targetPoint" />
          </mxGeometry>
        </mxCell>
        <mxCell id="l7dVyTNd6598wQJ9YdrN-144" value="" style="ellipse;whiteSpace=wrap;html=1;aspect=fixed;fillColor=#000000;strokeWidth=4;" vertex="1" parent="1">
          <mxGeometry x="-1498" y="1757" width="20" height="20" as="geometry" />
        </mxCell>
        <mxCell id="l7dVyTNd6598wQJ9YdrN-145" value="" style="ellipse;whiteSpace=wrap;html=1;aspect=fixed;fillColor=#000000;strokeWidth=4;" vertex="1" parent="1">
          <mxGeometry x="-1498" y="1997" width="20" height="20" as="geometry" />
        </mxCell>
        <mxCell id="l7dVyTNd6598wQJ9YdrN-146" value="&lt;font style=&quot;font-size: 50px;&quot;&gt;触&lt;br&gt;发&lt;br&gt;器&lt;/font&gt;" style="rounded=0;whiteSpace=wrap;html=1;direction=south;strokeWidth=6;" vertex="1" parent="1">
          <mxGeometry x="-1208" y="1642" width="120" height="485" as="geometry" />
        </mxCell>
        <mxCell id="l7dVyTNd6598wQJ9YdrN-147" value="&lt;font style=&quot;font-size: 50px;&quot;&gt;+&lt;/font&gt;" style="text;html=1;align=center;verticalAlign=middle;resizable=0;points=[];autosize=1;strokeColor=none;fillColor=none;strokeWidth=4;" vertex="1" parent="1">
          <mxGeometry x="-1438" y="1947" width="50" height="70" as="geometry" />
        </mxCell>
        <mxCell id="l7dVyTNd6598wQJ9YdrN-148" value="&lt;font style=&quot;font-size: 50px;&quot;&gt;-&lt;/font&gt;" style="text;html=1;align=center;verticalAlign=middle;resizable=0;points=[];autosize=1;strokeColor=none;fillColor=none;strokeWidth=4;" vertex="1" parent="1">
          <mxGeometry x="-1433" y="2067" width="40" height="70" as="geometry" />
        </mxCell>
        <mxCell id="l7dVyTNd6598wQJ9YdrN-149" value="" style="endArrow=none;html=1;rounded=0;entryX=0;entryY=0.5;entryDx=0;entryDy=0;strokeWidth=4;exitX=0.5;exitY=1;exitDx=0;exitDy=0;" edge="1" parent="1" source="l7dVyTNd6598wQJ9YdrN-191" target="l7dVyTNd6598wQJ9YdrN-146">
          <mxGeometry width="50" height="50" relative="1" as="geometry">
            <mxPoint x="-1148" y="1527" as="sourcePoint" />
            <mxPoint x="-1268" y="1787" as="targetPoint" />
          </mxGeometry>
        </mxCell>
        <mxCell id="l7dVyTNd6598wQJ9YdrN-150" value="" style="endArrow=none;html=1;rounded=0;strokeWidth=4;entryX=0;entryY=0.5;entryDx=0;entryDy=0;" edge="1" parent="1" target="l7dVyTNd6598wQJ9YdrN-139">
          <mxGeometry width="50" height="50" relative="1" as="geometry">
            <mxPoint x="-1488" y="1439" as="sourcePoint" />
            <mxPoint x="-1441" y="1532" as="targetPoint" />
          </mxGeometry>
        </mxCell>
        <mxCell id="l7dVyTNd6598wQJ9YdrN-151" value="" style="endArrow=none;html=1;rounded=0;entryX=0.173;entryY=0.018;entryDx=0;entryDy=0;entryPerimeter=0;strokeWidth=4;exitX=1;exitY=0.5;exitDx=0;exitDy=0;strokeColor=#0000FF;" edge="1" parent="1" source="l7dVyTNd6598wQJ9YdrN-197" target="l7dVyTNd6598wQJ9YdrN-146">
          <mxGeometry width="50" height="50" relative="1" as="geometry">
            <mxPoint x="-1008" y="1726" as="sourcePoint" />
            <mxPoint x="-1128" y="1787" as="targetPoint" />
          </mxGeometry>
        </mxCell>
        <mxCell id="l7dVyTNd6598wQJ9YdrN-152" value="" style="endArrow=none;html=1;rounded=0;strokeWidth=4;entryX=0.832;entryY=0.011;entryDx=0;entryDy=0;entryPerimeter=0;" edge="1" parent="1" target="l7dVyTNd6598wQJ9YdrN-146">
          <mxGeometry width="50" height="50" relative="1" as="geometry">
            <mxPoint x="-1003" y="2047" as="sourcePoint" />
            <mxPoint x="-1073" y="2044" as="targetPoint" />
          </mxGeometry>
        </mxCell>
        <mxCell id="l7dVyTNd6598wQJ9YdrN-153" value="" style="endArrow=none;html=1;rounded=0;strokeWidth=4;" edge="1" parent="1">
          <mxGeometry width="50" height="50" relative="1" as="geometry">
            <mxPoint x="-1003" y="2347" as="sourcePoint" />
            <mxPoint x="-1003" y="2047" as="targetPoint" />
          </mxGeometry>
        </mxCell>
        <mxCell id="l7dVyTNd6598wQJ9YdrN-154" value="" style="endArrow=none;html=1;rounded=0;strokeWidth=4;entryX=1;entryY=0.5;entryDx=0;entryDy=0;" edge="1" parent="1" target="l7dVyTNd6598wQJ9YdrN-237">
          <mxGeometry width="50" height="50" relative="1" as="geometry">
            <mxPoint x="-1288" y="2348" as="sourcePoint" />
            <mxPoint x="-1163" y="2348" as="targetPoint" />
          </mxGeometry>
        </mxCell>
        <mxCell id="l7dVyTNd6598wQJ9YdrN-155" value="" style="endArrow=none;html=1;rounded=0;strokeWidth=4;" edge="1" parent="1">
          <mxGeometry width="50" height="50" relative="1" as="geometry">
            <mxPoint x="-1593.9996014268631" y="2407.910717844403" as="sourcePoint" />
            <mxPoint x="-1682" y="2407" as="targetPoint" />
          </mxGeometry>
        </mxCell>
        <mxCell id="l7dVyTNd6598wQJ9YdrN-156" value="" style="endArrow=none;html=1;rounded=0;entryX=1;entryY=0.5;entryDx=0;entryDy=0;strokeWidth=4;" edge="1" parent="1" source="l7dVyTNd6598wQJ9YdrN-158" target="l7dVyTNd6598wQJ9YdrN-141">
          <mxGeometry width="50" height="50" relative="1" as="geometry">
            <mxPoint x="-1488" y="2427" as="sourcePoint" />
            <mxPoint x="-1308" y="2217" as="targetPoint" />
          </mxGeometry>
        </mxCell>
        <mxCell id="l7dVyTNd6598wQJ9YdrN-157" value="" style="endArrow=none;html=1;rounded=0;entryX=1;entryY=0.5;entryDx=0;entryDy=0;strokeWidth=4;" edge="1" parent="1" target="l7dVyTNd6598wQJ9YdrN-158">
          <mxGeometry width="50" height="50" relative="1" as="geometry">
            <mxPoint x="-1488" y="2408" as="sourcePoint" />
            <mxPoint x="-1488" y="2188" as="targetPoint" />
          </mxGeometry>
        </mxCell>
        <mxCell id="l7dVyTNd6598wQJ9YdrN-158" value="" style="ellipse;whiteSpace=wrap;html=1;aspect=fixed;fillColor=#000000;strokeWidth=4;" vertex="1" parent="1">
          <mxGeometry x="-1498" y="2398" width="20" height="20" as="geometry" />
        </mxCell>
        <mxCell id="l7dVyTNd6598wQJ9YdrN-159" value="&lt;font style=&quot;font-size: 50px;&quot;&gt;6&lt;/font&gt;" style="text;html=1;align=center;verticalAlign=middle;resizable=0;points=[];autosize=1;strokeColor=default;fillColor=none;rounded=1;fontStyle=1;strokeWidth=4;dashed=1;opacity=50;shadow=1;glass=1;dashPattern=1 1;" vertex="1" parent="1">
          <mxGeometry x="-1743" y="1642" width="50" height="70" as="geometry" />
        </mxCell>
        <mxCell id="l7dVyTNd6598wQJ9YdrN-160" value="&lt;font style=&quot;font-size: 50px;&quot;&gt;&lt;b&gt;5&lt;/b&gt;&lt;/font&gt;" style="text;html=1;align=center;verticalAlign=middle;resizable=0;points=[];autosize=1;strokeColor=default;fillColor=none;strokeWidth=4;dashed=1;opacity=50;rounded=1;shadow=1;glass=1;dashPattern=1 1;" vertex="1" parent="1">
          <mxGeometry x="-1578" y="1777" width="50" height="70" as="geometry" />
        </mxCell>
        <mxCell id="l7dVyTNd6598wQJ9YdrN-161" value="&lt;font style=&quot;font-size: 50px;&quot;&gt;&lt;b&gt;2&lt;/b&gt;&lt;/font&gt;" style="text;html=1;align=center;verticalAlign=middle;resizable=0;points=[];autosize=1;strokeColor=default;fillColor=none;strokeWidth=4;dashed=1;opacity=50;rounded=1;shadow=1;glass=1;dashPattern=1 1;" vertex="1" parent="1">
          <mxGeometry x="-1740" y="1997" width="50" height="70" as="geometry" />
        </mxCell>
        <mxCell id="l7dVyTNd6598wQJ9YdrN-162" value="&lt;font style=&quot;font-size: 50px;&quot;&gt;&lt;b&gt;7&lt;/b&gt;&lt;/font&gt;" style="text;html=1;align=center;verticalAlign=middle;resizable=0;points=[];autosize=1;strokeColor=default;fillColor=none;strokeWidth=4;dashed=1;opacity=50;rounded=1;shadow=1;glass=1;dashPattern=1 1;" vertex="1" parent="1">
          <mxGeometry x="-1883" y="2202" width="50" height="70" as="geometry" />
        </mxCell>
        <mxCell id="l7dVyTNd6598wQJ9YdrN-163" value="&lt;font style=&quot;font-size: 50px;&quot;&gt;&lt;b&gt;1&lt;/b&gt;&lt;/font&gt;" style="text;html=1;align=center;verticalAlign=middle;resizable=0;points=[];autosize=1;strokeColor=default;fillColor=none;strokeWidth=4;dashed=1;opacity=50;rounded=1;shadow=1;glass=1;dashPattern=1 1;" vertex="1" parent="1">
          <mxGeometry x="-1393" y="2327" width="50" height="70" as="geometry" />
        </mxCell>
        <mxCell id="l7dVyTNd6598wQJ9YdrN-164" value="&lt;font style=&quot;font-size: 50px;&quot;&gt;R&lt;/font&gt;" style="text;html=1;align=center;verticalAlign=middle;resizable=0;points=[];autosize=1;strokeColor=none;fillColor=none;strokeWidth=4;" vertex="1" parent="1">
          <mxGeometry x="-1278" y="1645" width="60" height="70" as="geometry" />
        </mxCell>
        <mxCell id="l7dVyTNd6598wQJ9YdrN-165" value="&lt;span style=&quot;font-size: 50px;&quot;&gt;S&lt;/span&gt;" style="text;html=1;align=center;verticalAlign=middle;resizable=0;points=[];autosize=1;strokeColor=none;fillColor=none;strokeWidth=4;" vertex="1" parent="1">
          <mxGeometry x="-1278" y="1972" width="60" height="70" as="geometry" />
        </mxCell>
        <mxCell id="l7dVyTNd6598wQJ9YdrN-166" value="&lt;span style=&quot;font-size: 50px;&quot;&gt;Q&lt;/span&gt;" style="text;html=1;align=center;verticalAlign=middle;resizable=0;points=[];autosize=1;strokeColor=none;fillColor=none;strokeWidth=4;" vertex="1" parent="1">
          <mxGeometry x="-1078" y="1647" width="60" height="70" as="geometry" />
        </mxCell>
        <mxCell id="l7dVyTNd6598wQJ9YdrN-167" value="&lt;span style=&quot;font-size: 50px;&quot;&gt;T&lt;/span&gt;" style="text;html=1;align=center;verticalAlign=middle;resizable=0;points=[];autosize=1;strokeColor=none;fillColor=none;strokeWidth=4;" vertex="1" parent="1">
          <mxGeometry x="-1273" y="2288" width="50" height="70" as="geometry" />
        </mxCell>
        <mxCell id="l7dVyTNd6598wQJ9YdrN-168" value="&lt;font style=&quot;font-size: 50px;&quot;&gt;8&lt;/font&gt;" style="text;html=1;align=center;verticalAlign=middle;resizable=0;points=[];autosize=1;strokeColor=default;fillColor=none;rounded=1;fontStyle=1;strokeWidth=4;dashed=1;opacity=50;shadow=1;glass=1;dashPattern=1 1;" vertex="1" parent="1">
          <mxGeometry x="-1458" y="1567" width="50" height="70" as="geometry" />
        </mxCell>
        <mxCell id="l7dVyTNd6598wQJ9YdrN-169" value="&lt;font style=&quot;font-size: 50px;&quot;&gt;4&lt;/font&gt;" style="text;html=1;align=center;verticalAlign=middle;resizable=0;points=[];autosize=1;strokeColor=default;fillColor=none;rounded=1;fontStyle=1;strokeWidth=4;dashed=1;opacity=50;shadow=1;glass=1;dashPattern=1 1;" vertex="1" parent="1">
          <mxGeometry x="-1138" y="1562" width="50" height="70" as="geometry" />
        </mxCell>
        <mxCell id="l7dVyTNd6598wQJ9YdrN-170" value="&lt;font style=&quot;font-size: 50px;&quot;&gt;3&lt;/font&gt;" style="text;html=1;align=center;verticalAlign=middle;resizable=0;points=[];autosize=1;strokeColor=default;fillColor=none;rounded=1;fontStyle=1;strokeWidth=4;dashed=1;opacity=50;shadow=1;glass=1;dashPattern=1 1;" vertex="1" parent="1">
          <mxGeometry x="-1063" y="1752" width="50" height="70" as="geometry" />
        </mxCell>
        <mxCell id="l7dVyTNd6598wQJ9YdrN-171" value="" style="endArrow=none;html=1;rounded=0;strokeWidth=4;" edge="1" parent="1">
          <mxGeometry width="50" height="50" relative="1" as="geometry">
            <mxPoint x="-1680.0312498485337" y="2078.0000484691345" as="sourcePoint" />
            <mxPoint x="-1681" y="1685.5" as="targetPoint" />
            <Array as="points">
              <mxPoint x="-1681" y="1809" />
            </Array>
          </mxGeometry>
        </mxCell>
        <mxCell id="l7dVyTNd6598wQJ9YdrN-172" value="" style="endArrow=none;html=1;rounded=0;strokeWidth=4;" edge="1" parent="1">
          <mxGeometry width="50" height="50" relative="1" as="geometry">
            <mxPoint x="-1584" y="2337" as="sourcePoint" />
            <mxPoint x="-1583.71" y="1767" as="targetPoint" />
          </mxGeometry>
        </mxCell>
        <mxCell id="l7dVyTNd6598wQJ9YdrN-173" value="" style="endArrow=none;html=1;rounded=0;strokeWidth=4;" edge="1" parent="1">
          <mxGeometry width="50" height="50" relative="1" as="geometry">
            <mxPoint x="-1583" y="2357" as="sourcePoint" />
            <mxPoint x="-1583" y="2407" as="targetPoint" />
          </mxGeometry>
        </mxCell>
        <mxCell id="l7dVyTNd6598wQJ9YdrN-174" value="" style="ellipse;whiteSpace=wrap;html=1;aspect=fixed;fillColor=#000000;strokeWidth=4;" vertex="1" parent="1">
          <mxGeometry x="-1690" y="2077" width="20" height="20" as="geometry" />
        </mxCell>
        <mxCell id="l7dVyTNd6598wQJ9YdrN-175" value="" style="rounded=0;whiteSpace=wrap;html=1;direction=south;strokeWidth=6;rotation=90;strokeColor=#000000;" vertex="1" parent="1">
          <mxGeometry x="-1808" y="2047" width="40" height="80" as="geometry" />
        </mxCell>
        <mxCell id="l7dVyTNd6598wQJ9YdrN-176" value="" style="ellipse;whiteSpace=wrap;html=1;aspect=fixed;fillColor=#000000;strokeWidth=4;" vertex="1" parent="1">
          <mxGeometry x="-1913" y="2077" width="20" height="20" as="geometry" />
        </mxCell>
        <mxCell id="l7dVyTNd6598wQJ9YdrN-177" value="" style="endArrow=none;html=1;rounded=0;strokeWidth=4;entryX=1;entryY=0.5;entryDx=0;entryDy=0;strokeColor=#0000FF;" edge="1" parent="1" source="l7dVyTNd6598wQJ9YdrN-191" target="l7dVyTNd6598wQJ9YdrN-251">
          <mxGeometry width="50" height="50" relative="1" as="geometry">
            <mxPoint x="-1903" y="1439" as="sourcePoint" />
            <mxPoint x="-743" y="1439" as="targetPoint" />
            <Array as="points">
              <mxPoint x="-743" y="1440" />
            </Array>
          </mxGeometry>
        </mxCell>
        <mxCell id="l7dVyTNd6598wQJ9YdrN-178" value="" style="rounded=0;whiteSpace=wrap;html=1;direction=south;strokeWidth=6;strokeColor=#000000;" vertex="1" parent="1">
          <mxGeometry x="-1923" y="1867" width="40" height="80" as="geometry" />
        </mxCell>
        <mxCell id="l7dVyTNd6598wQJ9YdrN-179" value="" style="endArrow=none;html=1;rounded=0;strokeWidth=4;entryX=0;entryY=0.5;entryDx=0;entryDy=0;strokeColor=#000000;exitX=0;exitY=0.5;exitDx=0;exitDy=0;" edge="1" parent="1" source="l7dVyTNd6598wQJ9YdrN-189">
          <mxGeometry width="50" height="50" relative="1" as="geometry">
            <mxPoint x="-1903" y="1440" as="sourcePoint" />
            <mxPoint x="-1903" y="1865" as="targetPoint" />
            <Array as="points">
              <mxPoint x="-1903" y="1439" />
            </Array>
          </mxGeometry>
        </mxCell>
        <mxCell id="l7dVyTNd6598wQJ9YdrN-180" value="" style="endArrow=none;html=1;rounded=0;strokeWidth=4;strokeColor=#000000;" edge="1" parent="1">
          <mxGeometry width="50" height="50" relative="1" as="geometry">
            <mxPoint x="-1680.83" y="2217" as="sourcePoint" />
            <mxPoint x="-1680" y="2407" as="targetPoint" />
          </mxGeometry>
        </mxCell>
        <mxCell id="l7dVyTNd6598wQJ9YdrN-181" value="" style="endArrow=none;html=1;rounded=0;strokeWidth=4;entryX=0.5;entryY=1;entryDx=0;entryDy=0;strokeColor=#000000;" edge="1" parent="1" target="l7dVyTNd6598wQJ9YdrN-174">
          <mxGeometry width="50" height="50" relative="1" as="geometry">
            <mxPoint x="-1680" y="2197.5152994791665" as="sourcePoint" />
            <mxPoint x="-1673" y="2109" as="targetPoint" />
          </mxGeometry>
        </mxCell>
        <mxCell id="l7dVyTNd6598wQJ9YdrN-182" value="&lt;font style=&quot;font-size: 50px;&quot;&gt;R&lt;sub&gt;1&lt;/sub&gt;&lt;/font&gt;" style="text;html=1;align=center;verticalAlign=middle;resizable=0;points=[];autosize=1;strokeColor=none;fillColor=none;strokeWidth=4;fontColor=#000000;" vertex="1" parent="1">
          <mxGeometry x="-2021" y="1872" width="77" height="81" as="geometry" />
        </mxCell>
        <mxCell id="l7dVyTNd6598wQJ9YdrN-183" value="&lt;font style=&quot;font-size: 50px;&quot;&gt;R&lt;sub&gt;G&lt;/sub&gt;&lt;/font&gt;" style="text;html=1;align=center;verticalAlign=middle;resizable=0;points=[];autosize=1;strokeColor=none;fillColor=none;strokeWidth=4;fontColor=#000000;" vertex="1" parent="1">
          <mxGeometry x="-1883" y="2087" width="90" height="80" as="geometry" />
        </mxCell>
        <mxCell id="l7dVyTNd6598wQJ9YdrN-184" value="&lt;font style=&quot;font-size: 50px;&quot;&gt;C&lt;sub&gt;1&lt;/sub&gt;&lt;/font&gt;" style="text;html=1;align=center;verticalAlign=middle;resizable=0;points=[];autosize=1;strokeColor=none;fillColor=none;strokeWidth=4;fontColor=#000000;" vertex="1" parent="1">
          <mxGeometry x="-1790" y="2159" width="80" height="80" as="geometry" />
        </mxCell>
        <mxCell id="l7dVyTNd6598wQJ9YdrN-185" value="&lt;font style=&quot;font-size: 50px;&quot;&gt;C&lt;sub&gt;2&lt;/sub&gt;&lt;/font&gt;" style="text;html=1;align=center;verticalAlign=middle;resizable=0;points=[];autosize=1;strokeColor=none;fillColor=none;strokeWidth=4;" vertex="1" parent="1">
          <mxGeometry x="-1673" y="2337" width="80" height="80" as="geometry" />
        </mxCell>
        <mxCell id="l7dVyTNd6598wQJ9YdrN-186" value="" style="group" vertex="1" connectable="0" parent="1">
          <mxGeometry x="-1613" y="2337" width="60" height="21" as="geometry" />
        </mxCell>
        <mxCell id="l7dVyTNd6598wQJ9YdrN-187" value="" style="endArrow=none;html=1;rounded=0;strokeWidth=4;" edge="1" parent="l7dVyTNd6598wQJ9YdrN-186">
          <mxGeometry width="50" height="50" relative="1" as="geometry">
            <mxPoint as="sourcePoint" />
            <mxPoint x="60" as="targetPoint" />
          </mxGeometry>
        </mxCell>
        <mxCell id="l7dVyTNd6598wQJ9YdrN-188" value="" style="endArrow=none;html=1;rounded=0;strokeWidth=4;" edge="1" parent="l7dVyTNd6598wQJ9YdrN-186">
          <mxGeometry width="50" height="50" relative="1" as="geometry">
            <mxPoint y="21" as="sourcePoint" />
            <mxPoint x="60" y="21" as="targetPoint" />
          </mxGeometry>
        </mxCell>
        <mxCell id="l7dVyTNd6598wQJ9YdrN-189" value="" style="ellipse;whiteSpace=wrap;html=1;aspect=fixed;fillColor=#000000;strokeWidth=4;" vertex="1" parent="1">
          <mxGeometry x="-1498" y="1429" width="20" height="20" as="geometry" />
        </mxCell>
        <mxCell id="l7dVyTNd6598wQJ9YdrN-190" value="" style="endArrow=none;html=1;rounded=0;strokeWidth=4;" edge="1" parent="1" source="l7dVyTNd6598wQJ9YdrN-189" target="l7dVyTNd6598wQJ9YdrN-191">
          <mxGeometry width="50" height="50" relative="1" as="geometry">
            <mxPoint x="-1478" y="1439" as="sourcePoint" />
            <mxPoint x="-983" y="1439" as="targetPoint" />
          </mxGeometry>
        </mxCell>
        <mxCell id="l7dVyTNd6598wQJ9YdrN-191" value="" style="ellipse;whiteSpace=wrap;html=1;aspect=fixed;fillColor=#000000;strokeWidth=4;" vertex="1" parent="1">
          <mxGeometry x="-1158" y="1429" width="20" height="20" as="geometry" />
        </mxCell>
        <mxCell id="l7dVyTNd6598wQJ9YdrN-192" value="" style="endArrow=none;html=1;rounded=0;strokeWidth=4;" edge="1" parent="1" source="l7dVyTNd6598wQJ9YdrN-214" target="l7dVyTNd6598wQJ9YdrN-193">
          <mxGeometry width="50" height="50" relative="1" as="geometry">
            <mxPoint x="-743" y="2408" as="sourcePoint" />
            <mxPoint x="-1783" y="2407" as="targetPoint" />
          </mxGeometry>
        </mxCell>
        <mxCell id="l7dVyTNd6598wQJ9YdrN-193" value="" style="ellipse;whiteSpace=wrap;html=1;aspect=fixed;fillColor=#000000;strokeWidth=4;" vertex="1" parent="1">
          <mxGeometry x="-1593" y="2398" width="20" height="20" as="geometry" />
        </mxCell>
        <mxCell id="l7dVyTNd6598wQJ9YdrN-194" value="" style="group" vertex="1" connectable="0" parent="1">
          <mxGeometry x="-1073" y="1957" width="60" height="70" as="geometry" />
        </mxCell>
        <mxCell id="l7dVyTNd6598wQJ9YdrN-195" value="&lt;font style=&quot;font-size: 50px;&quot;&gt;Q&lt;/font&gt;" style="text;html=1;align=center;verticalAlign=middle;resizable=0;points=[];autosize=1;strokeColor=none;fillColor=none;strokeWidth=4;" vertex="1" parent="l7dVyTNd6598wQJ9YdrN-194">
          <mxGeometry width="60" height="70" as="geometry" />
        </mxCell>
        <mxCell id="l7dVyTNd6598wQJ9YdrN-196" value="" style="endArrow=none;html=1;rounded=0;strokeWidth=4;" edge="1" parent="l7dVyTNd6598wQJ9YdrN-194">
          <mxGeometry width="50" height="50" relative="1" as="geometry">
            <mxPoint x="50" y="5" as="sourcePoint" />
            <mxPoint x="10" y="5" as="targetPoint" />
          </mxGeometry>
        </mxCell>
        <mxCell id="l7dVyTNd6598wQJ9YdrN-197" value="" style="rounded=0;whiteSpace=wrap;html=1;direction=west;strokeWidth=6;strokeColor=#0000FF;" vertex="1" parent="1">
          <mxGeometry x="-963" y="1707" width="80" height="40" as="geometry" />
        </mxCell>
        <mxCell id="l7dVyTNd6598wQJ9YdrN-198" value="" style="endArrow=none;html=1;rounded=0;entryX=0.173;entryY=0.018;entryDx=0;entryDy=0;entryPerimeter=0;strokeWidth=4;strokeColor=#0000FF;" edge="1" parent="1">
          <mxGeometry width="50" height="50" relative="1" as="geometry">
            <mxPoint x="-783" y="1726" as="sourcePoint" />
            <mxPoint x="-883" y="1726" as="targetPoint" />
          </mxGeometry>
        </mxCell>
        <mxCell id="l7dVyTNd6598wQJ9YdrN-199" value="" style="endArrow=none;html=1;rounded=0;strokeWidth=4;entryX=0.5;entryY=1;entryDx=0;entryDy=0;strokeColor=#000000;" edge="1" parent="1" target="l7dVyTNd6598wQJ9YdrN-176">
          <mxGeometry width="50" height="50" relative="1" as="geometry">
            <mxPoint x="-1327" y="2288" as="sourcePoint" />
            <mxPoint x="-1953" y="2157" as="targetPoint" />
            <Array as="points">
              <mxPoint x="-1903" y="2288" />
            </Array>
          </mxGeometry>
        </mxCell>
        <mxCell id="l7dVyTNd6598wQJ9YdrN-200" value="" style="endArrow=none;html=1;rounded=0;strokeWidth=4;strokeColor=#0000FF;" edge="1" parent="1">
          <mxGeometry width="50" height="50" relative="1" as="geometry">
            <mxPoint x="-743" y="1687" as="sourcePoint" />
            <mxPoint x="-743" y="1647" as="targetPoint" />
          </mxGeometry>
        </mxCell>
        <mxCell id="l7dVyTNd6598wQJ9YdrN-201" value="" style="endArrow=none;html=1;rounded=0;strokeWidth=4;strokeColor=#0000FF;" edge="1" parent="1">
          <mxGeometry width="50" height="50" relative="1" as="geometry">
            <mxPoint x="-743" y="1767" as="sourcePoint" />
            <mxPoint x="-743" y="2407" as="targetPoint" />
          </mxGeometry>
        </mxCell>
        <mxCell id="l7dVyTNd6598wQJ9YdrN-206" value="" style="endArrow=none;html=1;rounded=0;strokeWidth=4;entryX=0;entryY=0.5;entryDx=0;entryDy=0;strokeColor=#0000FF;" edge="1" parent="1" target="l7dVyTNd6598wQJ9YdrN-251">
          <mxGeometry width="50" height="50" relative="1" as="geometry">
            <mxPoint x="-743" y="1607" as="sourcePoint" />
            <mxPoint x="-743" y="1527" as="targetPoint" />
          </mxGeometry>
        </mxCell>
        <mxCell id="l7dVyTNd6598wQJ9YdrN-207" value="" style="endArrow=none;html=1;rounded=0;strokeWidth=4;" edge="1" parent="1">
          <mxGeometry width="50" height="50" relative="1" as="geometry">
            <mxPoint x="-1328" y="2308" as="sourcePoint" />
            <mxPoint x="-1328" y="2288" as="targetPoint" />
          </mxGeometry>
        </mxCell>
        <mxCell id="l7dVyTNd6598wQJ9YdrN-208" value="" style="endArrow=none;html=1;rounded=0;strokeWidth=4;" edge="1" parent="1">
          <mxGeometry width="50" height="50" relative="1" as="geometry">
            <mxPoint x="-1328" y="2388" as="sourcePoint" />
            <mxPoint x="-1328" y="2408" as="targetPoint" />
          </mxGeometry>
        </mxCell>
        <mxCell id="l7dVyTNd6598wQJ9YdrN-209" value="" style="group" vertex="1" connectable="0" parent="1">
          <mxGeometry x="-1328" y="2308" width="40" height="80" as="geometry" />
        </mxCell>
        <mxCell id="l7dVyTNd6598wQJ9YdrN-210" value="" style="endArrow=none;html=1;rounded=0;strokeWidth=6;" edge="1" parent="l7dVyTNd6598wQJ9YdrN-209">
          <mxGeometry width="50" height="50" relative="1" as="geometry">
            <mxPoint x="40" y="80" as="sourcePoint" />
            <mxPoint x="40" as="targetPoint" />
          </mxGeometry>
        </mxCell>
        <mxCell id="l7dVyTNd6598wQJ9YdrN-211" value="" style="endArrow=none;html=1;rounded=0;strokeWidth=4;" edge="1" parent="l7dVyTNd6598wQJ9YdrN-209">
          <mxGeometry width="50" height="50" relative="1" as="geometry">
            <mxPoint x="40" y="20" as="sourcePoint" />
            <mxPoint as="targetPoint" />
          </mxGeometry>
        </mxCell>
        <mxCell id="l7dVyTNd6598wQJ9YdrN-212" value="" style="endArrow=classic;html=1;rounded=0;strokeWidth=4;" edge="1" parent="l7dVyTNd6598wQJ9YdrN-209">
          <mxGeometry width="50" height="50" relative="1" as="geometry">
            <mxPoint x="40" y="60" as="sourcePoint" />
            <mxPoint y="80" as="targetPoint" />
          </mxGeometry>
        </mxCell>
        <mxCell id="l7dVyTNd6598wQJ9YdrN-213" value="" style="endArrow=none;html=1;rounded=0;strokeWidth=4;strokeColor=#0000FF;" edge="1" parent="1" target="l7dVyTNd6598wQJ9YdrN-214">
          <mxGeometry width="50" height="50" relative="1" as="geometry">
            <mxPoint x="-743" y="2408" as="sourcePoint" />
            <mxPoint x="-1573" y="2408" as="targetPoint" />
          </mxGeometry>
        </mxCell>
        <mxCell id="l7dVyTNd6598wQJ9YdrN-214" value="" style="ellipse;whiteSpace=wrap;html=1;aspect=fixed;fillColor=#000000;strokeWidth=4;" vertex="1" parent="1">
          <mxGeometry x="-1338" y="2398" width="20" height="20" as="geometry" />
        </mxCell>
        <mxCell id="l7dVyTNd6598wQJ9YdrN-225" value="" style="group" vertex="1" connectable="0" parent="1">
          <mxGeometry x="-1518" y="2418" width="60" height="30" as="geometry" />
        </mxCell>
        <mxCell id="l7dVyTNd6598wQJ9YdrN-226" value="" style="endArrow=none;html=1;rounded=0;strokeWidth=4;entryX=0.5;entryY=1;entryDx=0;entryDy=0;" edge="1" parent="l7dVyTNd6598wQJ9YdrN-225">
          <mxGeometry width="50" height="50" relative="1" as="geometry">
            <mxPoint x="30" y="29" as="sourcePoint" />
            <mxPoint x="30" as="targetPoint" />
          </mxGeometry>
        </mxCell>
        <mxCell id="l7dVyTNd6598wQJ9YdrN-227" value="" style="endArrow=none;html=1;rounded=0;strokeWidth=4;" edge="1" parent="l7dVyTNd6598wQJ9YdrN-225">
          <mxGeometry width="50" height="50" relative="1" as="geometry">
            <mxPoint y="30" as="sourcePoint" />
            <mxPoint x="60" y="30" as="targetPoint" />
          </mxGeometry>
        </mxCell>
        <mxCell id="l7dVyTNd6598wQJ9YdrN-228" value="" style="group;flipV=1;" vertex="1" connectable="0" parent="1">
          <mxGeometry x="-1518" y="1399" width="60" height="30" as="geometry" />
        </mxCell>
        <mxCell id="l7dVyTNd6598wQJ9YdrN-229" value="" style="endArrow=none;html=1;rounded=0;strokeWidth=4;entryX=0.5;entryY=1;entryDx=0;entryDy=0;" edge="1" parent="l7dVyTNd6598wQJ9YdrN-228">
          <mxGeometry width="50" height="50" relative="1" as="geometry">
            <mxPoint x="30" y="1" as="sourcePoint" />
            <mxPoint x="30" y="30" as="targetPoint" />
          </mxGeometry>
        </mxCell>
        <mxCell id="l7dVyTNd6598wQJ9YdrN-230" value="" style="endArrow=none;html=1;rounded=0;strokeWidth=4;" edge="1" parent="l7dVyTNd6598wQJ9YdrN-228">
          <mxGeometry width="50" height="50" relative="1" as="geometry">
            <mxPoint as="sourcePoint" />
            <mxPoint x="60" as="targetPoint" />
          </mxGeometry>
        </mxCell>
        <mxCell id="l7dVyTNd6598wQJ9YdrN-232" value="&lt;font style=&quot;font-size: 50px;&quot;&gt;BP&lt;/font&gt;" style="text;html=1;align=center;verticalAlign=middle;resizable=0;points=[];autosize=1;strokeColor=none;fillColor=none;strokeWidth=4;fontColor=#0000FF;" vertex="1" parent="1">
          <mxGeometry x="-663" y="1597" width="90" height="70" as="geometry" />
        </mxCell>
        <mxCell id="l7dVyTNd6598wQJ9YdrN-233" value="&lt;font style=&quot;font-size: 50px;&quot;&gt;+6V&lt;/font&gt;" style="text;html=1;align=center;verticalAlign=middle;resizable=0;points=[];autosize=1;strokeColor=none;fillColor=none;strokeWidth=4;" vertex="1" parent="1">
          <mxGeometry x="-1543" y="1329" width="110" height="70" as="geometry" />
        </mxCell>
        <mxCell id="l7dVyTNd6598wQJ9YdrN-234" value="" style="endArrow=none;html=1;rounded=0;strokeWidth=4;" edge="1" parent="1">
          <mxGeometry width="50" height="50" relative="1" as="geometry">
            <mxPoint x="-1463" y="2457" as="sourcePoint" />
            <mxPoint x="-1513" y="2457" as="targetPoint" />
          </mxGeometry>
        </mxCell>
        <mxCell id="l7dVyTNd6598wQJ9YdrN-235" value="" style="endArrow=none;html=1;rounded=0;strokeWidth=4;" edge="1" parent="1">
          <mxGeometry width="50" height="50" relative="1" as="geometry">
            <mxPoint x="-1473" y="2467" as="sourcePoint" />
            <mxPoint x="-1503" y="2467" as="targetPoint" />
          </mxGeometry>
        </mxCell>
        <mxCell id="l7dVyTNd6598wQJ9YdrN-236" value="&lt;font style=&quot;font-size: 50px;&quot;&gt;GND&lt;/font&gt;" style="text;html=1;align=center;verticalAlign=middle;resizable=0;points=[];autosize=1;strokeColor=none;fillColor=none;strokeWidth=4;" vertex="1" parent="1">
          <mxGeometry x="-1638" y="2437" width="130" height="70" as="geometry" />
        </mxCell>
        <mxCell id="l7dVyTNd6598wQJ9YdrN-237" value="" style="rounded=0;whiteSpace=wrap;html=1;direction=west;strokeWidth=6;" vertex="1" parent="1">
          <mxGeometry x="-1183" y="2327" width="80" height="40" as="geometry" />
        </mxCell>
        <mxCell id="l7dVyTNd6598wQJ9YdrN-238" value="" style="endArrow=none;html=1;rounded=0;strokeWidth=4;exitX=0;exitY=0.5;exitDx=0;exitDy=0;" edge="1" parent="1" source="l7dVyTNd6598wQJ9YdrN-237">
          <mxGeometry width="50" height="50" relative="1" as="geometry">
            <mxPoint x="-1278" y="2358" as="sourcePoint" />
            <mxPoint x="-1003" y="2347" as="targetPoint" />
          </mxGeometry>
        </mxCell>
        <mxCell id="l7dVyTNd6598wQJ9YdrN-239" value="&lt;font style=&quot;font-size: 50px;&quot;&gt;R&lt;sub&gt;p&lt;/sub&gt;&lt;/font&gt;" style="text;html=1;align=center;verticalAlign=middle;resizable=0;points=[];autosize=1;strokeColor=none;fillColor=none;strokeWidth=4;" vertex="1" parent="1">
          <mxGeometry x="-1181" y="2247" width="77" height="81" as="geometry" />
        </mxCell>
        <mxCell id="l7dVyTNd6598wQJ9YdrN-240" value="" style="endArrow=none;html=1;rounded=0;strokeWidth=4;entryX=1;entryY=0.5;entryDx=0;entryDy=0;exitX=1;exitY=0.5;exitDx=0;exitDy=0;strokeColor=#000000;" edge="1" parent="1" source="l7dVyTNd6598wQJ9YdrN-175" target="l7dVyTNd6598wQJ9YdrN-176">
          <mxGeometry width="50" height="50" relative="1" as="geometry">
            <mxPoint x="-1843" y="2085" as="sourcePoint" />
            <mxPoint x="-1738" y="2097" as="targetPoint" />
          </mxGeometry>
        </mxCell>
        <mxCell id="l7dVyTNd6598wQJ9YdrN-241" value="&lt;font style=&quot;font-size: 50px;&quot;&gt;R&lt;sub&gt;t&lt;/sub&gt;&lt;/font&gt;" style="text;html=1;align=center;verticalAlign=middle;resizable=0;points=[];autosize=1;strokeColor=none;fillColor=none;strokeWidth=4;fontColor=#000000;" vertex="1" parent="1">
          <mxGeometry x="-1576" y="1564.5" width="70" height="80" as="geometry" />
        </mxCell>
        <mxCell id="l7dVyTNd6598wQJ9YdrN-242" value="&lt;font style=&quot;font-size: 50px;&quot;&gt;R&lt;sub&gt;t&lt;/sub&gt;&lt;/font&gt;" style="text;html=1;align=center;verticalAlign=middle;resizable=0;points=[];autosize=1;strokeColor=none;fillColor=none;strokeWidth=4;fontColor=#000000;" vertex="1" parent="1">
          <mxGeometry x="-1576" y="2129.5" width="70" height="80" as="geometry" />
        </mxCell>
        <mxCell id="l7dVyTNd6598wQJ9YdrN-243" value="&lt;font style=&quot;font-size: 50px;&quot;&gt;R&lt;sub&gt;t&lt;/sub&gt;&lt;/font&gt;" style="text;html=1;align=center;verticalAlign=middle;resizable=0;points=[];autosize=1;strokeColor=none;fillColor=none;strokeWidth=4;fontColor=#000000;" vertex="1" parent="1">
          <mxGeometry x="-1576" y="1849.5" width="70" height="80" as="geometry" />
        </mxCell>
        <mxCell id="l7dVyTNd6598wQJ9YdrN-244" value="" style="endArrow=none;html=1;rounded=0;strokeWidth=4;entryX=0.5;entryY=0;entryDx=0;entryDy=0;strokeColor=#000000;exitX=1;exitY=0.5;exitDx=0;exitDy=0;" edge="1" parent="1" source="l7dVyTNd6598wQJ9YdrN-178" target="l7dVyTNd6598wQJ9YdrN-176">
          <mxGeometry width="50" height="50" relative="1" as="geometry">
            <mxPoint x="-1873" y="1979" as="sourcePoint" />
            <mxPoint x="-1893" y="1877" as="targetPoint" />
          </mxGeometry>
        </mxCell>
        <mxCell id="l7dVyTNd6598wQJ9YdrN-245" value="" style="endArrow=none;html=1;rounded=0;strokeWidth=4;entryX=1;entryY=0.5;entryDx=0;entryDy=0;strokeColor=#000000;exitX=0;exitY=0.75;exitDx=0;exitDy=0;" edge="1" parent="1" source="l7dVyTNd6598wQJ9YdrN-135" target="l7dVyTNd6598wQJ9YdrN-174">
          <mxGeometry width="50" height="50" relative="1" as="geometry">
            <mxPoint x="-1680" y="2097" as="sourcePoint" />
            <mxPoint x="-1738" y="2097" as="targetPoint" />
          </mxGeometry>
        </mxCell>
        <mxCell id="l7dVyTNd6598wQJ9YdrN-246" value="" style="endArrow=none;html=1;rounded=0;strokeWidth=4;strokeColor=#000000;" edge="1" parent="1">
          <mxGeometry width="50" height="50" relative="1" as="geometry">
            <mxPoint x="-1710" y="2196" as="sourcePoint" />
            <mxPoint x="-1650" y="2196" as="targetPoint" />
          </mxGeometry>
        </mxCell>
        <mxCell id="l7dVyTNd6598wQJ9YdrN-247" value="" style="endArrow=none;html=1;rounded=0;strokeWidth=4;strokeColor=#000000;" edge="1" parent="1">
          <mxGeometry width="50" height="50" relative="1" as="geometry">
            <mxPoint x="-1710" y="2218" as="sourcePoint" />
            <mxPoint x="-1650" y="2218" as="targetPoint" />
          </mxGeometry>
        </mxCell>
        <mxCell id="l7dVyTNd6598wQJ9YdrN-248" value="" style="endArrow=classic;html=1;rounded=0;strokeWidth=4;strokeColor=#000000;" edge="1" parent="1">
          <mxGeometry width="50" height="50" relative="1" as="geometry">
            <mxPoint x="-1818" y="2017" as="sourcePoint" />
            <mxPoint x="-1798" y="2057" as="targetPoint" />
          </mxGeometry>
        </mxCell>
        <mxCell id="l7dVyTNd6598wQJ9YdrN-249" value="" style="endArrow=classic;html=1;rounded=0;strokeWidth=4;strokeColor=#000000;" edge="1" parent="1">
          <mxGeometry width="50" height="50" relative="1" as="geometry">
            <mxPoint x="-1778" y="2017" as="sourcePoint" />
            <mxPoint x="-1758" y="2057" as="targetPoint" />
          </mxGeometry>
        </mxCell>
        <mxCell id="l7dVyTNd6598wQJ9YdrN-251" value="" style="rounded=0;whiteSpace=wrap;html=1;direction=west;strokeWidth=6;rotation=90;strokeColor=#0000FF;" vertex="1" parent="1">
          <mxGeometry x="-783" y="1502" width="80" height="40" as="geometry" />
        </mxCell>
        <mxCell id="l7dVyTNd6598wQJ9YdrN-216" value="" style="endArrow=none;html=1;rounded=0;strokeWidth=4;strokeColor=#0000FF;" edge="1" parent="1">
          <mxGeometry width="50" height="50" relative="1" as="geometry">
            <mxPoint x="-713" y="1607" as="sourcePoint" />
            <mxPoint x="-743" y="1607" as="targetPoint" />
          </mxGeometry>
        </mxCell>
        <mxCell id="l7dVyTNd6598wQJ9YdrN-217" value="" style="endArrow=none;html=1;rounded=0;strokeWidth=4;strokeColor=#0000FF;" edge="1" parent="1">
          <mxGeometry width="50" height="50" relative="1" as="geometry">
            <mxPoint x="-713" y="1647" as="sourcePoint" />
            <mxPoint x="-743" y="1647" as="targetPoint" />
          </mxGeometry>
        </mxCell>
        <mxCell id="l7dVyTNd6598wQJ9YdrN-218" value="" style="endArrow=none;html=1;rounded=0;strokeWidth=4;strokeColor=#0000FF;" edge="1" parent="1">
          <mxGeometry width="50" height="50" relative="1" as="geometry">
            <mxPoint x="-713" y="1657" as="sourcePoint" />
            <mxPoint x="-713" y="1597" as="targetPoint" />
          </mxGeometry>
        </mxCell>
        <mxCell id="l7dVyTNd6598wQJ9YdrN-219" value="" style="endArrow=none;html=1;rounded=0;strokeWidth=4;strokeColor=#0000FF;" edge="1" parent="1">
          <mxGeometry width="50" height="50" relative="1" as="geometry">
            <mxPoint x="-693" y="1657" as="sourcePoint" />
            <mxPoint x="-693" y="1597" as="targetPoint" />
          </mxGeometry>
        </mxCell>
        <mxCell id="l7dVyTNd6598wQJ9YdrN-220" value="" style="endArrow=none;html=1;rounded=0;strokeWidth=4;strokeColor=#0000FF;" edge="1" parent="1">
          <mxGeometry width="50" height="50" relative="1" as="geometry">
            <mxPoint x="-693" y="1597" as="sourcePoint" />
            <mxPoint x="-713" y="1597" as="targetPoint" />
          </mxGeometry>
        </mxCell>
        <mxCell id="l7dVyTNd6598wQJ9YdrN-221" value="" style="endArrow=none;html=1;rounded=0;strokeWidth=4;strokeColor=#0000FF;" edge="1" parent="1">
          <mxGeometry width="50" height="50" relative="1" as="geometry">
            <mxPoint x="-693" y="1657" as="sourcePoint" />
            <mxPoint x="-713" y="1657" as="targetPoint" />
          </mxGeometry>
        </mxCell>
        <mxCell id="l7dVyTNd6598wQJ9YdrN-222" value="" style="endArrow=none;html=1;rounded=0;strokeWidth=4;strokeColor=#0000FF;" edge="1" parent="1">
          <mxGeometry width="50" height="50" relative="1" as="geometry">
            <mxPoint x="-663" y="1567" as="sourcePoint" />
            <mxPoint x="-693" y="1597" as="targetPoint" />
          </mxGeometry>
        </mxCell>
        <mxCell id="l7dVyTNd6598wQJ9YdrN-223" value="" style="endArrow=none;html=1;rounded=0;strokeWidth=4;strokeColor=#0000FF;" edge="1" parent="1">
          <mxGeometry width="50" height="50" relative="1" as="geometry">
            <mxPoint x="-663" y="1687" as="sourcePoint" />
            <mxPoint x="-693" y="1657" as="targetPoint" />
          </mxGeometry>
        </mxCell>
        <mxCell id="l7dVyTNd6598wQJ9YdrN-224" value="" style="endArrow=none;html=1;rounded=0;strokeWidth=4;strokeColor=#0000FF;" edge="1" parent="1">
          <mxGeometry width="50" height="50" relative="1" as="geometry">
            <mxPoint x="-663" y="1687" as="sourcePoint" />
            <mxPoint x="-663" y="1567" as="targetPoint" />
          </mxGeometry>
        </mxCell>
        <mxCell id="l7dVyTNd6598wQJ9YdrN-203" value="" style="endArrow=none;html=1;rounded=0;strokeWidth=6;strokeColor=#0000FF;" edge="1" parent="1">
          <mxGeometry width="50" height="50" relative="1" as="geometry">
            <mxPoint x="-783" y="1767" as="sourcePoint" />
            <mxPoint x="-783" y="1687" as="targetPoint" />
          </mxGeometry>
        </mxCell>
        <mxCell id="l7dVyTNd6598wQJ9YdrN-204" value="" style="endArrow=none;html=1;rounded=0;strokeWidth=4;strokeColor=#0000FF;" edge="1" parent="1">
          <mxGeometry width="50" height="50" relative="1" as="geometry">
            <mxPoint x="-783" y="1707" as="sourcePoint" />
            <mxPoint x="-743" y="1687" as="targetPoint" />
          </mxGeometry>
        </mxCell>
        <mxCell id="l7dVyTNd6598wQJ9YdrN-205" value="" style="endArrow=classic;html=1;rounded=0;strokeWidth=4;strokeColor=#0000FF;" edge="1" parent="1">
          <mxGeometry width="50" height="50" relative="1" as="geometry">
            <mxPoint x="-783" y="1747" as="sourcePoint" />
            <mxPoint x="-743" y="1767" as="targetPoint" />
          </mxGeometry>
        </mxCell>
        <mxCell id="l7dVyTNd6598wQJ9YdrN-253" value="&lt;font style=&quot;font-size: 50px;&quot;&gt;R&lt;sub&gt;2&lt;/sub&gt;&lt;/font&gt;&lt;div&gt;&lt;font style=&quot;font-size: 50px;&quot;&gt;100Ω&lt;/font&gt;&lt;/div&gt;" style="text;html=1;align=center;verticalAlign=middle;resizable=0;points=[];autosize=1;strokeColor=none;fillColor=none;strokeWidth=4;fontColor=#0000FF;" vertex="1" parent="1">
          <mxGeometry x="-963" y="1767" width="140" height="140" as="geometry" />
        </mxCell>
        <mxCell id="l7dVyTNd6598wQJ9YdrN-254" value="&lt;font style=&quot;font-size: 50px;&quot;&gt;R&lt;sub&gt;3&lt;/sub&gt;&lt;/font&gt;&lt;div&gt;&lt;font style=&quot;font-size: 50px;&quot;&gt;100Ω&lt;/font&gt;&lt;/div&gt;" style="text;html=1;align=center;verticalAlign=middle;resizable=0;points=[];autosize=1;strokeColor=none;fillColor=none;strokeWidth=4;fontColor=#0000FF;" vertex="1" parent="1">
          <mxGeometry x="-900" y="1481" width="140" height="140" as="geometry" />
        </mxCell>
        <mxCell id="l7dVyTNd6598wQJ9YdrN-255" value="&lt;span style=&quot;font-size: 50px;&quot;&gt;T&lt;sub&gt;1&lt;/sub&gt;&lt;/span&gt;&lt;div&gt;&lt;span style=&quot;font-size: 50px;&quot;&gt;9013&lt;/span&gt;&lt;/div&gt;" style="text;html=1;align=center;verticalAlign=middle;resizable=0;points=[];autosize=1;strokeColor=none;fillColor=none;strokeWidth=4;fontColor=#0000FF;" vertex="1" parent="1">
          <mxGeometry x="-740" y="1705" width="130" height="140" as="geometry" />
        </mxCell>
        <mxCell id="l7dVyTNd6598wQJ9YdrN-256" value="&lt;font style=&quot;font-size: 50px;&quot;&gt;R&lt;sub&gt;1&lt;/sub&gt;&lt;/font&gt;&lt;div&gt;&lt;font style=&quot;font-size: 50px;&quot;&gt;10kΩ&lt;/font&gt;&lt;/div&gt;" style="text;html=1;align=center;verticalAlign=middle;resizable=0;points=[];autosize=1;strokeColor=none;fillColor=none;strokeWidth=4;fontColor=#0000FF;" vertex="1" parent="1">
          <mxGeometry x="-410" y="1717" width="140" height="140" as="geometry" />
        </mxCell>
        <mxCell id="l7dVyTNd6598wQJ9YdrN-257" value="&lt;font style=&quot;font-size: 50px;&quot;&gt;C&lt;sub&gt;1&lt;/sub&gt;&lt;/font&gt;&lt;div&gt;&lt;font style=&quot;font-size: 50px;&quot;&gt;103&lt;/font&gt;&lt;/div&gt;" style="text;html=1;align=center;verticalAlign=middle;resizable=0;points=[];autosize=1;strokeColor=none;fillColor=none;strokeWidth=4;fontColor=#0000FF;" vertex="1" parent="1">
          <mxGeometry x="-149" y="2017" width="110" height="140" as="geometry" />
        </mxCell>
        <mxCell id="l7dVyTNd6598wQJ9YdrN-259" value="" style="endArrow=none;dashed=1;html=1;dashPattern=1 3;strokeWidth=6;rounded=0;strokeColor=#0000FF;" edge="1" parent="1">
          <mxGeometry width="50" height="50" relative="1" as="geometry">
            <mxPoint x="63" y="181" as="sourcePoint" />
            <mxPoint x="63" y="199" as="targetPoint" />
            <Array as="points">
              <mxPoint x="690" y="181" />
              <mxPoint x="690" y="1071" />
              <mxPoint x="238" y="1066" />
              <mxPoint x="238" y="952" />
              <mxPoint x="58" y="952" />
              <mxPoint x="58" y="746" />
            </Array>
          </mxGeometry>
        </mxCell>
        <mxCell id="l7dVyTNd6598wQJ9YdrN-260" value="&lt;font style=&quot;font-size: 50px;&quot;&gt;A1&lt;/font&gt;" style="triangle;whiteSpace=wrap;html=1;strokeWidth=6;" vertex="1" parent="1">
          <mxGeometry x="274" y="285" width="120" height="160" as="geometry" />
        </mxCell>
        <mxCell id="l7dVyTNd6598wQJ9YdrN-261" value="" style="endArrow=none;html=1;rounded=0;exitX=0;exitY=0.25;exitDx=0;exitDy=0;strokeWidth=4;" edge="1" parent="1">
          <mxGeometry width="50" height="50" relative="1" as="geometry">
            <mxPoint x="272" y="325" as="sourcePoint" />
            <mxPoint x="-19" y="325" as="targetPoint" />
          </mxGeometry>
        </mxCell>
        <mxCell id="l7dVyTNd6598wQJ9YdrN-262" value="" style="endArrow=none;html=1;rounded=0;exitX=0;exitY=0.75;exitDx=0;exitDy=0;strokeWidth=4;" edge="1" parent="1" source="l7dVyTNd6598wQJ9YdrN-260">
          <mxGeometry width="50" height="50" relative="1" as="geometry">
            <mxPoint x="294" y="405" as="sourcePoint" />
            <mxPoint x="79" y="405" as="targetPoint" />
          </mxGeometry>
        </mxCell>
        <mxCell id="l7dVyTNd6598wQJ9YdrN-263" value="" style="endArrow=none;html=1;rounded=0;entryX=1;entryY=0.5;entryDx=0;entryDy=0;strokeWidth=4;" edge="1" parent="1" target="l7dVyTNd6598wQJ9YdrN-260">
          <mxGeometry width="50" height="50" relative="1" as="geometry">
            <mxPoint x="454" y="365" as="sourcePoint" />
            <mxPoint x="254" y="425" as="targetPoint" />
          </mxGeometry>
        </mxCell>
        <mxCell id="l7dVyTNd6598wQJ9YdrN-264" value="&lt;font style=&quot;font-size: 50px;&quot;&gt;+&lt;/font&gt;" style="text;html=1;align=center;verticalAlign=middle;resizable=0;points=[];autosize=1;strokeColor=none;fillColor=none;strokeWidth=4;" vertex="1" parent="1">
          <mxGeometry x="224" y="270" width="50" height="70" as="geometry" />
        </mxCell>
        <mxCell id="l7dVyTNd6598wQJ9YdrN-265" value="&lt;font style=&quot;font-size: 50px;&quot;&gt;-&lt;/font&gt;" style="text;html=1;align=center;verticalAlign=middle;resizable=0;points=[];autosize=1;strokeColor=none;fillColor=none;strokeWidth=4;" vertex="1" parent="1">
          <mxGeometry x="229" y="390" width="40" height="70" as="geometry" />
        </mxCell>
        <mxCell id="l7dVyTNd6598wQJ9YdrN-266" value="&lt;font style=&quot;font-size: 50px;&quot;&gt;A2&lt;/font&gt;" style="triangle;whiteSpace=wrap;html=1;strokeWidth=6;" vertex="1" parent="1">
          <mxGeometry x="274" y="605" width="120" height="160" as="geometry" />
        </mxCell>
        <mxCell id="l7dVyTNd6598wQJ9YdrN-267" value="" style="endArrow=none;html=1;rounded=0;exitX=0;exitY=0.25;exitDx=0;exitDy=0;strokeWidth=4;" edge="1" parent="1" source="l7dVyTNd6598wQJ9YdrN-266">
          <mxGeometry width="50" height="50" relative="1" as="geometry">
            <mxPoint x="314" y="725" as="sourcePoint" />
            <mxPoint x="174" y="645" as="targetPoint" />
          </mxGeometry>
        </mxCell>
        <mxCell id="l7dVyTNd6598wQJ9YdrN-268" value="" style="endArrow=none;html=1;rounded=0;strokeWidth=4;entryX=0;entryY=0.5;entryDx=0;entryDy=0;strokeColor=#000000;exitX=0;exitY=0.5;exitDx=0;exitDy=0;" edge="1" parent="1" source="l7dVyTNd6598wQJ9YdrN-305" target="l7dVyTNd6598wQJ9YdrN-306">
          <mxGeometry width="50" height="50" relative="1" as="geometry">
            <mxPoint x="294" y="725" as="sourcePoint" />
            <mxPoint x="-121" y="725" as="targetPoint" />
          </mxGeometry>
        </mxCell>
        <mxCell id="l7dVyTNd6598wQJ9YdrN-269" value="" style="endArrow=none;html=1;rounded=0;entryX=1;entryY=0.5;entryDx=0;entryDy=0;strokeWidth=4;" edge="1" parent="1" target="l7dVyTNd6598wQJ9YdrN-266">
          <mxGeometry width="50" height="50" relative="1" as="geometry">
            <mxPoint x="454" y="685" as="sourcePoint" />
            <mxPoint x="254" y="745" as="targetPoint" />
          </mxGeometry>
        </mxCell>
        <mxCell id="l7dVyTNd6598wQJ9YdrN-270" value="" style="rounded=0;whiteSpace=wrap;html=1;direction=south;strokeWidth=6;" vertex="1" parent="1">
          <mxGeometry x="154" y="196" width="40" height="80" as="geometry" />
        </mxCell>
        <mxCell id="l7dVyTNd6598wQJ9YdrN-271" value="" style="rounded=0;whiteSpace=wrap;html=1;direction=south;fontStyle=1;strokeWidth=6;" vertex="1" parent="1">
          <mxGeometry x="154" y="485" width="40" height="80" as="geometry" />
        </mxCell>
        <mxCell id="l7dVyTNd6598wQJ9YdrN-272" value="" style="rounded=0;whiteSpace=wrap;html=1;direction=south;strokeWidth=6;" vertex="1" parent="1">
          <mxGeometry x="154" y="765" width="40" height="80" as="geometry" />
        </mxCell>
        <mxCell id="l7dVyTNd6598wQJ9YdrN-273" value="" style="endArrow=none;html=1;rounded=0;entryX=1;entryY=0.5;entryDx=0;entryDy=0;exitX=0;exitY=0.5;exitDx=0;exitDy=0;strokeWidth=4;" edge="1" parent="1" source="l7dVyTNd6598wQJ9YdrN-271" target="l7dVyTNd6598wQJ9YdrN-270">
          <mxGeometry width="50" height="50" relative="1" as="geometry">
            <mxPoint x="334" y="425" as="sourcePoint" />
            <mxPoint x="434" y="325" as="targetPoint" />
          </mxGeometry>
        </mxCell>
        <mxCell id="l7dVyTNd6598wQJ9YdrN-274" value="" style="endArrow=none;html=1;rounded=0;entryX=1;entryY=0.5;entryDx=0;entryDy=0;exitX=0;exitY=0.5;exitDx=0;exitDy=0;strokeWidth=4;" edge="1" parent="1" source="l7dVyTNd6598wQJ9YdrN-272" target="l7dVyTNd6598wQJ9YdrN-271">
          <mxGeometry width="50" height="50" relative="1" as="geometry">
            <mxPoint x="194" y="505" as="sourcePoint" />
            <mxPoint x="194" y="305" as="targetPoint" />
          </mxGeometry>
        </mxCell>
        <mxCell id="l7dVyTNd6598wQJ9YdrN-275" value="" style="ellipse;whiteSpace=wrap;html=1;aspect=fixed;fillColor=#000000;strokeWidth=4;" vertex="1" parent="1">
          <mxGeometry x="164" y="395" width="20" height="20" as="geometry" />
        </mxCell>
        <mxCell id="l7dVyTNd6598wQJ9YdrN-276" value="" style="ellipse;whiteSpace=wrap;html=1;aspect=fixed;fillColor=#000000;strokeWidth=4;" vertex="1" parent="1">
          <mxGeometry x="164" y="635" width="20" height="20" as="geometry" />
        </mxCell>
        <mxCell id="l7dVyTNd6598wQJ9YdrN-277" value="&lt;font style=&quot;font-size: 50px;&quot;&gt;触&lt;br&gt;发&lt;br&gt;器&lt;/font&gt;" style="rounded=0;whiteSpace=wrap;html=1;direction=south;strokeWidth=6;" vertex="1" parent="1">
          <mxGeometry x="454" y="280" width="120" height="485" as="geometry" />
        </mxCell>
        <mxCell id="l7dVyTNd6598wQJ9YdrN-278" value="&lt;font style=&quot;font-size: 50px;&quot;&gt;+&lt;/font&gt;" style="text;html=1;align=center;verticalAlign=middle;resizable=0;points=[];autosize=1;strokeColor=none;fillColor=none;strokeWidth=4;" vertex="1" parent="1">
          <mxGeometry x="224" y="585" width="50" height="70" as="geometry" />
        </mxCell>
        <mxCell id="l7dVyTNd6598wQJ9YdrN-279" value="&lt;font style=&quot;font-size: 50px;&quot;&gt;-&lt;/font&gt;" style="text;html=1;align=center;verticalAlign=middle;resizable=0;points=[];autosize=1;strokeColor=none;fillColor=none;strokeWidth=4;" vertex="1" parent="1">
          <mxGeometry x="229" y="705" width="40" height="70" as="geometry" />
        </mxCell>
        <mxCell id="l7dVyTNd6598wQJ9YdrN-280" value="" style="endArrow=none;html=1;rounded=0;entryX=0;entryY=0.5;entryDx=0;entryDy=0;strokeWidth=4;exitX=0.5;exitY=1;exitDx=0;exitDy=0;" edge="1" parent="1" source="l7dVyTNd6598wQJ9YdrN-322" target="l7dVyTNd6598wQJ9YdrN-277">
          <mxGeometry width="50" height="50" relative="1" as="geometry">
            <mxPoint x="514" y="165" as="sourcePoint" />
            <mxPoint x="394" y="425" as="targetPoint" />
          </mxGeometry>
        </mxCell>
        <mxCell id="l7dVyTNd6598wQJ9YdrN-281" value="" style="endArrow=none;html=1;rounded=0;strokeWidth=4;entryX=0;entryY=0.5;entryDx=0;entryDy=0;" edge="1" parent="1" target="l7dVyTNd6598wQJ9YdrN-270">
          <mxGeometry width="50" height="50" relative="1" as="geometry">
            <mxPoint x="174" y="77" as="sourcePoint" />
            <mxPoint x="221" y="170" as="targetPoint" />
          </mxGeometry>
        </mxCell>
        <mxCell id="l7dVyTNd6598wQJ9YdrN-282" value="" style="endArrow=none;html=1;rounded=0;entryX=0.173;entryY=0.018;entryDx=0;entryDy=0;entryPerimeter=0;strokeWidth=4;exitX=1;exitY=0.5;exitDx=0;exitDy=0;" edge="1" parent="1" source="l7dVyTNd6598wQJ9YdrN-328" target="l7dVyTNd6598wQJ9YdrN-277">
          <mxGeometry width="50" height="50" relative="1" as="geometry">
            <mxPoint x="654" y="364" as="sourcePoint" />
            <mxPoint x="534" y="425" as="targetPoint" />
          </mxGeometry>
        </mxCell>
        <mxCell id="l7dVyTNd6598wQJ9YdrN-283" value="" style="endArrow=none;html=1;rounded=0;strokeWidth=4;entryX=0.832;entryY=0.011;entryDx=0;entryDy=0;entryPerimeter=0;" edge="1" parent="1" target="l7dVyTNd6598wQJ9YdrN-277">
          <mxGeometry width="50" height="50" relative="1" as="geometry">
            <mxPoint x="659" y="685" as="sourcePoint" />
            <mxPoint x="589" y="682" as="targetPoint" />
          </mxGeometry>
        </mxCell>
        <mxCell id="l7dVyTNd6598wQJ9YdrN-284" value="" style="endArrow=none;html=1;rounded=0;strokeWidth=4;" edge="1" parent="1">
          <mxGeometry width="50" height="50" relative="1" as="geometry">
            <mxPoint x="659" y="985" as="sourcePoint" />
            <mxPoint x="659" y="685" as="targetPoint" />
          </mxGeometry>
        </mxCell>
        <mxCell id="l7dVyTNd6598wQJ9YdrN-285" value="" style="endArrow=none;html=1;rounded=0;strokeWidth=4;entryX=1;entryY=0.5;entryDx=0;entryDy=0;" edge="1" parent="1" target="l7dVyTNd6598wQJ9YdrN-368">
          <mxGeometry width="50" height="50" relative="1" as="geometry">
            <mxPoint x="374" y="986" as="sourcePoint" />
            <mxPoint x="499" y="986" as="targetPoint" />
          </mxGeometry>
        </mxCell>
        <mxCell id="l7dVyTNd6598wQJ9YdrN-286" value="" style="endArrow=none;html=1;rounded=0;strokeWidth=4;" edge="1" parent="1">
          <mxGeometry width="50" height="50" relative="1" as="geometry">
            <mxPoint x="68.00039857313686" y="1045.9107178444028" as="sourcePoint" />
            <mxPoint x="-20" y="1045" as="targetPoint" />
          </mxGeometry>
        </mxCell>
        <mxCell id="l7dVyTNd6598wQJ9YdrN-287" value="" style="endArrow=none;html=1;rounded=0;entryX=1;entryY=0.5;entryDx=0;entryDy=0;strokeWidth=4;" edge="1" parent="1" source="l7dVyTNd6598wQJ9YdrN-289" target="l7dVyTNd6598wQJ9YdrN-272">
          <mxGeometry width="50" height="50" relative="1" as="geometry">
            <mxPoint x="174" y="1065" as="sourcePoint" />
            <mxPoint x="354" y="855" as="targetPoint" />
          </mxGeometry>
        </mxCell>
        <mxCell id="l7dVyTNd6598wQJ9YdrN-288" value="" style="endArrow=none;html=1;rounded=0;entryX=1;entryY=0.5;entryDx=0;entryDy=0;strokeWidth=4;" edge="1" parent="1" target="l7dVyTNd6598wQJ9YdrN-289">
          <mxGeometry width="50" height="50" relative="1" as="geometry">
            <mxPoint x="174" y="1046" as="sourcePoint" />
            <mxPoint x="174" y="826" as="targetPoint" />
          </mxGeometry>
        </mxCell>
        <mxCell id="l7dVyTNd6598wQJ9YdrN-289" value="" style="ellipse;whiteSpace=wrap;html=1;aspect=fixed;fillColor=#000000;strokeWidth=4;" vertex="1" parent="1">
          <mxGeometry x="164" y="1036" width="20" height="20" as="geometry" />
        </mxCell>
        <mxCell id="l7dVyTNd6598wQJ9YdrN-290" value="&lt;font style=&quot;font-size: 50px;&quot;&gt;6&lt;/font&gt;" style="text;html=1;align=center;verticalAlign=middle;resizable=0;points=[];autosize=1;strokeColor=default;fillColor=none;rounded=1;fontStyle=1;strokeWidth=4;dashed=1;opacity=50;shadow=1;glass=1;dashPattern=1 1;" vertex="1" parent="1">
          <mxGeometry x="-81" y="280" width="50" height="70" as="geometry" />
        </mxCell>
        <mxCell id="l7dVyTNd6598wQJ9YdrN-291" value="&lt;font style=&quot;font-size: 50px;&quot;&gt;&lt;b&gt;5&lt;/b&gt;&lt;/font&gt;" style="text;html=1;align=center;verticalAlign=middle;resizable=0;points=[];autosize=1;strokeColor=default;fillColor=none;strokeWidth=4;dashed=1;opacity=50;rounded=1;shadow=1;glass=1;dashPattern=1 1;" vertex="1" parent="1">
          <mxGeometry x="84" y="415" width="50" height="70" as="geometry" />
        </mxCell>
        <mxCell id="l7dVyTNd6598wQJ9YdrN-292" value="&lt;font style=&quot;font-size: 50px;&quot;&gt;&lt;b&gt;2&lt;/b&gt;&lt;/font&gt;" style="text;html=1;align=center;verticalAlign=middle;resizable=0;points=[];autosize=1;strokeColor=default;fillColor=none;strokeWidth=4;dashed=1;opacity=50;rounded=1;shadow=1;glass=1;dashPattern=1 1;" vertex="1" parent="1">
          <mxGeometry x="-78" y="635" width="50" height="70" as="geometry" />
        </mxCell>
        <mxCell id="l7dVyTNd6598wQJ9YdrN-293" value="&lt;font style=&quot;font-size: 50px;&quot;&gt;&lt;b&gt;7&lt;/b&gt;&lt;/font&gt;" style="text;html=1;align=center;verticalAlign=middle;resizable=0;points=[];autosize=1;strokeColor=default;fillColor=none;strokeWidth=4;dashed=1;opacity=50;rounded=1;shadow=1;glass=1;dashPattern=1 1;" vertex="1" parent="1">
          <mxGeometry x="-221" y="840" width="50" height="70" as="geometry" />
        </mxCell>
        <mxCell id="l7dVyTNd6598wQJ9YdrN-294" value="&lt;font style=&quot;font-size: 50px;&quot;&gt;&lt;b&gt;1&lt;/b&gt;&lt;/font&gt;" style="text;html=1;align=center;verticalAlign=middle;resizable=0;points=[];autosize=1;strokeColor=default;fillColor=none;strokeWidth=4;dashed=1;opacity=50;rounded=1;shadow=1;glass=1;dashPattern=1 1;" vertex="1" parent="1">
          <mxGeometry x="269" y="965" width="50" height="70" as="geometry" />
        </mxCell>
        <mxCell id="l7dVyTNd6598wQJ9YdrN-295" value="&lt;font style=&quot;font-size: 50px;&quot;&gt;R&lt;/font&gt;" style="text;html=1;align=center;verticalAlign=middle;resizable=0;points=[];autosize=1;strokeColor=none;fillColor=none;strokeWidth=4;" vertex="1" parent="1">
          <mxGeometry x="384" y="283" width="60" height="70" as="geometry" />
        </mxCell>
        <mxCell id="l7dVyTNd6598wQJ9YdrN-296" value="&lt;span style=&quot;font-size: 50px;&quot;&gt;S&lt;/span&gt;" style="text;html=1;align=center;verticalAlign=middle;resizable=0;points=[];autosize=1;strokeColor=none;fillColor=none;strokeWidth=4;" vertex="1" parent="1">
          <mxGeometry x="384" y="610" width="60" height="70" as="geometry" />
        </mxCell>
        <mxCell id="l7dVyTNd6598wQJ9YdrN-297" value="&lt;span style=&quot;font-size: 50px;&quot;&gt;Q&lt;/span&gt;" style="text;html=1;align=center;verticalAlign=middle;resizable=0;points=[];autosize=1;strokeColor=none;fillColor=none;strokeWidth=4;" vertex="1" parent="1">
          <mxGeometry x="584" y="285" width="60" height="70" as="geometry" />
        </mxCell>
        <mxCell id="l7dVyTNd6598wQJ9YdrN-298" value="&lt;span style=&quot;font-size: 50px;&quot;&gt;T&lt;/span&gt;" style="text;html=1;align=center;verticalAlign=middle;resizable=0;points=[];autosize=1;strokeColor=none;fillColor=none;strokeWidth=4;" vertex="1" parent="1">
          <mxGeometry x="389" y="926" width="50" height="70" as="geometry" />
        </mxCell>
        <mxCell id="l7dVyTNd6598wQJ9YdrN-299" value="&lt;font style=&quot;font-size: 50px;&quot;&gt;8&lt;/font&gt;" style="text;html=1;align=center;verticalAlign=middle;resizable=0;points=[];autosize=1;strokeColor=default;fillColor=none;rounded=1;fontStyle=1;strokeWidth=4;dashed=1;opacity=50;shadow=1;glass=1;dashPattern=1 1;" vertex="1" parent="1">
          <mxGeometry x="204" y="205" width="50" height="70" as="geometry" />
        </mxCell>
        <mxCell id="l7dVyTNd6598wQJ9YdrN-300" value="&lt;font style=&quot;font-size: 50px;&quot;&gt;4&lt;/font&gt;" style="text;html=1;align=center;verticalAlign=middle;resizable=0;points=[];autosize=1;strokeColor=default;fillColor=none;rounded=1;fontStyle=1;strokeWidth=4;dashed=1;opacity=50;shadow=1;glass=1;dashPattern=1 1;" vertex="1" parent="1">
          <mxGeometry x="524" y="200" width="50" height="70" as="geometry" />
        </mxCell>
        <mxCell id="l7dVyTNd6598wQJ9YdrN-301" value="&lt;font style=&quot;font-size: 50px;&quot;&gt;3&lt;/font&gt;" style="text;html=1;align=center;verticalAlign=middle;resizable=0;points=[];autosize=1;strokeColor=default;fillColor=none;rounded=1;fontStyle=1;strokeWidth=4;dashed=1;opacity=50;shadow=1;glass=1;dashPattern=1 1;" vertex="1" parent="1">
          <mxGeometry x="599" y="390" width="50" height="70" as="geometry" />
        </mxCell>
        <mxCell id="l7dVyTNd6598wQJ9YdrN-302" value="" style="endArrow=none;html=1;rounded=0;strokeWidth=4;" edge="1" parent="1">
          <mxGeometry width="50" height="50" relative="1" as="geometry">
            <mxPoint x="-18.03124984853389" y="716.0000484691345" as="sourcePoint" />
            <mxPoint x="-19" y="323.5" as="targetPoint" />
            <Array as="points">
              <mxPoint x="-19" y="447" />
            </Array>
          </mxGeometry>
        </mxCell>
        <mxCell id="l7dVyTNd6598wQJ9YdrN-303" value="" style="endArrow=none;html=1;rounded=0;strokeWidth=4;" edge="1" parent="1">
          <mxGeometry width="50" height="50" relative="1" as="geometry">
            <mxPoint x="78" y="975" as="sourcePoint" />
            <mxPoint x="78.28999999999996" y="405" as="targetPoint" />
          </mxGeometry>
        </mxCell>
        <mxCell id="l7dVyTNd6598wQJ9YdrN-304" value="" style="endArrow=none;html=1;rounded=0;strokeWidth=4;" edge="1" parent="1">
          <mxGeometry width="50" height="50" relative="1" as="geometry">
            <mxPoint x="79" y="995" as="sourcePoint" />
            <mxPoint x="79" y="1045" as="targetPoint" />
          </mxGeometry>
        </mxCell>
        <mxCell id="l7dVyTNd6598wQJ9YdrN-305" value="" style="ellipse;whiteSpace=wrap;html=1;aspect=fixed;fillColor=#000000;strokeWidth=4;" vertex="1" parent="1">
          <mxGeometry x="-28" y="715" width="20" height="20" as="geometry" />
        </mxCell>
        <mxCell id="l7dVyTNd6598wQJ9YdrN-306" value="" style="rounded=0;whiteSpace=wrap;html=1;direction=south;strokeWidth=6;rotation=90;strokeColor=#000000;" vertex="1" parent="1">
          <mxGeometry x="-146" y="685" width="40" height="80" as="geometry" />
        </mxCell>
        <mxCell id="l7dVyTNd6598wQJ9YdrN-307" value="" style="ellipse;whiteSpace=wrap;html=1;aspect=fixed;fillColor=#000000;strokeWidth=4;" vertex="1" parent="1">
          <mxGeometry x="-251" y="715" width="20" height="20" as="geometry" />
        </mxCell>
        <mxCell id="l7dVyTNd6598wQJ9YdrN-308" value="" style="endArrow=none;html=1;rounded=0;strokeWidth=4;entryX=1;entryY=0.5;entryDx=0;entryDy=0;" edge="1" parent="1" source="l7dVyTNd6598wQJ9YdrN-322" target="l7dVyTNd6598wQJ9YdrN-382">
          <mxGeometry width="50" height="50" relative="1" as="geometry">
            <mxPoint x="-241" y="77" as="sourcePoint" />
            <mxPoint x="919" y="77" as="targetPoint" />
            <Array as="points">
              <mxPoint x="919" y="78" />
            </Array>
          </mxGeometry>
        </mxCell>
        <mxCell id="l7dVyTNd6598wQJ9YdrN-309" value="" style="rounded=0;whiteSpace=wrap;html=1;direction=south;strokeWidth=6;strokeColor=#000000;" vertex="1" parent="1">
          <mxGeometry x="-261" y="505" width="40" height="80" as="geometry" />
        </mxCell>
        <mxCell id="l7dVyTNd6598wQJ9YdrN-310" value="" style="endArrow=none;html=1;rounded=0;strokeWidth=4;entryX=0;entryY=0.5;entryDx=0;entryDy=0;strokeColor=#000000;exitX=0;exitY=0.5;exitDx=0;exitDy=0;" edge="1" parent="1" source="l7dVyTNd6598wQJ9YdrN-320">
          <mxGeometry width="50" height="50" relative="1" as="geometry">
            <mxPoint x="-241" y="78" as="sourcePoint" />
            <mxPoint x="-241" y="503" as="targetPoint" />
            <Array as="points">
              <mxPoint x="-241" y="77" />
            </Array>
          </mxGeometry>
        </mxCell>
        <mxCell id="l7dVyTNd6598wQJ9YdrN-311" value="" style="endArrow=none;html=1;rounded=0;strokeWidth=4;strokeColor=#000000;" edge="1" parent="1">
          <mxGeometry width="50" height="50" relative="1" as="geometry">
            <mxPoint x="-18.829999999999927" y="855" as="sourcePoint" />
            <mxPoint x="-18" y="1045" as="targetPoint" />
          </mxGeometry>
        </mxCell>
        <mxCell id="l7dVyTNd6598wQJ9YdrN-312" value="" style="endArrow=none;html=1;rounded=0;strokeWidth=4;entryX=0.5;entryY=1;entryDx=0;entryDy=0;strokeColor=#000000;" edge="1" parent="1" target="l7dVyTNd6598wQJ9YdrN-305">
          <mxGeometry width="50" height="50" relative="1" as="geometry">
            <mxPoint x="-18" y="835.5152994791665" as="sourcePoint" />
            <mxPoint x="-11" y="747" as="targetPoint" />
          </mxGeometry>
        </mxCell>
        <mxCell id="l7dVyTNd6598wQJ9YdrN-313" value="&lt;font style=&quot;font-size: 50px;&quot;&gt;R&lt;sub&gt;1&lt;/sub&gt;&lt;/font&gt;&lt;div&gt;&lt;font style=&quot;font-size: 50px;&quot;&gt;10kΩ&lt;/font&gt;&lt;/div&gt;" style="text;html=1;align=center;verticalAlign=middle;resizable=0;points=[];autosize=1;strokeColor=none;fillColor=none;strokeWidth=4;fontColor=#000000;" vertex="1" parent="1">
          <mxGeometry x="-419" y="487.5" width="140" height="140" as="geometry" />
        </mxCell>
        <mxCell id="l7dVyTNd6598wQJ9YdrN-314" value="&lt;font style=&quot;font-size: 50px;&quot;&gt;R&lt;sub&gt;G&lt;/sub&gt;&lt;/font&gt;" style="text;html=1;align=center;verticalAlign=middle;resizable=0;points=[];autosize=1;strokeColor=none;fillColor=none;strokeWidth=4;fontColor=#000000;" vertex="1" parent="1">
          <mxGeometry x="-221" y="725" width="90" height="80" as="geometry" />
        </mxCell>
        <mxCell id="l7dVyTNd6598wQJ9YdrN-315" value="&lt;font style=&quot;font-size: 50px;&quot;&gt;C&lt;sub&gt;1&lt;/sub&gt;&lt;/font&gt;&lt;div&gt;&lt;font style=&quot;font-size: 50px;&quot;&gt;103&lt;/font&gt;&lt;/div&gt;" style="text;html=1;align=center;verticalAlign=middle;resizable=0;points=[];autosize=1;strokeColor=none;fillColor=none;strokeWidth=4;fontColor=#000000;" vertex="1" parent="1">
          <mxGeometry x="-147" y="797" width="110" height="140" as="geometry" />
        </mxCell>
        <mxCell id="l7dVyTNd6598wQJ9YdrN-316" value="&lt;font style=&quot;font-size: 50px;&quot;&gt;C&lt;sub&gt;2&lt;/sub&gt;&lt;/font&gt;&lt;div&gt;&lt;font style=&quot;font-size: 50px;&quot;&gt;103&lt;/font&gt;&lt;/div&gt;" style="text;html=1;align=center;verticalAlign=middle;resizable=0;points=[];autosize=1;strokeColor=none;fillColor=none;strokeWidth=4;" vertex="1" parent="1">
          <mxGeometry x="-37" y="975" width="110" height="140" as="geometry" />
        </mxCell>
        <mxCell id="l7dVyTNd6598wQJ9YdrN-317" value="" style="group" vertex="1" connectable="0" parent="1">
          <mxGeometry x="49" y="975" width="60" height="21" as="geometry" />
        </mxCell>
        <mxCell id="l7dVyTNd6598wQJ9YdrN-318" value="" style="endArrow=none;html=1;rounded=0;strokeWidth=4;" edge="1" parent="l7dVyTNd6598wQJ9YdrN-317">
          <mxGeometry width="50" height="50" relative="1" as="geometry">
            <mxPoint as="sourcePoint" />
            <mxPoint x="60" as="targetPoint" />
          </mxGeometry>
        </mxCell>
        <mxCell id="l7dVyTNd6598wQJ9YdrN-319" value="" style="endArrow=none;html=1;rounded=0;strokeWidth=4;" edge="1" parent="l7dVyTNd6598wQJ9YdrN-317">
          <mxGeometry width="50" height="50" relative="1" as="geometry">
            <mxPoint y="21" as="sourcePoint" />
            <mxPoint x="60" y="21" as="targetPoint" />
          </mxGeometry>
        </mxCell>
        <mxCell id="l7dVyTNd6598wQJ9YdrN-320" value="" style="ellipse;whiteSpace=wrap;html=1;aspect=fixed;fillColor=#000000;strokeWidth=4;" vertex="1" parent="1">
          <mxGeometry x="164" y="67" width="20" height="20" as="geometry" />
        </mxCell>
        <mxCell id="l7dVyTNd6598wQJ9YdrN-321" value="" style="endArrow=none;html=1;rounded=0;strokeWidth=4;" edge="1" parent="1" source="l7dVyTNd6598wQJ9YdrN-320" target="l7dVyTNd6598wQJ9YdrN-322">
          <mxGeometry width="50" height="50" relative="1" as="geometry">
            <mxPoint x="184" y="77" as="sourcePoint" />
            <mxPoint x="679" y="77" as="targetPoint" />
          </mxGeometry>
        </mxCell>
        <mxCell id="l7dVyTNd6598wQJ9YdrN-322" value="" style="ellipse;whiteSpace=wrap;html=1;aspect=fixed;fillColor=#000000;strokeWidth=4;" vertex="1" parent="1">
          <mxGeometry x="504" y="67" width="20" height="20" as="geometry" />
        </mxCell>
        <mxCell id="l7dVyTNd6598wQJ9YdrN-323" value="" style="endArrow=none;html=1;rounded=0;strokeWidth=4;" edge="1" parent="1" source="l7dVyTNd6598wQJ9YdrN-345" target="l7dVyTNd6598wQJ9YdrN-324">
          <mxGeometry width="50" height="50" relative="1" as="geometry">
            <mxPoint x="919" y="1046" as="sourcePoint" />
            <mxPoint x="-121" y="1045" as="targetPoint" />
          </mxGeometry>
        </mxCell>
        <mxCell id="l7dVyTNd6598wQJ9YdrN-324" value="" style="ellipse;whiteSpace=wrap;html=1;aspect=fixed;fillColor=#000000;strokeWidth=4;" vertex="1" parent="1">
          <mxGeometry x="69" y="1036" width="20" height="20" as="geometry" />
        </mxCell>
        <mxCell id="l7dVyTNd6598wQJ9YdrN-325" value="" style="group" vertex="1" connectable="0" parent="1">
          <mxGeometry x="589" y="595" width="60" height="70" as="geometry" />
        </mxCell>
        <mxCell id="l7dVyTNd6598wQJ9YdrN-326" value="&lt;font style=&quot;font-size: 50px;&quot;&gt;Q&lt;/font&gt;" style="text;html=1;align=center;verticalAlign=middle;resizable=0;points=[];autosize=1;strokeColor=none;fillColor=none;strokeWidth=4;" vertex="1" parent="l7dVyTNd6598wQJ9YdrN-325">
          <mxGeometry width="60" height="70" as="geometry" />
        </mxCell>
        <mxCell id="l7dVyTNd6598wQJ9YdrN-327" value="" style="endArrow=none;html=1;rounded=0;strokeWidth=4;" edge="1" parent="l7dVyTNd6598wQJ9YdrN-325">
          <mxGeometry width="50" height="50" relative="1" as="geometry">
            <mxPoint x="50" y="5" as="sourcePoint" />
            <mxPoint x="10" y="5" as="targetPoint" />
          </mxGeometry>
        </mxCell>
        <mxCell id="l7dVyTNd6598wQJ9YdrN-328" value="" style="rounded=0;whiteSpace=wrap;html=1;direction=west;strokeWidth=6;" vertex="1" parent="1">
          <mxGeometry x="699" y="345" width="80" height="40" as="geometry" />
        </mxCell>
        <mxCell id="l7dVyTNd6598wQJ9YdrN-329" value="" style="endArrow=none;html=1;rounded=0;entryX=0.173;entryY=0.018;entryDx=0;entryDy=0;entryPerimeter=0;strokeWidth=4;" edge="1" parent="1">
          <mxGeometry width="50" height="50" relative="1" as="geometry">
            <mxPoint x="879" y="364" as="sourcePoint" />
            <mxPoint x="779" y="364" as="targetPoint" />
          </mxGeometry>
        </mxCell>
        <mxCell id="l7dVyTNd6598wQJ9YdrN-330" value="" style="endArrow=none;html=1;rounded=0;strokeWidth=4;entryX=0.5;entryY=1;entryDx=0;entryDy=0;strokeColor=#000000;" edge="1" parent="1" target="l7dVyTNd6598wQJ9YdrN-307">
          <mxGeometry width="50" height="50" relative="1" as="geometry">
            <mxPoint x="335" y="926" as="sourcePoint" />
            <mxPoint x="-291" y="795" as="targetPoint" />
            <Array as="points">
              <mxPoint x="-241" y="926" />
            </Array>
          </mxGeometry>
        </mxCell>
        <mxCell id="l7dVyTNd6598wQJ9YdrN-331" value="" style="endArrow=none;html=1;rounded=0;strokeWidth=4;" edge="1" parent="1">
          <mxGeometry width="50" height="50" relative="1" as="geometry">
            <mxPoint x="919" y="325" as="sourcePoint" />
            <mxPoint x="919" y="285" as="targetPoint" />
          </mxGeometry>
        </mxCell>
        <mxCell id="l7dVyTNd6598wQJ9YdrN-332" value="" style="endArrow=none;html=1;rounded=0;strokeWidth=4;" edge="1" parent="1">
          <mxGeometry width="50" height="50" relative="1" as="geometry">
            <mxPoint x="919" y="405" as="sourcePoint" />
            <mxPoint x="919" y="1045" as="targetPoint" />
          </mxGeometry>
        </mxCell>
        <mxCell id="l7dVyTNd6598wQJ9YdrN-333" value="" style="group" vertex="1" connectable="0" parent="1">
          <mxGeometry x="879" y="325" width="40" height="80" as="geometry" />
        </mxCell>
        <mxCell id="l7dVyTNd6598wQJ9YdrN-334" value="" style="endArrow=none;html=1;rounded=0;strokeWidth=6;" edge="1" parent="l7dVyTNd6598wQJ9YdrN-333">
          <mxGeometry width="50" height="50" relative="1" as="geometry">
            <mxPoint y="80" as="sourcePoint" />
            <mxPoint as="targetPoint" />
          </mxGeometry>
        </mxCell>
        <mxCell id="l7dVyTNd6598wQJ9YdrN-335" value="" style="endArrow=none;html=1;rounded=0;strokeWidth=4;" edge="1" parent="l7dVyTNd6598wQJ9YdrN-333">
          <mxGeometry width="50" height="50" relative="1" as="geometry">
            <mxPoint y="20" as="sourcePoint" />
            <mxPoint x="40" as="targetPoint" />
          </mxGeometry>
        </mxCell>
        <mxCell id="l7dVyTNd6598wQJ9YdrN-336" value="" style="endArrow=classic;html=1;rounded=0;strokeWidth=4;" edge="1" parent="l7dVyTNd6598wQJ9YdrN-333">
          <mxGeometry width="50" height="50" relative="1" as="geometry">
            <mxPoint y="60" as="sourcePoint" />
            <mxPoint x="40" y="80" as="targetPoint" />
          </mxGeometry>
        </mxCell>
        <mxCell id="l7dVyTNd6598wQJ9YdrN-337" value="" style="endArrow=none;html=1;rounded=0;strokeWidth=4;entryX=0;entryY=0.5;entryDx=0;entryDy=0;" edge="1" parent="1" target="l7dVyTNd6598wQJ9YdrN-382">
          <mxGeometry width="50" height="50" relative="1" as="geometry">
            <mxPoint x="919" y="245" as="sourcePoint" />
            <mxPoint x="919" y="165" as="targetPoint" />
          </mxGeometry>
        </mxCell>
        <mxCell id="l7dVyTNd6598wQJ9YdrN-338" value="" style="endArrow=none;html=1;rounded=0;strokeWidth=4;" edge="1" parent="1">
          <mxGeometry width="50" height="50" relative="1" as="geometry">
            <mxPoint x="334" y="946" as="sourcePoint" />
            <mxPoint x="334" y="926" as="targetPoint" />
          </mxGeometry>
        </mxCell>
        <mxCell id="l7dVyTNd6598wQJ9YdrN-339" value="" style="endArrow=none;html=1;rounded=0;strokeWidth=4;" edge="1" parent="1">
          <mxGeometry width="50" height="50" relative="1" as="geometry">
            <mxPoint x="334" y="1026" as="sourcePoint" />
            <mxPoint x="334" y="1046" as="targetPoint" />
          </mxGeometry>
        </mxCell>
        <mxCell id="l7dVyTNd6598wQJ9YdrN-340" value="" style="group" vertex="1" connectable="0" parent="1">
          <mxGeometry x="334" y="946" width="40" height="80" as="geometry" />
        </mxCell>
        <mxCell id="l7dVyTNd6598wQJ9YdrN-341" value="" style="endArrow=none;html=1;rounded=0;strokeWidth=6;" edge="1" parent="l7dVyTNd6598wQJ9YdrN-340">
          <mxGeometry width="50" height="50" relative="1" as="geometry">
            <mxPoint x="40" y="80" as="sourcePoint" />
            <mxPoint x="40" as="targetPoint" />
          </mxGeometry>
        </mxCell>
        <mxCell id="l7dVyTNd6598wQJ9YdrN-342" value="" style="endArrow=none;html=1;rounded=0;strokeWidth=4;" edge="1" parent="l7dVyTNd6598wQJ9YdrN-340">
          <mxGeometry width="50" height="50" relative="1" as="geometry">
            <mxPoint x="40" y="20" as="sourcePoint" />
            <mxPoint as="targetPoint" />
          </mxGeometry>
        </mxCell>
        <mxCell id="l7dVyTNd6598wQJ9YdrN-343" value="" style="endArrow=classic;html=1;rounded=0;strokeWidth=4;" edge="1" parent="l7dVyTNd6598wQJ9YdrN-340">
          <mxGeometry width="50" height="50" relative="1" as="geometry">
            <mxPoint x="40" y="60" as="sourcePoint" />
            <mxPoint y="80" as="targetPoint" />
          </mxGeometry>
        </mxCell>
        <mxCell id="l7dVyTNd6598wQJ9YdrN-344" value="" style="endArrow=none;html=1;rounded=0;strokeWidth=4;" edge="1" parent="1" target="l7dVyTNd6598wQJ9YdrN-345">
          <mxGeometry width="50" height="50" relative="1" as="geometry">
            <mxPoint x="919" y="1046" as="sourcePoint" />
            <mxPoint x="89" y="1046" as="targetPoint" />
          </mxGeometry>
        </mxCell>
        <mxCell id="l7dVyTNd6598wQJ9YdrN-345" value="" style="ellipse;whiteSpace=wrap;html=1;aspect=fixed;fillColor=#000000;strokeWidth=4;" vertex="1" parent="1">
          <mxGeometry x="324" y="1036" width="20" height="20" as="geometry" />
        </mxCell>
        <mxCell id="l7dVyTNd6598wQJ9YdrN-346" value="" style="group" vertex="1" connectable="0" parent="1">
          <mxGeometry x="919" y="205" width="80" height="120" as="geometry" />
        </mxCell>
        <mxCell id="l7dVyTNd6598wQJ9YdrN-347" value="" style="endArrow=none;html=1;rounded=0;strokeWidth=4;" edge="1" parent="l7dVyTNd6598wQJ9YdrN-346">
          <mxGeometry width="50" height="50" relative="1" as="geometry">
            <mxPoint x="30" y="40" as="sourcePoint" />
            <mxPoint y="40" as="targetPoint" />
          </mxGeometry>
        </mxCell>
        <mxCell id="l7dVyTNd6598wQJ9YdrN-348" value="" style="endArrow=none;html=1;rounded=0;strokeWidth=4;" edge="1" parent="l7dVyTNd6598wQJ9YdrN-346">
          <mxGeometry width="50" height="50" relative="1" as="geometry">
            <mxPoint x="30" y="80" as="sourcePoint" />
            <mxPoint y="80" as="targetPoint" />
          </mxGeometry>
        </mxCell>
        <mxCell id="l7dVyTNd6598wQJ9YdrN-349" value="" style="endArrow=none;html=1;rounded=0;strokeWidth=4;" edge="1" parent="l7dVyTNd6598wQJ9YdrN-346">
          <mxGeometry width="50" height="50" relative="1" as="geometry">
            <mxPoint x="30" y="90" as="sourcePoint" />
            <mxPoint x="30" y="30" as="targetPoint" />
          </mxGeometry>
        </mxCell>
        <mxCell id="l7dVyTNd6598wQJ9YdrN-350" value="" style="endArrow=none;html=1;rounded=0;strokeWidth=4;" edge="1" parent="l7dVyTNd6598wQJ9YdrN-346">
          <mxGeometry width="50" height="50" relative="1" as="geometry">
            <mxPoint x="50" y="90" as="sourcePoint" />
            <mxPoint x="50" y="30" as="targetPoint" />
          </mxGeometry>
        </mxCell>
        <mxCell id="l7dVyTNd6598wQJ9YdrN-351" value="" style="endArrow=none;html=1;rounded=0;strokeWidth=4;" edge="1" parent="l7dVyTNd6598wQJ9YdrN-346">
          <mxGeometry width="50" height="50" relative="1" as="geometry">
            <mxPoint x="50" y="30" as="sourcePoint" />
            <mxPoint x="30" y="30" as="targetPoint" />
          </mxGeometry>
        </mxCell>
        <mxCell id="l7dVyTNd6598wQJ9YdrN-352" value="" style="endArrow=none;html=1;rounded=0;strokeWidth=4;" edge="1" parent="l7dVyTNd6598wQJ9YdrN-346">
          <mxGeometry width="50" height="50" relative="1" as="geometry">
            <mxPoint x="50" y="90" as="sourcePoint" />
            <mxPoint x="30" y="90" as="targetPoint" />
          </mxGeometry>
        </mxCell>
        <mxCell id="l7dVyTNd6598wQJ9YdrN-353" value="" style="endArrow=none;html=1;rounded=0;strokeWidth=4;" edge="1" parent="l7dVyTNd6598wQJ9YdrN-346">
          <mxGeometry width="50" height="50" relative="1" as="geometry">
            <mxPoint x="80" as="sourcePoint" />
            <mxPoint x="50" y="30" as="targetPoint" />
          </mxGeometry>
        </mxCell>
        <mxCell id="l7dVyTNd6598wQJ9YdrN-354" value="" style="endArrow=none;html=1;rounded=0;strokeWidth=4;" edge="1" parent="l7dVyTNd6598wQJ9YdrN-346">
          <mxGeometry width="50" height="50" relative="1" as="geometry">
            <mxPoint x="80" y="120" as="sourcePoint" />
            <mxPoint x="50" y="90" as="targetPoint" />
          </mxGeometry>
        </mxCell>
        <mxCell id="l7dVyTNd6598wQJ9YdrN-355" value="" style="endArrow=none;html=1;rounded=0;strokeWidth=4;" edge="1" parent="l7dVyTNd6598wQJ9YdrN-346">
          <mxGeometry width="50" height="50" relative="1" as="geometry">
            <mxPoint x="80" y="120" as="sourcePoint" />
            <mxPoint x="80" as="targetPoint" />
          </mxGeometry>
        </mxCell>
        <mxCell id="l7dVyTNd6598wQJ9YdrN-356" value="" style="group" vertex="1" connectable="0" parent="1">
          <mxGeometry x="144" y="1056" width="60" height="30" as="geometry" />
        </mxCell>
        <mxCell id="l7dVyTNd6598wQJ9YdrN-357" value="" style="endArrow=none;html=1;rounded=0;strokeWidth=4;entryX=0.5;entryY=1;entryDx=0;entryDy=0;" edge="1" parent="l7dVyTNd6598wQJ9YdrN-356">
          <mxGeometry width="50" height="50" relative="1" as="geometry">
            <mxPoint x="30" y="29" as="sourcePoint" />
            <mxPoint x="30" as="targetPoint" />
          </mxGeometry>
        </mxCell>
        <mxCell id="l7dVyTNd6598wQJ9YdrN-358" value="" style="endArrow=none;html=1;rounded=0;strokeWidth=4;" edge="1" parent="l7dVyTNd6598wQJ9YdrN-356">
          <mxGeometry width="50" height="50" relative="1" as="geometry">
            <mxPoint y="30" as="sourcePoint" />
            <mxPoint x="60" y="30" as="targetPoint" />
          </mxGeometry>
        </mxCell>
        <mxCell id="l7dVyTNd6598wQJ9YdrN-359" value="" style="group;flipV=1;" vertex="1" connectable="0" parent="1">
          <mxGeometry x="144" y="37" width="60" height="30" as="geometry" />
        </mxCell>
        <mxCell id="l7dVyTNd6598wQJ9YdrN-360" value="" style="endArrow=none;html=1;rounded=0;strokeWidth=4;entryX=0.5;entryY=1;entryDx=0;entryDy=0;" edge="1" parent="l7dVyTNd6598wQJ9YdrN-359">
          <mxGeometry width="50" height="50" relative="1" as="geometry">
            <mxPoint x="30" y="1" as="sourcePoint" />
            <mxPoint x="30" y="30" as="targetPoint" />
          </mxGeometry>
        </mxCell>
        <mxCell id="l7dVyTNd6598wQJ9YdrN-361" value="" style="endArrow=none;html=1;rounded=0;strokeWidth=4;" edge="1" parent="l7dVyTNd6598wQJ9YdrN-359">
          <mxGeometry width="50" height="50" relative="1" as="geometry">
            <mxPoint as="sourcePoint" />
            <mxPoint x="60" as="targetPoint" />
          </mxGeometry>
        </mxCell>
        <mxCell id="l7dVyTNd6598wQJ9YdrN-362" value="&lt;font style=&quot;font-size: 50px;&quot;&gt;R&lt;sub&gt;2&lt;/sub&gt;&lt;/font&gt;&lt;div&gt;&lt;font style=&quot;font-size: 50px;&quot;&gt;100Ω&lt;/font&gt;&lt;/div&gt;" style="text;html=1;align=center;verticalAlign=middle;resizable=0;points=[];autosize=1;strokeColor=none;fillColor=none;strokeWidth=4;" vertex="1" parent="1">
          <mxGeometry x="688" y="395" width="140" height="140" as="geometry" />
        </mxCell>
        <mxCell id="l7dVyTNd6598wQJ9YdrN-363" value="&lt;font style=&quot;font-size: 50px;&quot;&gt;BP&lt;/font&gt;" style="text;html=1;align=center;verticalAlign=middle;resizable=0;points=[];autosize=1;strokeColor=none;fillColor=none;strokeWidth=4;" vertex="1" parent="1">
          <mxGeometry x="999" y="235" width="90" height="70" as="geometry" />
        </mxCell>
        <mxCell id="l7dVyTNd6598wQJ9YdrN-364" value="&lt;font style=&quot;font-size: 50px;&quot;&gt;+6V&lt;/font&gt;" style="text;html=1;align=center;verticalAlign=middle;resizable=0;points=[];autosize=1;strokeColor=none;fillColor=none;strokeWidth=4;" vertex="1" parent="1">
          <mxGeometry x="119" y="-33" width="110" height="70" as="geometry" />
        </mxCell>
        <mxCell id="l7dVyTNd6598wQJ9YdrN-365" value="" style="endArrow=none;html=1;rounded=0;strokeWidth=4;" edge="1" parent="1">
          <mxGeometry width="50" height="50" relative="1" as="geometry">
            <mxPoint x="199" y="1095" as="sourcePoint" />
            <mxPoint x="149" y="1095" as="targetPoint" />
          </mxGeometry>
        </mxCell>
        <mxCell id="l7dVyTNd6598wQJ9YdrN-366" value="" style="endArrow=none;html=1;rounded=0;strokeWidth=4;" edge="1" parent="1">
          <mxGeometry width="50" height="50" relative="1" as="geometry">
            <mxPoint x="189" y="1105" as="sourcePoint" />
            <mxPoint x="159" y="1105" as="targetPoint" />
          </mxGeometry>
        </mxCell>
        <mxCell id="l7dVyTNd6598wQJ9YdrN-367" value="&lt;font style=&quot;font-size: 50px;&quot;&gt;GND&lt;/font&gt;" style="text;html=1;align=center;verticalAlign=middle;resizable=0;points=[];autosize=1;strokeColor=none;fillColor=none;strokeWidth=4;" vertex="1" parent="1">
          <mxGeometry x="194" y="1086" width="130" height="70" as="geometry" />
        </mxCell>
        <mxCell id="l7dVyTNd6598wQJ9YdrN-368" value="" style="rounded=0;whiteSpace=wrap;html=1;direction=west;strokeWidth=6;" vertex="1" parent="1">
          <mxGeometry x="479" y="965" width="80" height="40" as="geometry" />
        </mxCell>
        <mxCell id="l7dVyTNd6598wQJ9YdrN-369" value="" style="endArrow=none;html=1;rounded=0;strokeWidth=4;exitX=0;exitY=0.5;exitDx=0;exitDy=0;" edge="1" parent="1" source="l7dVyTNd6598wQJ9YdrN-368">
          <mxGeometry width="50" height="50" relative="1" as="geometry">
            <mxPoint x="384" y="996" as="sourcePoint" />
            <mxPoint x="659" y="985" as="targetPoint" />
          </mxGeometry>
        </mxCell>
        <mxCell id="l7dVyTNd6598wQJ9YdrN-370" value="&lt;font style=&quot;font-size: 50px;&quot;&gt;R&lt;sub&gt;p&lt;/sub&gt;&lt;/font&gt;" style="text;html=1;align=center;verticalAlign=middle;resizable=0;points=[];autosize=1;strokeColor=none;fillColor=none;strokeWidth=4;" vertex="1" parent="1">
          <mxGeometry x="481" y="885" width="77" height="81" as="geometry" />
        </mxCell>
        <mxCell id="l7dVyTNd6598wQJ9YdrN-371" value="" style="endArrow=none;html=1;rounded=0;strokeWidth=4;entryX=1;entryY=0.5;entryDx=0;entryDy=0;exitX=1;exitY=0.5;exitDx=0;exitDy=0;strokeColor=#000000;" edge="1" parent="1" source="l7dVyTNd6598wQJ9YdrN-306" target="l7dVyTNd6598wQJ9YdrN-307">
          <mxGeometry width="50" height="50" relative="1" as="geometry">
            <mxPoint x="-181" y="723" as="sourcePoint" />
            <mxPoint x="-76" y="735" as="targetPoint" />
          </mxGeometry>
        </mxCell>
        <mxCell id="l7dVyTNd6598wQJ9YdrN-372" value="&lt;font style=&quot;font-size: 50px;&quot;&gt;R&lt;sub&gt;t&lt;/sub&gt;&lt;/font&gt;" style="text;html=1;align=center;verticalAlign=middle;resizable=0;points=[];autosize=1;strokeColor=none;fillColor=none;strokeWidth=4;fontColor=#000000;" vertex="1" parent="1">
          <mxGeometry x="86" y="202.5" width="70" height="80" as="geometry" />
        </mxCell>
        <mxCell id="l7dVyTNd6598wQJ9YdrN-373" value="&lt;font style=&quot;font-size: 50px;&quot;&gt;R&lt;sub&gt;t&lt;/sub&gt;&lt;/font&gt;" style="text;html=1;align=center;verticalAlign=middle;resizable=0;points=[];autosize=1;strokeColor=none;fillColor=none;strokeWidth=4;fontColor=#000000;" vertex="1" parent="1">
          <mxGeometry x="86" y="767.5" width="70" height="80" as="geometry" />
        </mxCell>
        <mxCell id="l7dVyTNd6598wQJ9YdrN-374" value="&lt;font style=&quot;font-size: 50px;&quot;&gt;R&lt;sub&gt;t&lt;/sub&gt;&lt;/font&gt;" style="text;html=1;align=center;verticalAlign=middle;resizable=0;points=[];autosize=1;strokeColor=none;fillColor=none;strokeWidth=4;fontColor=#000000;" vertex="1" parent="1">
          <mxGeometry x="86" y="487.5" width="70" height="80" as="geometry" />
        </mxCell>
        <mxCell id="l7dVyTNd6598wQJ9YdrN-375" value="" style="endArrow=none;html=1;rounded=0;strokeWidth=4;entryX=0.5;entryY=0;entryDx=0;entryDy=0;strokeColor=#000000;exitX=1;exitY=0.5;exitDx=0;exitDy=0;" edge="1" parent="1" source="l7dVyTNd6598wQJ9YdrN-309" target="l7dVyTNd6598wQJ9YdrN-307">
          <mxGeometry width="50" height="50" relative="1" as="geometry">
            <mxPoint x="-211" y="617" as="sourcePoint" />
            <mxPoint x="-231" y="515" as="targetPoint" />
          </mxGeometry>
        </mxCell>
        <mxCell id="l7dVyTNd6598wQJ9YdrN-376" value="" style="endArrow=none;html=1;rounded=0;strokeWidth=4;entryX=1;entryY=0.5;entryDx=0;entryDy=0;strokeColor=#000000;exitX=0;exitY=0.75;exitDx=0;exitDy=0;" edge="1" parent="1" source="l7dVyTNd6598wQJ9YdrN-266" target="l7dVyTNd6598wQJ9YdrN-305">
          <mxGeometry width="50" height="50" relative="1" as="geometry">
            <mxPoint x="-18" y="735" as="sourcePoint" />
            <mxPoint x="-76" y="735" as="targetPoint" />
          </mxGeometry>
        </mxCell>
        <mxCell id="l7dVyTNd6598wQJ9YdrN-377" value="" style="endArrow=none;html=1;rounded=0;strokeWidth=4;strokeColor=#000000;" edge="1" parent="1">
          <mxGeometry width="50" height="50" relative="1" as="geometry">
            <mxPoint x="-48" y="834" as="sourcePoint" />
            <mxPoint x="12" y="834" as="targetPoint" />
          </mxGeometry>
        </mxCell>
        <mxCell id="l7dVyTNd6598wQJ9YdrN-378" value="" style="endArrow=none;html=1;rounded=0;strokeWidth=4;strokeColor=#000000;" edge="1" parent="1">
          <mxGeometry width="50" height="50" relative="1" as="geometry">
            <mxPoint x="-48" y="856" as="sourcePoint" />
            <mxPoint x="12" y="856" as="targetPoint" />
          </mxGeometry>
        </mxCell>
        <mxCell id="l7dVyTNd6598wQJ9YdrN-379" value="" style="endArrow=classic;html=1;rounded=0;strokeWidth=4;strokeColor=#000000;" edge="1" parent="1">
          <mxGeometry width="50" height="50" relative="1" as="geometry">
            <mxPoint x="-156" y="655" as="sourcePoint" />
            <mxPoint x="-136" y="695" as="targetPoint" />
          </mxGeometry>
        </mxCell>
        <mxCell id="l7dVyTNd6598wQJ9YdrN-380" value="" style="endArrow=classic;html=1;rounded=0;strokeWidth=4;strokeColor=#000000;" edge="1" parent="1">
          <mxGeometry width="50" height="50" relative="1" as="geometry">
            <mxPoint x="-116" y="655" as="sourcePoint" />
            <mxPoint x="-96" y="695" as="targetPoint" />
          </mxGeometry>
        </mxCell>
        <mxCell id="l7dVyTNd6598wQJ9YdrN-381" value="&lt;span style=&quot;font-size: 50px;&quot;&gt;T&lt;sub&gt;1&lt;/sub&gt;&lt;/span&gt;&lt;div&gt;&lt;span style=&quot;font-size: 50px;&quot;&gt;9013&lt;/span&gt;&lt;/div&gt;" style="text;html=1;align=center;verticalAlign=middle;resizable=0;points=[];autosize=1;strokeColor=none;fillColor=none;strokeWidth=4;" vertex="1" parent="1">
          <mxGeometry x="919" y="335" width="130" height="140" as="geometry" />
        </mxCell>
        <mxCell id="l7dVyTNd6598wQJ9YdrN-382" value="" style="rounded=0;whiteSpace=wrap;html=1;direction=west;strokeWidth=6;rotation=90;" vertex="1" parent="1">
          <mxGeometry x="879" y="140" width="80" height="40" as="geometry" />
        </mxCell>
        <mxCell id="l7dVyTNd6598wQJ9YdrN-383" value="&lt;font style=&quot;font-size: 50px;&quot;&gt;R&lt;sub&gt;3&lt;/sub&gt;&lt;/font&gt;&lt;div&gt;&lt;font style=&quot;font-size: 50px;&quot;&gt;100Ω&lt;/font&gt;&lt;/div&gt;" style="text;html=1;align=center;verticalAlign=middle;resizable=0;points=[];autosize=1;strokeColor=none;fillColor=none;strokeWidth=4;" vertex="1" parent="1">
          <mxGeometry x="751" y="95" width="140" height="140" as="geometry" />
        </mxCell>
      </root>
    </mxGraphModel>
  </diagram>
</mxfile>
